<svg id="Layer_1" data-name="Layer 1" xmlns="http://www.w3.org/2000/svg" viewBox="0 0 903.9 1292.72"><defs><style>.cls-1{fill:#fff;}</style></defs><title>black-images</title><path d="M362.87,626.93a9.85,9.85,0,0,0,2.42.56c3-.08,5.91-0.27,8.87-0.45,0.61,0,1.21-.27,1.83-0.33,1-.09,2-0.11,3-0.16s2.15-.1,3.22-0.18c0.38,0,.75-0.25,1.14-0.27,4.67-.24,9.34-0.46,14-0.69,2.33-.11,4.67-0.28,7-0.34,3.82-.1,7.64-0.08,11.46-0.23,4.6-.18,9.19-0.48,13.78-0.71a5,5,0,0,1,2.3.1c2.72,1.35,5.61,1.15,8.48,1.19,2.6,0,5.2,0,7.81,0v0.51l-14.61.38,0,0.48h1.88c13.74,0.1,27.48.05,41.21,0.33,12.17,0.25,24.33.82,36.49,1.32q7.72,0.31,15.42.89c4.89,0.37,9.77,1,14.67,1.32,4.28,0.29,8.57.3,12.86,0.46,7,0.26,14,.6,21,0.81,4.9,0.15,9.82-.06,14.71.23,8.56,0.52,17.11,1.33,25.66,2,2.56,0.19,5.15.12,7.72,0.24,9.74,0.43,19.48.9,29.22,1.33a8.55,8.55,0,0,0,2.29-.26c1.89-.44,3,0,4.36,1.95-0.37.42-.79,0.85-1.17,1.32-1,1.17-.83,2.19.56,2.79a31.9,31.9,0,0,0,3.64,1.09l0.42-1.86a2.89,2.89,0,0,1,.77-0.14c1.36,0.18,2.44,2,4.06.67,1-.86,2.09-1.71,3.39-2.77a2.71,2.71,0,0,1,.81,1.13,31,31,0,0,1,.2,5.57c-0.35,3.88-.89,7.74-1.4,11.61a18.81,18.81,0,0,1-.8,4.11,8.1,8.1,0,0,1-1.9,2.56c-1.89,2-3.88,3.81-5.77,5.75a20.66,20.66,0,0,0-4.26,7.74c-1.47,4.1-2.54,8.34-3.82,12.5-1,3.35-2.09,6.7-3.2,10-1.48,4.43-3,8.83-4.51,13.26a23.93,23.93,0,0,0-.67,9,6.17,6.17,0,0,1-.74,4.52c-1.13,1.65-2.5,3.15-3.76,4.72a8,8,0,0,0-1.27,1.66,4.35,4.35,0,0,1-3.46,2.81,6,6,0,0,0-1.18.51c0.11,0.56.21,1.07,0.29,1.58a3.2,3.2,0,0,1-3,3.83c-0.53.06-1.06,0.18-1.77,0.3a8.13,8.13,0,0,1,0,2.06,1.7,1.7,0,0,1-1,1.09,1.55,1.55,0,0,1-1.16-.82,17.24,17.24,0,0,1-.82-2.59h-3.19c0.35,1,.63,1.7.84,2.42,0.4,1.37.15,1.69-1.26,2.09a9.32,9.32,0,0,0-1.58.82,3.36,3.36,0,0,1-1.42.67c-2.14-.18-3.25,1.16-4.38,2.62s-1.89,1.68-3.85.71c0.46-1.69,2-2.53,3.11-3.61a6.32,6.32,0,0,0,2.2-2.91,3.78,3.78,0,0,1,1.63-1.48c1.08-.74,2.22-1.4,3.33-2.09,0.78-.49,1.56-1,2.36-1.46,1.18-.69,1.22-1.58.08-2.29a3.11,3.11,0,0,0-2.92,0c-1.68.61-3.33,1.33-5,1.84-4,1.19-7.89,2.46-11.91,3.38-5.85,1.33-11.72,2.63-17.65,3.48a271.1,271.1,0,0,1-27.67,2.78,257.12,257.12,0,0,1-35.08-.62c-7-.67-14-1.49-20.69-3.66-7.3-2.36-13.52-6.27-18.07-12.65-1.57-2.19-3.6-4.05-5.38-6.1a10.05,10.05,0,0,1-.93-1.54,13.16,13.16,0,0,1-3.06.27,8.25,8.25,0,0,1-3-1.14c-0.27-.16-0.11-1.07-0.14-1.63,0.49,0,1,0,1.46,0a0.32,0.32,0,0,1,.16.16,1.66,1.66,0,0,0,2.37.77c0.71-.37.87-1.61,0.35-2.78-0.63-1.42-1.36-2.81-2-4.24a2.16,2.16,0,0,0-2.19-1.38q-4.3-.15-8.59-0.46a2.41,2.41,0,0,1-2.41-1.73c1.32-1.39,3.25-1.35,4.89-1.64s3.49,0.13,5.67.26c-0.43-1.42-.68-2.53-1.09-3.58-2-5.14-4.13-10.26-6.18-15.4a4.55,4.55,0,0,1-.42-1.8,3.46,3.46,0,0,0-1-2.76,2.74,2.74,0,0,1-.59-1.46,15.65,15.65,0,0,0-3.27-7.64,6,6,0,0,0-2.79-1.94,21.75,21.75,0,0,0-5.5-.93c-5-.15-10-0.06-15-0.17-3.9-.09-7.81-0.23-11.69-0.56-4.31-.37-7.24,1.32-8.82,5.31-1,2.59-2,5.22-2.88,7.85a4.13,4.13,0,0,0-.2,1.83c0.2,1.58.52,3.15,0.82,4.89-3,.9-3.78,3.3-4.68,5.8-1.67,4.61-3.5,9.17-5.61,13.59s-4.52,8.71-7,12.93a38.27,38.27,0,0,1-8.34,9.72A26.34,26.34,0,0,1,380,741.16a117.35,117.35,0,0,1-29,2.73c-8.26-.19-16.52-0.49-24.76-1.07-5.27-.37-10.52-1.25-15.75-2.08-4.38-.7-8.75-1.51-13.07-2.54-3.93-.94-7.77-2.22-11.65-3.37-1.42-.42-2.85-0.82-4.24-1.33-3.28-1.22-6.53-2.53-9.8-3.74a6.2,6.2,0,0,0-2.44-.51,4.75,4.75,0,0,1-3.88-1.2,2,2,0,0,0-1.18-.66c-3,.14-5.68-1.22-8.35-2.23-4.53-1.73-8.08-4.92-11.15-8.61-1.05-1.27-.84-1.88.29-3.25,1.58-1.91,3.06-3.9,4.38-5.59-1.53-3.92-3-7.41-4.25-11C243,690.34,241,683.93,239,677.55c-1.17-3.64-2.35-7.27-3.58-10.88a18.93,18.93,0,0,0-5.26-8.18,10.68,10.68,0,0,1-3.74-7.69c-0.25-3.55-1-7.07-1.5-10.61a5.27,5.27,0,0,1,.08-2.07,5.8,5.8,0,0,0,0-3.19,3,3,0,0,1,.59-2.32,3.32,3.32,0,0,1,2.19-1c0.31,0,.71,1,1,1.59a8.87,8.87,0,0,1,.43,1.14c1.48,0.16,2.85.77,4.36,0.07a2.22,2.22,0,0,1,1.75.32c1.22,0.77,2.43.4,3.62,0.14s1.47-1.07.77-2.07a2.92,2.92,0,0,1-.64-0.66,7,7,0,0,1-.18-2.67c0.24-.95,1.26-1,2.16-1,6-.11,12-0.21,18-0.38,4.75-.13,9.49-0.35,14.24-0.55a8.85,8.85,0,0,0,1.85-.23c2.91-.76,5.86-0.6,8.83-0.61,4.19,0,8.37.31,12.56-.27a43.92,43.92,0,0,1,5.1,0c1.3,0,2.6-.21,3.9-0.24,2.1,0,4.2-.08,6.29.05a9.54,9.54,0,0,1,3.6,1.07,8.09,8.09,0,0,1-1.44.3c-6.39.17-12.79,0.45-19.18,0.39a45.55,45.55,0,0,0-6.23.31,3,3,0,0,0-1.39.64c2.29,0.19,4.45,1.09,6.82.26,1.34-.47,2.93-0.25,4.41-0.33,5.53-.28,11.06-0.32,16.59-0.17,2.64,0.07,5.3-.05,7.94-0.17,5.45-.24,10.91-0.52,16.36-0.8a17.74,17.74,0,0,0,1.77-.29,3.08,3.08,0,0,0-2.64-.63c-4.21.08-8.42,0.25-12.64,0.28a40.91,40.91,0,0,1-7.61-.64c0.43-.05.86-0.14,1.29-0.15,6.32-.15,12.64-0.23,19-0.43,4.52-.15,9-0.5,13.55-0.67a27.41,27.41,0,0,0,8.07-1.17A1.8,1.8,0,0,1,361,624c4,0.87,8-.08,12.07-0.07,5.32,0,10.63-.12,16,0.23a8.94,8.94,0,0,1-1.52.37c-3.89.26-7.79,0.38-11.67,0.77-4.32.43-8.62,1.11-12.94,1.68-2.8-.17-5.63-0.58-8.47,1.42a6.45,6.45,0,0,0,1.27.15c1.68-.24,3.36-0.46,5-0.79A13.18,13.18,0,0,0,362.87,626.93Zm-57.71,7.92c0.71-.33,1.27-0.77.54-1.55a2.29,2.29,0,0,0-3.11.36c-0.69.86-.49,1.82,0.55,2.55a19.64,19.64,0,0,0,1.89,1.27,5.72,5.72,0,0,0,1.35.36,3.15,3.15,0,0,0,.18-1.49,7.22,7.22,0,0,0-1.35-1.55Zm303,7.1a10.25,10.25,0,0,0,6.5.23,15.8,15.8,0,0,0-6.56-.19c-1.13-.83-2.52-0.25-3.72-0.7-2.79,1.4-5.32-1.18-8.13-.56-0.64.14-1.57-.35-2.4,0.05a1,1,0,0,1-.84.07c-1-1.06-1.6-.29-2.34.35-1.17,1-1.84,1-2.74-.07-0.23-.26-0.41-0.57-0.71-1l-1.49,1.61c-0.58-.68-1.1-1.68-1.48-1.63a4.67,4.67,0,0,0-1.77,1.24,2.89,2.89,0,0,0-.93-1.15c-1.15-.24-0.59,1.17-1.36,1.64a2.86,2.86,0,0,0-.44-1.07,2.31,2.31,0,0,0-1.44-.77,2,2,0,0,0-1.1,1.27c-0.27,1,.38,1.75,1.59,1.81,1.63,0.07,3.27-.09,4.91-0.11,7.1-.1,14.2-0.15,21.3-0.3A15.39,15.39,0,0,0,608.12,641.95Zm37.26,12.48-1.32-.56-0.12.39,1.49,0.13a2.45,2.45,0,0,1-2.81,1.91l-9.32-.29c-1.24,0-2.47-.09-3.7-0.18-3.64-.25-7.27-0.54-10.91-0.77a2.6,2.6,0,0,0-2.53,1.36,2.13,2.13,0,0,1-1.22.93,3.62,3.62,0,0,1-1.47-.37,9.61,9.61,0,0,1,.57-1.35,4.14,4.14,0,0,1,.86-0.75c-2.94-.63-2.89-0.59-4.67,1.55a2.52,2.52,0,0,1-1.9,1,6.1,6.1,0,0,0-3.81,0,2.45,2.45,0,0,1-1-.37c1.16-2.22,3.52-1.17,5.07-2.3a5.16,5.16,0,0,0-2.38-.62c-2.88.1-5.75,0.3-8.62,0.46a7.25,7.25,0,0,1-1.62,0c-1.92-.34-3.83-0.74-5.77-1.12L590,655.43l0.05-.05c-1.66-1.63-3.42-.38-5-0.37a20.83,20.83,0,0,1-.26,3.13c-0.23,1-2,.7-1.92,2.24a3.35,3.35,0,0,0,1.27.27,5.3,5.3,0,0,1,3.63.48,3.23,3.23,0,0,0,1.14.24c2.81,0.25,2.81.25,2.34,3.13a6.69,6.69,0,0,1-.27,1.37,0.92,0.92,0,0,1-1.51.48,2.46,2.46,0,0,1-1-1c-0.9-2.23-3-2.33-4.85-2.69-1.42-.28-2.1.43-2.43,2.2h4.56c-1.85,2.82-.41,4.72,1.43,6.61a187.85,187.85,0,0,0,14.47,13.6c1.56,1.31,2.62,3.28,4.9,3.66a3.3,3.3,0,0,1,1.09.86c1.1,0.87,2.22,1.72,3.29,2.62,3.9,3.28,8.56,5.37,12.8,8.12,1.3,0.84,2.79,1.37,4.17,2.08a21.76,21.76,0,0,1,2.61,1.52c1.78,1.26,3.57,2.51,5.23,3.91a28.93,28.93,0,0,1,3.23,3.37,2.28,2.28,0,0,1,.23,2.85c-1.93,2.73-3.89,5.44-6,8-0.94,1.13-1.3.89-2.64-.07a5,5,0,0,0-1.67-.53,12.69,12.69,0,0,0-.62-1.64c-1.39-2.54-4.33-3.74-5.59-6.42a1.48,1.48,0,0,0-2-.8,3,3,0,0,0-1.54,1.54,2.44,2.44,0,0,0,.84,1.71c1,1.1,2.25,2.06,3.32,3.15,1.34,1.36,2.52,2.87,3.91,4.17s1.52,2-.26,3.05a36.46,36.46,0,0,1-4.85,2.32c-2.39.92-5.57,0.2-6.81-1.74a47.54,47.54,0,0,0-3-3.8,5.59,5.59,0,0,0-3.77-2.38,7.34,7.34,0,0,0-2.21-4.4c-1.6-1.59-3.11-3.26-4.61-5-4.23-4.77-8.36-9.64-12.68-14.32-1.67-1.81-3.18-4.16-6.4-3.49-1.09.23-1.47-.71-1.16-1.9a3.42,3.42,0,0,0,.19-2.17c-1.76-2.9-3.46-5.81-6.57-7.66a21.15,21.15,0,0,1-4.39-4.14c-1.57-1.72-2.94-3.62-4.48-5.37a10.55,10.55,0,0,0-9.16-3.58,9,9,0,0,1-4.34-.38,18.19,18.19,0,0,0-7.1-1.22c-2.62,0-5.22-.87-7.87-0.08a5.57,5.57,0,0,1-2.29-.28,19.91,19.91,0,0,0-3-.56,90.16,90.16,0,0,1-11.41-.83c-2.22-.32-4.5-0.28-6.75-0.4-1.86-2.12-4.33-.29-6.4-1a1.6,1.6,0,0,0-.45-0.11c-1.94-.05-3.94-0.42-5.79,0a11.91,11.91,0,0,1-4.59.11,46,46,0,0,0-10.68-.62c-1.45.08-2.87,0.74-4.37,0a2.3,2.3,0,0,0-1.54.34c-4,1.84-5.85,5.56-7.44,9.19a13.51,13.51,0,0,0-.41,8.08c0.47,2.19,1.07,4.36,1.65,6.53,0.84,3.14,1.68,6.29,2.58,9.41,0.69,2.39,1.34,4.8,2.23,7.12a78.83,78.83,0,0,0,3.34,7.46,82.17,82.17,0,0,0,4.46,7.94c1.83,2.79,4,5.38,6,8.07a12.59,12.59,0,0,1,.66,1.23,17.56,17.56,0,0,0,6.12,6.34c5.07,3.07,10.73,4.53,16.54,5.39,2.85,0.42,5.74.59,8.59,1a93.44,93.44,0,0,0,15.18.74c5.53-.11,11.07-0.14,16.61-0.24a26.65,26.65,0,0,0,3.72-.29c2-.33,4-1,6.09-1.13,7.52-.65,15-1.15,22.57-1.73a12.9,12.9,0,0,0,3.45-.57c2.88-1.07,5.93-1.16,8.89-1.74,1.83-.36,3.7-0.56,5.51-1,3.32-.83,6.63-1.71,9.89-2.74,4.3-1.35,8.73-2.23,12.67-4.68a28.72,28.72,0,0,0,10.8-11.66,51.76,51.76,0,0,0,4.47-11c1.2-5,2.75-9.91,3.89-14.91,1.44-6.33,1.62-12.83,1.92-19.29,0.21-4.54,0-9-1.54-13.38A4.54,4.54,0,0,0,645.38,654.43ZM269.64,723.16c1.82,0.67,3.55,1.38,5.32,1.93,3.63,1.14,7.29,2.19,10.94,3.27,1.27,0.37,2.57.65,3.82,1.07a57.63,57.63,0,0,0,14.13,3,48.73,48.73,0,0,1,7.18.86c6.89,1.53,13.9,1.56,20.88,2,0.92,0.06,1.83.18,2.74,0.31,4.08,0.58,8.14,1.42,12.25,1.71,4.81,0.35,9.66.25,14.49,0.31a70,70,0,0,0,18.75-2.08,2.19,2.19,0,0,1,1.69.14c0.83,0.71,1.42.37,2.07-.13,1.3-1,2.61-2,3.87-3a26.81,26.81,0,0,0,4-3.56,71.64,71.64,0,0,0,5-7.29c1.26-2,2.12-4.34,3.35-6.4,4.31-7.24,6.72-15.22,9.1-23.18a62.5,62.5,0,0,0,2.47-13.54c0.3-4.22-.4-8-2.91-11.49a19,19,0,0,0-8-6.28,36.47,36.47,0,0,0-5.07-1.75c-3.91-1.05-7.81-2.17-11.78-2.94a29.22,29.22,0,0,0-9.93.28c-2.37.35-4.82,0.1-7.21,0.32-3,.28-6,0.75-9,1.16a10.12,10.12,0,0,0-2.75.52c-3,1.33-6.18,1.56-9.31,2.14a9.45,9.45,0,0,0-4.77,2.34,3.87,3.87,0,0,1-1.75,1.09A5.83,5.83,0,0,0,336,666a8.47,8.47,0,0,1-2,1.64,36.77,36.77,0,0,0-9.4,7.22,2,2,0,0,1-.73.56c-2.58.88-4.13,2.93-5.77,4.92a4,4,0,0,1-2.29,1.35,4,4,0,0,0-2.84,1.8,4.52,4.52,0,0,1-2.62,1.73,3.83,3.83,0,0,0-1.92,1.06,3.19,3.19,0,0,1-2.78,1.41,6.45,6.45,0,0,0-3.7,1.26,4.9,4.9,0,0,1-4.58,1.09,1.34,1.34,0,0,0-1.85,1.08c1.12,1.14,2.6,1.14,4.06,1.19,0.74,0,1.31.37,1.1,1.12a1.57,1.57,0,0,1-1.2.78,16.74,16.74,0,0,1-2.72-.25l0.21,2a4,4,0,0,1-1.5,3.73c-0.55.44-1.18,0.76-1.74,1.19a30.93,30.93,0,0,0-3.71,3.05c-1.69,1.81-3.12,3.86-4.78,5.71a8.33,8.33,0,0,1-2.19,1.29c-0.81.46-1.65,0.87-2.43,1.37-1,.66-2,1.46-3,2.09-1.53.92-2.79,1.9-2.8,4a10.27,10.27,0,0,1-.79,2.77,19.39,19.39,0,0,1-8.13-3.28,3.13,3.13,0,0,1-1.16-3.72c0.44-1.09-.06-1.71-0.52-2.55-1.39-2.59-4.1-3.76-6-5.78a1.11,1.11,0,0,0-1.82,0,2.13,2.13,0,0,0-.05,1.89c1.56,2.32,3.29,4.52,4.92,6.79A9.9,9.9,0,0,1,262.7,717a6.19,6.19,0,0,0,2.18,3.48,1.33,1.33,0,0,1,.61.89c-0.22,1.39.88,1.94,1.65,2.63C268.16,724.94,268.47,724.81,269.64,723.16Zm3.76-64.81c1.19-1.89.3-2.91-1.21-3.77-0.88-.5-0.63-1.32-0.25-2.06s0.76-1.44,1.38-2.61c-7.83-.29-15.2.8-22.89,0l1.48-3a2.88,2.88,0,0,0-2.91.83c-2.19,1.85-2.88,4.44-3.27,7.06-1.16,7.72-.45,15.4.89,23,0.73,4.15,1.58,8.27,2.36,12.41a21.46,21.46,0,0,0,.47,3.2c1.11,3.15,2.37,6.25,3.58,9.36a3,3,0,0,0,1.59,2.06,10.11,10.11,0,0,0-.91-4.44c-0.82-1.84-.68-2,1.36-2.65a3.2,3.2,0,0,0,.64-0.27c2.68-1.58,5.36-3.15,8-4.75,2.34-1.4,4.71-2.75,7-4.26,3.55-2.37,7-4.87,10.54-7.28a10.87,10.87,0,0,1,1.72-.79l0.3,0.43a7.92,7.92,0,0,1-1.11,1.35c-3.8,3-7.59,6-11.47,8.86a7.69,7.69,0,0,1-3.2,1.29c-3.27.56-4.83,3.11-6.65,5.39a1.18,1.18,0,0,0,.14.37c0.92,0.36,1.68-.15,2.46-0.66,1.11-.72,2.24-1.4,3.34-2.13,2.4-1.6,4.91-3.05,7.15-4.85,5.94-4.8,11.86-9.64,17.6-14.67,3.8-3.33,7.32-7,10.88-10.59a43.42,43.42,0,0,0,3.18-4.14c-2.19.1-2.69,2.24-4.5,2.29,0.14-1.76,2.74-2,2.14-4.1a6.38,6.38,0,0,0-4-1.25,56.17,56.17,0,0,0-6.87,1.24c-2,.5-4.15,1.5-6.16.89-2.57-.78-5.2-0.11-7.72-0.85C276.9,658.85,275.27,658.69,273.41,658.35ZM618,642l0,0.53h2c3.34,0,6.69-.1,10,0.05,7.3,0.32,14.61.6,21.92,0.26a21.69,21.69,0,0,0,4.36-.75,1.91,1.91,0,0,0,1.08-1.2,2.38,2.38,0,0,0-1-1,2,2,0,0,0-.9-0.21c-5.11-.48-10.22-1.05-15.34-1.4-4.27-.29-8.57-0.24-12.85-0.48-2.32-.13-4.16.51-5.38,2.53a2.7,2.7,0,0,1-2.27,1.42C619.08,641.74,618.55,641.87,618,642Zm-376.56-6.68c3.43,0.39,6.73,1.8,10.39,1.47a17.4,17.4,0,0,1,5.59.15c4.07,1,8.17.86,12.28,0.95a16.31,16.31,0,0,0,5.65-.72c-0.6-3.55-2-4.72-5.26-4.76-9.13-.1-18.21.81-27.31,1.36C242,633.78,241.39,633.93,241.46,635.29Zm31.84,9.92c27.72,1.13,54.9,3.62,82.1,5.92a20,20,0,0,0,2.48-.16,7.57,7.57,0,0,0-1.15-.46c-6.73-.82-13.46-1.68-20.19-2.43s-13.46-1.54-20.22-2.06c-7.15-.55-14.32-0.82-21.49-1.15-6-.27-12-0.45-18-0.69A4.86,4.86,0,0,0,273.3,645.21Zm330.51,5.3V650c-1.05-.07-2.11-0.18-3.16-0.19-3,0-6.06,0-9.08,0-5.45,0-10.9-.06-16.35.13q-10.62.37-21.23,1.11c-7.53.52-15.06,1.21-22.58,1.88-1.74.15-3.46,0.49-5.18,0.74a0.7,0.7,0,0,0,.61.54l24.28-1.28c4.67-.24,9.34-0.5,14-0.67,2.85-.1,5.68.32,8.58,0,5.8-.67,11.64-1,17.47-1.35,3.09-.19,6.2-0.14,9.29-0.22C601.58,650.64,602.69,650.56,603.81,650.51Zm0.73,48.62,8.81,9.76,2.79-2.28c-1.19-1.32-2-2.7-3.26-3.48a18.17,18.17,0,0,1-3-2.54,36,36,0,0,1-2.83-3.65Zm-95.12,41.28-0.16.34a2.38,2.38,0,0,0,.68.54,45.51,45.51,0,0,0,6.29,1.71c5,0.7,10,1.19,15.06,1.67,1.73,0.16,3.49,0,5.23,0v-0.25ZM569.3,643c0.74,0,1.34,0,1.93,0a6.94,6.94,0,0,1,2.19.28c0.87,0.37,1.67.29,2-.44a3.46,3.46,0,0,0,.23-2.4,1.4,1.4,0,0,0-2.13-.69,2.16,2.16,0,0,1-2.17-.14c-1.53-.68-2.13-0.25-2.23,1.43A14.63,14.63,0,0,0,569.3,643ZM289.83,636.8c0.05-3.73-.44-4.1-4.61-3.29,0.35,1.16-.53,2.53.94,3.51A2.58,2.58,0,0,0,289.83,636.8Zm4-3.81c-1.76,0-3.27,1.25-3.14,2.74a3.63,3.63,0,0,0,1,1.35,3.66,3.66,0,0,0,.86-0.92c0.31-.73.1-1.91,1.35-1.79,1.06,0.11.76,1.15,1,1.84a1.67,1.67,0,0,0,.92,1c0.8,0.17,1-.48,1.06-1.17A3,3,0,0,0,293.78,633Zm9.39,4.43-3.92-3.18,2,0.26c-0.24-1.18-.9-1.67-1.69-1.5a4.16,4.16,0,0,0-2.08,1.18,1.67,1.67,0,0,0,.13,1.63C299.14,636.87,300.62,638.3,303.17,637.41ZM614.55,709.6l3.25,3.49,2.28-1.87c-0.78-1-1.37-1.74-2-2.48a1.29,1.29,0,0,0-2-.12A15.94,15.94,0,0,1,614.55,709.6Zm-22.39-13.65,0.54-.53-6.9-8-0.36.31C587,691,589.75,693.37,592.16,695.95Zm-273.51-34a9.74,9.74,0,0,0-4.22,6.49C317.09,666,318.33,664.09,318.65,661.91Zm42.88-31.56,0-.54c-1.3-.43-2.55.13-3.82,0.32s-2.45.29-3.68,0.44-2.51.09-3.34,1.37Zm164,17.55c-2.94-.63-5.65.51-8.45,1C520,649.43,522.79,648.71,525.55,647.9Zm-215.09,7.37c2-1,5-4.13,5.55-5.75C313.73,651.29,311.75,652.94,310.45,655.27Zm70.81-6.05a13.14,13.14,0,0,0-5.55-1.71,3.63,3.63,0,0,0-1.17.36C376.66,649,378.73,649.77,381.26,649.21ZM582,657.32c-0.05-1.7-1-2.65-2.11-2.26a1,1,0,0,0-.56.63,0.86,0.86,0,0,0,.34.74C580.37,656.77,581.14,657,582,657.32ZM446.14,661c-1.64-1-3.26-.79-5.27.06C442.89,661.48,444.5,661.84,446.14,661Zm-42.09-33.82v0.55a5.72,5.72,0,0,0,3.47-.55h-3.46Zm21.62,29.43,0,0.53c1.15,0.5,2.3.88,3.53-.12ZM521,654.75l-0.12-.52-2.09.34,0.07,0.4Zm56.28,22.46c-0.23,1.1.24,1.72,1.62,2.26ZM299.92,686.3a3.45,3.45,0,0,0-.33.88,1.06,1.06,0,0,0,.41.36,2.77,2.77,0,0,0,.41-0.68A1.8,1.8,0,0,0,299.92,686.3Zm83.57-36.83-0.05.4,1.22,0.16,0.05-.38ZM409.92,627l0.11,0.49,1.18-.27-0.05-.31ZM575,674.71a2.8,2.8,0,0,0-.41-0.45,0.7,0.7,0,0,0-.33.12,3,3,0,0,0,.36.47A1,1,0,0,0,575,674.71ZM344.33,626.83l-0.15,0,0,0.15Z"/><path d="M559.9,629.68l9.71,0.47a1.41,1.41,0,0,1-1.75,1.37c-2.47-.17-4.95-0.34-7.42-0.57a2.07,2.07,0,0,1-.77-0.68Z"/><path d="M525.46,628.34c1.79-.3,3.61-0.93,5.49.57h-5.51Z"/><path d="M521.75,628.44l-4.12.19C519.5,627.27,519.5,627.27,521.75,628.44Z"/><path d="M553.48,629.24l3.76,0.55C555.59,631,555.59,631,553.48,629.24Z"/><path d="M463.62,625a2,2,0,0,1,2.58.12C465.2,626,464.41,625.62,463.62,625Z"/><path d="M574.24,631.22h-2.91c1.16-1.18,2-1.08,2.92-.58Z"/><path d="M551.27,630.3c-0.42-.14-0.84-0.27-1.25-0.45a1.73,1.73,0,0,1,.14-0.56c0.44,0,.88.15,1.32,0.24Z"/><path d="M415.92,625.73h-4.17v-0.1h4.2Z"/><path d="M490.09,626.66l-1.75.2c0.53-1.2,1.06-1.14,1.67-.81Z"/><path d="M577.56,630.46a10.17,10.17,0,0,1,.72,1.18,1.17,1.17,0,0,1-.43.34,2.56,2.56,0,0,1-.64-0.74A2,2,0,0,1,577.56,630.46Z"/><path d="M509.87,628l0.61-.42a2.16,2.16,0,0,1,.31.5,0.45,0.45,0,0,1-.3.27A2.53,2.53,0,0,1,509.87,628Z"/><path d="M533,628.58l1-.43,0.16,0.34-1,.54Z"/><path d="M481.83,625.58l0.36-.2,0.22,0.48a0.83,0.83,0,0,1-.4.06A0.75,0.75,0,0,1,481.83,625.58Z"/><path d="M449.35,624.77a0.79,0.79,0,0,1-.31.26,0.85,0.85,0,0,1-.36-0.22l0.4-.39Z"/><path d="M504.92,627a0.85,0.85,0,0,1-.31.26,0.7,0.7,0,0,1-.28-0.24,0.84,0.84,0,0,1,.31-0.26A0.7,0.7,0,0,1,504.92,627Z"/><path d="M492.5,626.23l-0.1.17a3,3,0,0,1-.28-0.18,1.16,1.16,0,0,1,.09-0.16Z"/><path d="M588.36,632.07a2.75,2.75,0,0,1-.34.07A0.87,0.87,0,0,1,588,632a2.9,2.9,0,0,1,.34-0.07A0.92,0.92,0,0,1,588.36,632.07Z"/><path d="M470.33,625.17l0.31-.23a1.55,1.55,0,0,1,.12.3,0.22,0.22,0,0,1-.15.11A1.47,1.47,0,0,1,470.33,625.17Z"/><path d="M474.38,625.55l0.3,0.17a0.93,0.93,0,0,1-.11.16,2.67,2.67,0,0,1-.31-0.17Z"/><path class="cls-1" d="M259.69,686.3a1.8,1.8,0,0,1,.49.56,2.77,2.77,0,0,1-.41.68,1.06,1.06,0,0,1-.41-0.36A3.45,3.45,0,0,1,259.69,686.3Z"/><path d="M579.12,658.7l1.66-2.27c0.8,1.77,1.32,3.07.3,4.71Z"/><path d="M575.89,659.18l0.7,2.16c-1.05.28-2,.45-2.32-0.52S574.68,659.33,575.89,659.18Z"/><path d="M554.94,659.6c-1-1-1.45-1.68-.58-2.7C555.2,657.79,555.2,657.79,554.94,659.6Z"/><path d="M566.77,672.38a2.21,2.21,0,0,1-.26-0.59,3.21,3.21,0,0,1,.68-0.37,1.15,1.15,0,0,1,.14.57A1.56,1.56,0,0,1,566.77,672.38Z"/><path d="M568.32,661a1.72,1.72,0,0,1-.73.21,1.12,1.12,0,0,1-.3-0.5,0.82,0.82,0,0,1,.4-0.17A3,3,0,0,1,568.32,661Z"/><path d="M546,657.77a2.16,2.16,0,0,1,.56-0.31,0.41,0.41,0,0,1,.26.28,1.76,1.76,0,0,1-.26.49Z"/><path d="M571.41,661.05a1.71,1.71,0,0,1-.56.43,1,1,0,0,1-.42-0.32,1.29,1.29,0,0,1,.42-0.4A1.31,1.31,0,0,1,571.41,661.05Z"/><path d="M549.77,655.43l0.91,0.66-0.34.26-0.52-1Z"/><path d="M562.3,661.48l-0.26-.24a0.85,0.85,0,0,1,.29-0.25,0.66,0.66,0,0,1,.26.22Z"/><path d="M574.63,664.53l-0.11.19a3.3,3.3,0,0,1-.32-0.21,1.23,1.23,0,0,1,.1-0.18Z"/><path d="M583.18,661.07L583,661a3,3,0,0,1,.18-0.28,1.14,1.14,0,0,1,.16.09Z"/><path d="M553.54,661.56l0.14,0.37a0.46,0.46,0,0,1-.21,0,2.18,2.18,0,0,1-.14-0.36h0.22Z"/><path d="M533.83,640.45a2.79,2.79,0,0,1,.53.75,1.15,1.15,0,0,1-.35.49,2.39,2.39,0,0,1-.59-0.54A2.07,2.07,0,0,1,533.83,640.45Z"/><path d="M265,634.8l-0.8-.22,0.15-.28,0.61,0.55Z"/></svg>