<svg id="Layer_2" data-name="Layer 2" xmlns="http://www.w3.org/2000/svg" viewBox="0 0 903.9 1292.72"><defs><style>.cls-1{fill:#fff;}.cls-2{fill:none;stroke:#fff;stroke-miterlimit:10;}</style></defs><title>items</title><path class="cls-1" d="M320.56,617.21a11.29,11.29,0,0,0,4.5-8.64c0.71-.22,1.31-0.39,1.91-0.59,2.25-.77,2.77-1.48,2.31-3.72a12.07,12.07,0,0,1,.88-8.36,2.25,2.25,0,0,0,.44-1.46c-1.27-2.8.35-5,1.29-7.39a3.63,3.63,0,0,0,.06-2.65c-1.66-3.25-.49-6.38.29-9.45,0.59-2.33.52-4.1-2-5.15a5.14,5.14,0,0,1,.53-1.66c1.7-1.95,2.48-3.94,1-6.43a4.08,4.08,0,0,1-.2-2.32q0.62-5.79,1.36-11.56c0.38-2.93-.25-5.44-2.72-7.11,0.53-2.59,1-5,1.51-7.45a4.87,4.87,0,0,1,.17-1.16c1.46-2.95-2.07-5.78-.15-8.74s0.37-5.55-.09-8.36a8.79,8.79,0,0,1,.62-4.54,6.26,6.26,0,0,0,.22-5.23,7.76,7.76,0,0,1-.09-4.9,9.71,9.71,0,0,0,.45-4.94c-0.86-4.6.72-9,1.05-13.5,0.23-3.05,2.4-5.53,2-8.69-0.1-.79.76-1.65,1-2.53a10.44,10.44,0,0,0,.49-4.08c-0.38-1.88-.32-3.27,1.37-4.47,1.21-.86,1-2.12.84-3.54a38.22,38.22,0,0,1,.05-6.57c0-.64.58-1.33,0.45-1.89a6.49,6.49,0,0,1,2.12-7,2.24,2.24,0,0,0-.06-2.13c-1.35-1.82-1.17-3.58-.53-5.59,0.33-1,0-2.3-.09-3.71,2.69-1.05,3.79-2.91,2.22-5.77a1.5,1.5,0,0,1-.08-1.15,34.45,34.45,0,0,0,3-11.68,1.44,1.44,0,0,1,.51-1c3.42-2.08,4.52-6.23,7.84-8.65l-0.58-2.93a3.4,3.4,0,0,1,.8-0.89,4.27,4.27,0,0,0,2.69-3.58,5.8,5.8,0,0,1,1.11-2.47c0.95-1.35,1.19-2.59,0-3.9-0.86-.94-0.85-2.25.1-2.78,3.4-1.9,4.24-5.56,6.23-8.42a5.84,5.84,0,0,1,1.16-.89l2,3.78c3-.82,5.09-3.39,8.2-3.31,0.72,1.62-.47,2-1.28,2.55a2.91,2.91,0,0,0-1.27,3.75c0.71,2.08,1.05,4.21,2.7,6,1.21,1.32,1.55,3.44,2.42,5.54,1.68-2.76,1.17-5.74,1.9-8.4,0.51-1.86.87-3.77,1.27-5.66,0.21-1,.41-2,0.53-3.08,0.6-5.06.79-10.2,1.86-15.15,0.87-4,2.76-7.87,4.2-11.79,2.16-5.88,4.16-11.83,6.57-17.6a56.87,56.87,0,0,1,5.28-9.64c4.58-6.84,9.24-13.63,14.18-20.22,2.64-3.52,6-6.49,8.88-9.82s5.58-6.83,8.42-10.19a28,28,0,0,1,2.84-2.68c3.58-3.2,6.58-7,10.39-10,3.42-2.72,6-6.47,9.11-9.59,2.11-2.11,4.6-3.83,6.75-5.91,3.57-3.46,7-7.09,10.49-10.59,0.91-.91,2.15-1.49,3-2.44a37.34,37.34,0,0,0,2.74-3.95l-4.62-2c0.77-3.49,1-3.59,6.83-2.45l0-4-5.25-.4c4.79-3.23,4.79-3.23,6.81-9.17-0.67-1.37-3-1.93-2.23-4.14,1-2.79.85-6.2,3.81-7.91,2.06-1.19,3.18-2.25,2.46-5-0.35-1.35.88-3.11,1.38-4.69,0.37-1.19,1.06-2.4,1-3.57a5.37,5.37,0,0,1,2.64-5.3,25.18,25.18,0,0,0,2.91-2.51,8.5,8.5,0,0,0-.51-1.77c-1.84-3.15-.66-5.91.81-8.81a49.67,49.67,0,0,1,7.83-11.5,64.34,64.34,0,0,1,7.11-6.6c2.6-2.06,3.11-2.87,2.29-6.5l3.77-1.58c0.58-.24,1.52-0.3,1.69-0.7,0.71-1.68,1.84-1.46,3.22-1.13a6,6,0,0,0,2.16-.51l-2.13-3.31c2.29-4.28,3.72-5,8.23-4,1.1-3.34,2.68-6.33,6.13-7.86a2.46,2.46,0,0,0,1.12-1.06,6,6,0,0,1,5.49-3.31c4.32-.1,6.49-3.35,8.75-6,1.34-1.56,2.45-2.64,4.34-2.6,3.34,0.07,5.41-2.34,7.9-3.85,1.82-1.1.16-2.53-.34-4.05,2.31-.95,3.73-3.55,6.85-3,0.47,0.08,1.4-1.25,1.74-2.09,0.26-.65-0.28-1.58-0.11-2.31,0.22-.94.54-2.26,1.24-2.63,2.47-1.31,5.13-2.3,7.43-3.28,1.49-1.5,2.9-2.78,4.16-4.2a19.93,19.93,0,0,0,2.77-3.75c0.94-1.76,2.4-3.34,4.13-3.27,3.68,0.15,4.74-2.15,5.7-5.24L597.44,85c1.26,0,2-2.46,3.69-.86,0.19,0.18,1.37-.44,1.88-0.91a23.81,23.81,0,0,0,3.68-3.95c1.4-2.12,2.46-4.47,3.87-7.1,6.58,0.82,13.18-1.49,19.85-3.24,1.07-.28,2-1.54,2.77-2.5,2-2.44,1.93-2.38,4.81-1.07a8.39,8.39,0,0,0,3.7.61,30.36,30.36,0,0,0,4.48-.84l1.17-3.24a7,7,0,0,1,1.83,1.1c1,1.28,2.27,1.46,3.84,1.39,4-.18,8.1-0.25,12.15-0.16a24.66,24.66,0,0,1,5.76.88,63.62,63.62,0,0,1,8.17,2.67c8.12,3.4,14.45,8.74,18.4,16.83,1.9,3.9,2.4,8,2.78,12.16,0.11,1.22.35,2.59-1.47,4-0.34-1.66-.66-2.85-0.82-4.06a5.28,5.28,0,0,0-3.63-4.71c-2.33-.8-3.17-2.58-4.26-4.67-2.6-5-5.61-10.1-11.15-12.23a50.61,50.61,0,0,0-13.3-3c-4.4-.41-8.9.2-13.36,0.39a13.33,13.33,0,0,0-2.29.3c-2.79.61-5.57,1.24-8.34,1.92-1.36.34-2.7,0.81-3.51,1.05,0,3.87,0,7.23-.19,10.57,0,0.59-.9,1.13-1.63,2l-6.9-9.27c-1.18-1.58-2.27-3.23-3.56-4.71-1.63-1.86-2.16-1.72-4.11.7,3.22,3.58,6.52,7.1,9.65,10.77,1.73,2,3.18,4.31,4.71,6.41a28.7,28.7,0,0,1-2.93,3c-1.54,1.15-3.1,2.54-4.88,3.06-5.22,1.53-6.69,3-7.06,8.35A60.92,60.92,0,0,0,609.12,117a23.53,23.53,0,0,1-6.11,4.83c-2,1.06-3.64,2.94-5.41,4.49-2,1.72-3.86,3.5-5.84,5.2-0.83.72-1.8,1.18-2.56,0.11,2.29-2.52,4.49-5,6.78-7.42a10.9,10.9,0,0,1,2-1.19,10.17,10.17,0,0,0,2.85-2.06c2.62-3.71,6.27-6.23,9.74-9a2.33,2.33,0,0,0,.83-0.83c1.83-5.18,6.63-7.68,10.17-11.31,1.27-1.31,2.61-2.57,3.76-4,2.36-2.87,2.27-3.69-.41-6.23a1.15,1.15,0,0,0-.59-0.45l-10.68,1.36c0.69,4.74-2.26,8.3-5.81,11.55-4.35,4-8.73,7.94-13.06,11.95-2.87,2.66-5.63,5.45-8.53,8.07-4.06,3.66-8.21,7.23-12.33,10.82-0.79.69-1.71,1.22-2.46,1.95-3.1,3-6.13,6.1-9.25,9.09s-6.09,5.73-9.19,8.55c-2.51,2.28-5.45,4.21-7.52,6.82A45.77,45.77,0,0,1,536,168a2.41,2.41,0,0,0-.84,3.13,10.52,10.52,0,0,0,4.72,5.84,41.59,41.59,0,0,1,3.71-4.6c5.62-5.26,11.38-10.39,17-15.62,1.43-1.32,2.43-3.26,4-4.2,4.5-2.6,8-6.26,11.63-9.85a22.13,22.13,0,0,1,4.07-2.6l0.68,0.8c-0.73.78-1.44,1.58-2.19,2.34-2.59,2.59-5.16,5.22-7.83,7.73-1.42,1.34-3.14,2.38-4.54,3.75-4.84,4.76-9.58,9.62-14.38,14.43-1,1-2.1,1.92-3.1,2.92a3.58,3.58,0,0,0-1.15,1.53c-0.78,4.2-4,6.16-7.12,8.43a26.5,26.5,0,0,0-5.26,5.15c-1.48,1.94-.91,3.12.61,5.2a35.87,35.87,0,0,1,2.79,5.67c-0.9.43-1.48,0.64-2,1-2.52,1.55-2.5,3.15,0,4.63,0.89,0.52,2.23.9,2.54,1.67,1.16,2.9,3.15,4,6.52,3-0.46,3.5-2.3,7.26,3.16,7.21,0.48,2.21.9,4.32,3.3,5.05a1.62,1.62,0,0,1,.87.77c1.79,3.69,5.53,5.47,8.17,8.34,1.06,1.15,2.06,2.84,4.19,2.51a2.14,2.14,0,0,1,1.13.87,20.47,20.47,0,0,0,2.79,3.11c6.08,4.3,6.33,9.84,4.6,16.79-0.75,3-.55,6.29-0.78,9.35,7.52,1.34,11-.5,11.55-6,4.3,0.86,5.26-2.93,7.18-5.36,0.76-1,.92-2.53-0.62-2.88a3.61,3.61,0,0,0-2.88,1.24c-0.73.87-.87,2.23-1.52,4.14-1.73-2.92-.67-4.91.17-6.61a5.93,5.93,0,0,0,.22-5.22c-1.17-3.11-.37-4,2.93-4a30.51,30.51,0,0,0,3.14-.09,4.42,4.42,0,0,0,1.27-.75,20.75,20.75,0,0,0-1.27-2.24c-1.82-2.46-1.84-3.34.18-5.37s4.11-4,6.14-6c0.89-.89,2-1.72,1.39-3.7l-2.85,2c0.13-1,0-2.19.35-2.39,2.45-1.34,3.52-3.81,5.05-5.87,0.92-1.24,1.6-2.64,2.39-4a6.66,6.66,0,0,1,1.24-2c2.55-2,3.16-4.7,3.25-7.82l2.27-.64,7.57-12.8a3,3,0,0,0,3-1.93,47.63,47.63,0,0,1,4.62-6.83c1.22-1.67,2.45-3.26.24-5.6,3.82-.59,4.39-3,5.36-5.74,1.28-3.64,3.8-6.83,5.76-10.23,2.53-4.38,6.54-7.47,9.78-11.22a3,3,0,0,1,1.2-1c5-1.42,7.38-5.59,10.23-9.29a6.35,6.35,0,0,0,1-1.68,87.86,87.86,0,0,0,2.82-8.41c1-4.24,3-8.3,2.9-12.78a28.21,28.21,0,0,0-.58-3.71,2.31,2.31,0,0,0,1.92-2.75c-0.33-3.63-.26-7.29-0.43-10.94-0.14-3.09.08-3.56,3-4.52,1-.32,2.06-0.28,3.06-0.55a26.25,26.25,0,0,0,2.89-1.2l-0.83-5.74c4.59,2.65,8.41,6,12.74,9.33-2.91,2.77-.63,7.41-4,10.5a16,16,0,0,0-.64-1.53,9.65,9.65,0,0,0-1-1.14c-0.87,3.3-.21,6.22.19,9,0.2,1.39,1.69,2.28,3.36,2.2l2.78-.12,2.25,3.25c-1.15,2.72-1.15,2.72.82,6l1.67-4.29,4.13,1.32a3.4,3.4,0,0,1,.2,1.18c-3.68,8.19-6.83,16.64-11.33,24.45a9,9,0,0,1-2,2.37c-0.88.74-2,1-1.88,2.67,0,0.46-1.44,1.06-2.49,1.78a13.31,13.31,0,0,0-1.38-3.06c-0.91-1.07-1.92-2.1-3.72-1.56-0.64.19-1.6-.45-2.3-0.89A1.73,1.73,0,0,1,674,142a10.72,10.72,0,0,1,2.53-.32,3.69,3.69,0,0,1,1.1.32c1.34-3.35,1.34-3.35-2.25-5.46,1.43-3.64,4.44-4.67,7.34-2.53a10.29,10.29,0,0,0,1.34.65c2.4,1.27,2.58,1.89,1.34,4.62a7.26,7.26,0,0,0-.29,1.12c3.57-1.76,4.28-4.62,1.84-7.06a8.15,8.15,0,0,0-2.68-2.23c-3-1-3.57-3.74-4.41-6.12-0.37-1,.34-2.46.61-4l-2.85-1.55c-1.12,4.51-5.22,7.28-5.48,12.16a19.33,19.33,0,0,0-2.92,2.17c-0.57.59-1.21,1.84-.95,2.38,1.88,3.9-1.94,7-.25,11.1a34.1,34.1,0,0,1-4-1.09c-2.49-1.1-4.41.26-6.42,1.33a5.7,5.7,0,0,0-3,4.79c-0.24,3.25-2.76,4.11-5.45,5.35,2.08,2.62.58,4.54-1.11,6.26a7,7,0,0,0-2,6.82c0.84,4-.17,6.09-3.84,7.84-1.15.55-2.37,1-3.67,1.5l0.67,2.08c-1.07.74-2.47,1.2-2.95,2.13a61.64,61.64,0,0,0-2.63,6.9c2.23,4.25-1.35,6.27-3.76,7.83-4.18,2.7-6.33,6.37-7.56,10.9a7.06,7.06,0,0,1-.66,1.81c-1.76,2.91-3.64,5.75-5.34,8.69-1.25,2.15-2.29,4.38-4.51,5.83a4.22,4.22,0,0,0-1.54,2.67c-0.65,4.3-4.08,6.9-6.05,10.37a51.42,51.42,0,0,0-3.8,8.4c-0.27.77,0.61,2.28,1.38,3,1.73,1.57,3.78,2.78,5.6,4.27,1.6,1.31,3.06,2.79,4.75,4.36a9.26,9.26,0,0,1-1.78,2.3c-3.71,2.27-7.58,4.26-12,4.64A30.57,30.57,0,0,0,587.75,269c-4.46,2.07-9.55,3.22-14.52,1.83-7.78-2.19-13.19,1.2-17.76,6.88-1.87,2.32-1.75,2.68.25,5.06,0.41,0.49.85,0.94,1.37,1.52a8.27,8.27,0,0,1-1.33,1.57c-5.17,3.54-10.49,6.86-15.5,10.61-2.78,2.08-5.06,4.85-7.53,7.34a33,33,0,0,1-3.2,3.41c-7.52,5.64-15.06,11.27-22.7,16.74q-10.68,7.64-21.6,14.94c-3.34,2.23-7,4-10.4,6.11a81.53,81.53,0,0,0-8.7,6c-6.13,5.06-12.24,10.17-18.07,15.57a154.43,154.43,0,0,0-12.46,13c-4.42,5.18-8.57,10.6-12.55,16.12-2.67,3.71-4.73,7.85-7.22,11.69-2.7,4.17-5.77,8.12-8.34,12.37s-4.61,8.47-6.79,12.77c-1.4,2.76-2.35,5.77-4,8.4-1.88,3.09-4.49,5.74-6.35,8.84-2.62,4.37-4.88,9-7.18,13.52-0.38.75-.06,1.82-0.25,2.7-0.58,2.66-1.2,5.32-1.91,7.95-1.09,4-2.28,8-3.44,12a5,5,0,0,1-.77,2.2c-3,2.75-4,6.4-4.8,10.11a68.43,68.43,0,0,0-1.51,8.44c-0.32,3.41.37,3.87,3.79,3.31l1.62-.27c4.95-8.12,9.8-16,14.48-23.92,0.63-1.07.39-2.66,0.67-5,0.88,1.37,1.72,2.08,1.79,2.86,0.7,7.75,3.79,14.89,5.62,22.35,2.06,8.39,4.52,16.67,6.86,25,1.41,5,3,10,4.39,15,2.18,8.06,4.36,16.13,6.31,24.25,1.86,7.73,3.57,15.5,5.06,23.31,1,5.36,1.47,10.82,2.35,16.21,0.7,4.36,1.66,8.67,2.49,13a2.93,2.93,0,0,1,.07,1.52c-1.18,2.88.32,5.07,1.72,7.32q1.56,2.5,3.08,5a2.66,2.66,0,0,1,.66,1.39c-1,4.85,2.44,7.79,4.62,11.32,1.33,2.16,3.27,4.35.69,7-0.92,1-.65,2.17.42,3.12a29.21,29.21,0,0,1,6.41,8.4c1.67,3.11,4.39,5.79,5.92,9.14,0.69,1.51,1.28,3.07,2.07,5,3.93-.09,6.34,2.43,7.65,6.78l3.9-2.07c3,0.92,5.62,3.13,9.15,2.58,0.73-.11,1.87.87,2.42,1.63a10.4,10.4,0,0,1,1.29,3.26c0.88,3.14,1.89,3.65,4.66,2.18,0.57-.3,1-0.83,1.59-1.15,1.69-1,2.54-.69,3.51,1,2,3.49,2,3.49,4.51,2.55,2.46,0.67,4.13,1,5.76,1.58,2.94,1,6.18,1,8.73,3.26,1.21,1.06,3,1.43,4.66,2.16l1.73-2.61a2.19,2.19,0,0,1,.94.18,4.83,4.83,0,0,0,4.92,2.18c3.39-.34,6.88.44,10.34,0.66a6.46,6.46,0,0,0,2.28-.39,66.2,66.2,0,0,0,6.65-2.29c1-.44,1.73-1.49,3-2.66,1.88,0.63,4,1.47,6.22,2a3.81,3.81,0,0,0,2.81-.44c3.34-2.41,6.89-3.77,11-3,1.52,0.29,2.29-.41,3.18-1.63a5.74,5.74,0,0,1,3.4-2.18,41.05,41.05,0,0,1,8.23-.32c2.59,0.14,5,.22,6.23-1.49,2-.09,3.37-0.11,4.7-0.22s2.86-.39,4.3-0.48a2.91,2.91,0,0,1,1.84.37c2.13,1.69,4.18,3.49,6.59,5.53a10,10,0,0,0-6.07,3c-1.36,1.46-3.31,1.1-5.18.52-4.51-1.4-4.59-1.38-7.34,2.61-2,2.83-4.15,4.79-7.86,3.38-1.89-.72-3,0.47-4,1.75-1.25,1.68-2.37,3.46-3.5,5.22a4.55,4.55,0,0,1-5.77,2c-1.75-.57-3.49-1.18-5.26-1.66-2.18-.59-4.15-0.43-5.52,1.74a4.39,4.39,0,0,1-5.11,2c-2.29-.53-3.77.58-4.9,2.41-1,1.67-2,3.38-3.13,5-1.91,2.81-3.45,3.38-6.71,2.51-2.79-.74-5.58-1.49-8.3-2.41a8,8,0,0,0-6.47.31,9.73,9.73,0,0,1-3,.92c-3.5.49-4.32,0.1-5.77-3.14-0.69-1.55-1.65-2.61-3.25-2.07-4.06,1.37-8.23,2.57-12.64,5.4a34.58,34.58,0,0,0,3.55,1.38c4.2,1.06,8.43,2,12.61,3.08a49.74,49.74,0,0,1,5.15,1.91,9.83,9.83,0,0,1,5.44,4.82c1.44,2.77,2,2.53,5.07,1.72,4-1.05,7.76-2.85,11.94-3.45,1.92-.28,3.6-1.94,5.49-2.73,4.69-2,9.43-3.83,14.18-5.66,3.28-1.26,6.57-2.52,9.92-3.55,1.37-.42,2.94-0.24,5-0.36-2.14,4.19-5.91,4.5-9,6a10.81,10.81,0,0,0-.3,1.92,3.59,3.59,0,0,1-3.58,3.94c-3.89.32-6.9,2.58-10.26,4.08a2.36,2.36,0,0,1-.55.14l-5.08-2,0,3.79c-4.42,2.32-9.46,2.82-13.47,6,1.09,2.09,1.35,4.46,4,5.16a1.64,1.64,0,0,1,1,1c0.44,3.88,3.7,5.24,6.36,7a12.61,12.61,0,0,1,3.73,4.25,15,15,0,0,0,6,5.31,23.13,23.13,0,0,1,4.55,2.81c3.37,2.68,6.69,5.59,11.52,5a4,4,0,0,1,1.88.46,74.25,74.25,0,0,1,7.12,3.17c2.67,1.48,5.63,2.36,7.43,5.41,1.62,2.74,4.15,5,6.48,7.25a6.73,6.73,0,0,0,3.73,1.95,18,18,0,0,1,9.88,4.3,20.9,20.9,0,0,0,3.39,1.91,7.66,7.66,0,0,1,2.12,1c2.63,2.84,6.17,3.72,9.68,4.21s6,3.1,9.17,4.19c1,0.33,1.89.89,2.88,1.17,4.31,1.22,6.49,4.9,9.65,7.39-1.2,1.86-2.31,1.53-3.46,1.16-13-4.12-26-8.19-39-12.36-12.12-3.89-24.19-7.93-36.33-11.76-2.85-.9-5.91-1.12-8.81-1.9-3.49-.93-3.43-1.15-3.44-4.85a4.37,4.37,0,0,0-1.23-3,17.78,17.78,0,0,0-9.86-4.45c-0.74,1.59.22,2.58,0.93,3.65s1.41,2.26,0,3.77a8,8,0,0,1-1.27-1.72,21.77,21.77,0,0,0-10-11.71c-8.68-4.9-17.28-9.93-26-14.79a20.47,20.47,0,0,0-20.7-.16c-6.24,3.33-12.4,6.83-18.62,10.21-2.07,1.12-4.25,2.07-6.36,3.13-5.47,2.76-10.13,6.47-11.41,12.74-1,4.71-1.06,9.6-1.38,14.42a3.51,3.51,0,0,0,1.65,2.65c0.39-3.57.94-7.14,1.12-10.72,0.33-6.72,3.88-11.37,9.41-14.52,8.09-4.6,16.37-8.89,24.56-13.32,3.78-2,7.8-3.31,12.09-2.81a19.68,19.68,0,0,1,7.48,2.1c9.87,5.74,19.62,11.68,29.29,17.74a14.81,14.81,0,0,1,5,19.4c-2.78,5-6.17,9.72-9.43,14.45-0.6.87-1.89,1.25-2.86,1.86a31,31,0,0,1,1.9-4.64c2.37-3.91,4.81-7.78,7.41-11.54,4.76-6.87,1.43-17.66-6.82-21.08-2.52-1-5.27-1.88-7.39-3.49a124.47,124.47,0,0,0-17.79-10.81,17.11,17.11,0,0,0-16.57-.18c-4,2-8,4-11.89,6.12-4.79,2.65-9.31,5.86-14.27,8.1a11.74,11.74,0,0,0-7.08,8.36c-1,4.82-.85,9.9-1.12,14.87a2.18,2.18,0,0,0,2.17,2.49c0.15-1.18.35-2.18,0.39-3.18,0.09-2.62,0-5.26.16-7.87,0.4-6.41,2.56-11.68,9-14.43,3.24-1.38,6.24-3.3,9.4-4.88,3.48-1.74,6.39-.37,7.45,3.4,0.72,2.55,1.72,3.23,4.53,3.22a25.16,25.16,0,0,1,2.66.27c-0.42,3.67-3.15,3.72-5.71,4.17,0.64,3.26,1.27,6.31,1.83,9.38,0.61,3.34-.17,4.56-3.4,5.45l-6.41,1.73-0.12,10.59c1.4-.29,2.63-0.45,3.8-0.79,2.14-.62,4.21-1.52,6.38-2a3.23,3.23,0,0,1,2.72.95c0.43,0.59.08,1.88-.16,2.8a6.11,6.11,0,0,1-1.1,1.61c-3,4.32-5.92,8.65-8.91,13-0.82,1.18-1.5,2.64-2.64,3.35s-2.61.48-4.23,0.72c1.48,1.17,2.82,1.68,4.2.72,1.6-1.11,2.93-.44,4.42.19,2.87,1.23,5.75,2.55,9.25,1.85,0.09-.57.18-1.19,0.29-1.81s0.21-1.11.47-2.47l2.5,4.29,4,0v0.56l-3.41,1.36,0.22,2.69-5.71-2.05-5.64,3.47a19.67,19.67,0,0,0,8.26,5.81c8.63,2.93,15.58-1.74,19.89-7.41,2-2.61,3.73-5.38,5.58-8.09l6.35-9.29c-1.37-1.49-2.44-2.64-3.48-3.81s-1.37-2.45-.11-3.82,2.27-.62,3.5-0.06c1.73,0.79,3.56,1.38,5.35,2.06a84.51,84.51,0,0,0,7.85,5c5.73,2.85,11.7,5.21,17.39,8.14s11.26,6.17,16.71,9.56c1.65,1,2.83,2.88,4,4.5,1.84,2.48,3.89,3.86,6.89,1.72,0.64,4,.64,4,4.31,6.08,5.94,3.32,12,6.52,17.78,10,1.75,1.05,3.19,1.51,5.19.16a4.73,4.73,0,0,0,3.58,4.58c1.07,0.35,1.94,1.3,3,1.85s2.25,1.52,3.18,1.32c4.7-1,7.36,2.63,11.5,4.17l-2.45,1.82c1.31,1.57,1.46,3.13-1.1,4.44-2.4-1.21-5.09-2.5-7.72-3.91-6-3.22-12-6.44-18-9.77s-12-6.94-18-10.3c-2-1.13-4.25-1.92-6.39-2.86a2.78,2.78,0,0,1-1.06-.4c-3-4.33-8.14-5.65-12.31-8.21-11.94-7.33-24.24-14.09-36.4-21.06a5,5,0,0,0-1.2-.2c-1.67,2.38-3.42,5-5.24,7.47-3.37,4.65-6,9.87-10.56,13.61-5.9,4.84-12.57,5.58-19.63,3.57-2.62-.74-5-2.38-7.54-3.35s-5.2-1.59-7.8-2.36c-0.52-1.78-1.91-2.09-3.64-1.74l3.72,1.66c2.34,1.4,4.65,2.86,7,4.19,3,1.66,6,3.17,9,4.83a3.69,3.69,0,0,1,1.53,1.72c1.36,3.47,4.09,5.31,7.35,6.67,3.57,1.49,3.56,1.59,2.92,5.26a9.16,9.16,0,0,1-.42,2.32c-2.42,5.09-2,10.47-1.8,14.79,1.73,2.84,3.27,4.77,4.17,7,1.43,3.51,2.43,7.2,3.6,10.82,0.9,2.79,1.88,3.63,4.57,2.89a34.68,34.68,0,0,1,16.09-.77c-0.71-1.69-1.81-3.16-1.8-4.62s1.21-2.7,2.12-4.52c1.66,1.2,2.92,2,4.1,3,0.6,0.49,1,1.51,1.6,1.68,4.49,1.18,8.35,4.3,13.06,4.6a24.63,24.63,0,0,1,10.39,3.25,96.2,96.2,0,0,0,11.54,5.79c4.77,1.83,9.59,3.22,14.48,4.58,3.23,0.9,6.22,2.64,9.32,4a3.86,3.86,0,0,0,1.42.63,18.3,18.3,0,0,1,10.7,2.66c0.41,0.25,1.22,0,1.49.3a15.35,15.35,0,0,1,1.5,2.38,6.18,6.18,0,0,1-2.43.39c-7.56-2.16-15.08-4.44-22.62-6.65-4.86-1.42-9.73-2.78-14.82-4.22-0.47,2.08,1.2,3,1.64,4.41,1.24,3.89,4,6.27,7.47,8.11,1.28,0.68,2.17,2.11,3.43,3.39L596,944.4c2.87-1.66,2.81-1.62,4.87.9a5.7,5.7,0,0,0,2.47,1.82c4.24,1.35,8.55,2.48,12.8,3.81,3.25,1,6.46,2.17,9.65,3.35a2.39,2.39,0,0,1,1.83,2.6c-1.29,1.33-2.59.48-3.75,0.14-11.19-3.34-22.36-6.75-33.53-10.13q-9.6-2.9-19.22-5.75a13.85,13.85,0,0,0-2.72-.39c-2.46-.21-4.93-0.42-7.39-0.56-1.21-.07-2.44,0-4.21.08a10.82,10.82,0,0,0,1.34,2.24c4.31,3.68,6.73,8.68,9.44,13.45,5.61,9.89,9.37,20.52,12.28,31.46,1.11,4.18,1.61,8.51,2.61,12.72a6.72,6.72,0,0,0,2.09,3.58c6.05,4.68,11.1,10.39,16.54,15.7,4.76,4.65,9.73,9.1,14.57,13.68a51.47,51.47,0,0,1,4,4.31c1.59,1.9,3.1,3.88,4.57,5.88a13.85,13.85,0,0,1,1.07,2.37c-2.5,0-3.64-1.49-5-2.64l-39-34.23a2.61,2.61,0,0,0-.77-0.08l-2.72,6.42c1.58,1.48,3.08,2.9,4.59,4.3,1.92,1.78,3.84,3.56,5.79,5.32,2.31,2.09,4.68,4.12,7,6.22,4.84,4.43,9.54,9,14.52,13.28,3.39,2.9,6.72,5.76,9.33,9.42,1.41,2,1.55,1.89-.67,4-4.25-1.9-7.37-5.36-10.79-8.37-11.15-9.77-22.2-19.66-33.38-29.59-2.58.84-5.05,1-7.33,2.72-2,1.52-4.77,2-7.21,2.9s-2.87,1.41-2.63,4c0.12,1.29.57,2.55,0.8,3.84,0.59,3.34,1.37,6.67,1.65,10,0.37,4.5-.85,8.52-4.57,11.52a4.36,4.36,0,0,0-1.39,5.88c0.89,1.93.93,4.24,1.35,6.38l-0.73.26a21.76,21.76,0,0,1-1.36-2.52c-0.81-2.08-1.47-4.22-2.26-6.3-1.06-2.78-2.19-3.32-4.71-2.35-2.24.86-2.65,2.13-1.92,4.7,0.85,3,1.36,6.09,2.22,9.09q4.08,14.16,8.33,28.28c2.5,8.27,5.1,16.51,7.69,24.76,1.14,3.62,2.38,7.2,3.52,10.81,0.32,1,.51,2.13-1.2,2.53l-20.63-64c-2.27.87-4.18,1.58-6.08,2.33-4.14,1.62-8.19,3.49-12.43,4.76a13.72,13.72,0,0,1-6.55-.05c-4.87-1.06-9.68-2.39-14.46-3.8a18.3,18.3,0,0,0-12.24.81c-1.32,18.32-3.32,36.65-6.33,54.88-0.75-9.07,1-18,1.3-27s1.7-17.89,2.65-27.1c-1.89-.06-3.68-0.74-5,1.21a0.76,0.76,0,0,1-.71.2c-2.61-1.71-4.91.14-7.28,0.71a27.65,27.65,0,0,0-4.3,1.83c-1.78.77-2.15,1.84-.94,3.34,1.48,1.84,3.1,3.57,4.68,5.31,2.33,2.56,1.08,5.76,1.48,8.65,0.07,0.51-1.16,1.32-1.9,1.8a4.16,4.16,0,0,0-2,5c0.82,3.72.53,7.27-2.71,10.06-1.07.92-1.33,2.22-.87,3.92,0.79,2.9.76,5.93-1.41,8.67-1.73-1.13-1.3-2.8-1.57-4.26-1.18-6.37,1.36-12.64.41-19-0.08-.52.56-1.1,0.71-1.7s0.58-1.73.27-2.23c-2.09-3.35-.43-6.32.84-9.27,2.18-5-.71-9.63-6.26-9.61a44.15,44.15,0,0,0-5.46.57c-3.67.47-7,.17-9.47-3.14-1.86-2.46-4.8-4-5.91-7.19-0.36-1-1.91-1.68-3.17-2.7,2-2.5.73-4.82-.44-7.36-1.8-3.93-3.16-8.05-4.75-12.07-1.28-3.22-1.56-3.21-5-2.29-6.06,1.64-12.22,2.91-18.24,4.66-8,2.34-16.06,4.83-24,7.57-3.44,1.19-6.59,3.21-9.9,4.79-7.25,3.46-14.92,5.69-22.64,7.85-10.48,2.93-20.85,6.25-31.27,9.38-2.61.78-5.28,1.39-7.85,2.27-2.34.79-4.54,2-6.88,2.76a89.76,89.76,0,0,1-9.75,2.87c-4.6,1-9.28,1.61-13.91,2.44a6.4,6.4,0,0,0-2.7,1.14c6.27,0.42,12.53,1,18.51-1.44a10.57,10.57,0,0,1,9.43.48c3.54,1.84,6.08,1.37,7.54-2,3-7.07,9.42-6.67,15.22-7.26,4.93-.5,10,0.07,14.91-0.3a27.75,27.75,0,0,0,8.71-2.19c2-.86,3.93-1.23,5.66-0.37,5,2.52,9.72.87,14.48-.57,1.76-.53,3.46-1.28,5.24-1.71,3.12-.75,4.85,0,7.28,3-3.62.85-7.1,1.67-10.59,2.46a1.51,1.51,0,0,1-1.14-.12c-2.45-2.14-5.05-.81-7.52-0.24-10,2.28-19.91,4.59-29.8,7.12-8.26,2.11-16.46,4.48-24.66,6.84-9.32,2.67-18.62,5.46-27.93,8.19a17.14,17.14,0,0,1-2.29.59c-3.59.53-5.49-.52-6.95-4a56.3,56.3,0,0,1-2.26-6.68,7.16,7.16,0,0,1,0-3.11,55.08,55.08,0,0,1,1.48-6,9.14,9.14,0,0,1,1.53-2.68c1.1-1.45,2.3-2.82,3.49-4.2a3.39,3.39,0,0,1,1.39-1.32c5.07-.76,7.63-6.77,13.35-6.31,0.78,0.06,2-1.3,2.46-2.25a4.3,4.3,0,0,1,3-2.13c3.33-1,6.56-2.38,10.33-3.79l2,1.32,0.06-4.77c3.11-2.49,3.43-2.6,6.28-.7a3.24,3.24,0,0,0,3.92.18,8.56,8.56,0,0,1,8.53-.06c1.36,0.71,2.84,1.19,4.54,1.89a2.63,2.63,0,0,1-1,.92c-3.67.15-5,2.91-6.25,5.63-0.66,1.39-1.17,2.85-1.76,4.32,1.26,1.45,2.75,1.26,4.1.88,9.71-2.76,19.41-5.54,29.07-8.45,2.63-.79,5.12-2,7.7-3a2.93,2.93,0,0,0,2.14-3.31c-0.44-5.34-.79-10.6-2.73-15.79-1.25-3.34-1.38-7-3.51-10.23-1-1.46-.44-3.93-0.63-6.54L363,1023.4a7.38,7.38,0,0,1,.35-2.65c2.18-3.9.82-7.56-.51-11.26a2.39,2.39,0,0,1-.25-1.44c1.68-4.17.36-8.49,0.67-12.72,0.08-1-.07-2.24.45-3a6.74,6.74,0,0,0,.61-6.39,12.87,12.87,0,0,1-.2-6.16c0.33-2.19.91-4.48,0.06-6.89a12.92,12.92,0,0,1-.27-5.84,14.17,14.17,0,0,0-1-8.07,2.35,2.35,0,0,1,1.42-3.51c1.41-.53,2,0.45,2.68,1.59a7.16,7.16,0,0,0,3.45,2.85c0.28,3.77.62,7.54,0.81,11.31q0.95,18.65,1.78,37.31a35,35,0,0,1-.4,4.65c4.33,1.45,5.5.78,5.34-3.7-0.2-5.74-1-11.47-1.11-17.22-0.12-6.2-.91-12.41-0.21-18.63,0.22-2,.25-4,0.42-6.9,3.11,2.71,5.56,4.66,7.8,6.83,2.7,2.62,3,5.21,1.07,8.53-0.77,1.37-1.63,2.69-2.46,4l-2.55,4.12c1.45,2.63,2.94,5.31,1.36,8.88l6.79,4.43a16.75,16.75,0,0,0,.26-2c-0.1-4.31-.48-8.63-0.28-12.93a184.8,184.8,0,0,0-.53-19.51c-0.12-2-.31-3.92-0.25-5.87,0-.79.65-1.56,1.25-2.89,0.88,1.06,1.66,1.62,1.86,2.34a17.13,17.13,0,0,1,.49,3.89c0.73,15.6,1.42,31.2,2.17,46.8a15.09,15.09,0,0,0,1.26,5.41c0.05-4.46.19-8.91,0.13-13.36,0-2.69.62-5,2.92-6.47s3-3.5,2.67-6c-0.8-7.29-1.58-14.59-2.05-22,0.48,1.58,1,3.16,1.43,4.76,1.14,4.18,2.23,8.37,3.37,12.54,0.59,2.13,1.14,4.16,3,5.84s1.48,4.32.47,6.48c3.48,3.72,2.79,8.83,5.53,12.74l-1.4-8.59,2.88-.34c-1.12-6-2.19-11.86-3.34-17.74q-0.75-3.86-1.76-7.66c-0.5-1.89-.08-3.33,2-4.51,3.89,2.7,2.32,6.6,2.61,10a47.57,47.57,0,0,1,1.6,4.94c1.3,6.13,2.41,12.3,3.74,18.42a141,141,0,0,0,5,18.2c-0.69-4.23-1.4-8.45-2.06-12.68-0.69-4.41-1.3-8.83-2-13.25s-1.56-8.79-2.13-13.21-2.16-8.52-1.59-13c3.66,13.82,6.21,27.92,12,41.16,1.25-5.08-.1-10-0.6-14.94-0.52-5.08-1.43-10.12-2.25-15.17s-1.73-10.05-2.6-15.08l0.8-.19c0.72,2.88,1.48,5.74,2.14,8.63,0.38,1.66.52,3.29,2.55,4.05,0.69,0.26,1.1,1.65,1.34,2.59,0.72,2.88,1.3,5.81,1.93,8.71l0.82-.14c-0.4-3.55-.72-7.11-1.23-10.65S430,975.65,429.4,972s-1.83-7.09-1.39-10.46c0.47-3.6-2.52-6.89-.33-10.44,3.14,8.55,4.16,17.62,6.49,26.34,3.55-1,4.21-1.92,3.84-4.83-0.75-5.86-1.35-11.73-2.28-17.56-0.78-4.89-3.69-8.78-5.85-12.39-4.08.88-7.53,1.39-10.83,2.39s-5.88,3.2-9.54,3.11c2.24-1.23,4.42-2.58,6.73-3.65,3.45-1.6,4.39-3.46,2.64-6.79a60.45,60.45,0,0,0-5.11-7.9,17.21,17.21,0,0,1-3.26-11.27,7.89,7.89,0,0,1,1-3.76,13.33,13.33,0,0,1,.7,2,18.2,18.2,0,0,1,.14,2.4l3.36-.47c0.33,2.7-.51,5.65,2.51,7.12a1,1,0,0,1,.26.71c0.13,4.24,2.78,7.23,5.14,10.37,1.68,2.23,2.37,2.54,5,1.45,1.93-.81,3.75-1.85,5.63-2.78l0-3.53a2.75,2.75,0,0,1,1.28-.11c2,1.8,4,1.41,6.15.31s4.51-2.1,6.75-3.2a3.36,3.36,0,0,0,2.08-3.45,18.14,18.14,0,0,1,.65-3.84c0-.13.11-0.25,0.13-0.37,0.16-1,.69-2.17.42-3.07-1.42-4.68,0-9.57-.89-15.11l-1.75,6.23-2.73-6.83,2.71-2.19L442,895.15l0.84-.84a1.73,1.73,0,0,0-.76.07c-3.56,2.43-4.28,2.3-6.56-1.68-0.68-1.19-1.45-1.58-2.47-.89-1.36.93-1.07,3.61,0.38,4.62,0.47,0.33,1,.6,1.84,1.12-2.08.93-3-.14-3.83-1.06-1.32-1.48-2.67-1.4-4.19-.42-1,.64-2.05,1.17-3,1.84s-1.37,1.57-.31,2.91l5.49-1.64a4.72,4.72,0,0,1-4.6,3.18,5.89,5.89,0,0,1-4.62-3.2,11,11,0,0,1-.31-1.54c-0.3-1.39-.6-2.78-0.86-4a53.51,53.51,0,0,1,5.17-2c1.68-.46,3.44-0.59,5.88-1,2.45-2.39,2.56-3.16.27-6.32-1.83-2.52-3.7-5-5.81-7.83-0.66,1.21-1.36,2.39-2,3.63a15.77,15.77,0,0,1-6.28,6.79c-7.2,4.4-15.48.08-16.19-8.76-0.53-6.62,2.62-11.58,7.82-15.39,0.63-.46,1.33-0.83,2-1.22,0.36-4.19.34-4.23-2.46-5.59-2.2,1.35-.42,3.59-1.2,6.28a18,18,0,0,0-1.14-3.67c-0.81-1.28-1.84-1.85-2.62.13v0c-2.6,0-1.57,2.69-2.77,3.72-2.1,0-2.1,0-5-2.08a6.84,6.84,0,0,1,1.69-1.89c3.72-1.76,7.14-4.58,11.7-3.69,1.28,0.25,2.16-.24,2.19-1.54a1.63,1.63,0,0,0-2.2-1.61,72.52,72.52,0,0,0-7.71,2.79c-7.13,3-14.06,6.55-21.36,9-6.94,2.36-9.29,7.76-10.75,13.82a20.53,20.53,0,0,0,.61,10.49c1.3,4.52,1.89,9.25,2.79,13.89,0.17,0.9.37,1.79,0.58,2.68,0.82,3.56,1.7,7.11,2.46,10.68,1.07,5,2.06,10,3.07,15,0.12,0.61.2,1.24,0.4,2.54-3-2.48-3-5.41-3.24-8.11-0.2-2.18-1.2-3.54-3.13-5.17l0.73,9.19a6,6,0,0,1-3.22-5.09,14.67,14.67,0,0,0,.13-1.56c-1.24-6.27-2.52-12.53-3.78-18.73-3.88.06-6.23,1.9-6.62,5.4a6.85,6.85,0,0,1-2.2,4.34c-1.47,1.52-2.33,3.62-3.48,5.51-1.15-2.76-5-4.12-5.37-8-0.1-1.15-.52-2.5-0.08-3.42,1.73-3.64,2.64-7.7,5.47-10.81a9.47,9.47,0,0,0,1.72-3c0.74-1.95,1.34-3.95,1.89-6a22.82,22.82,0,0,0,.43-2.94l-0.74-.36a5.41,5.41,0,0,0-1.38,1.8c-0.67,3.59-2.46,5.91-6.23,6.63-2.1.4-3.18,2.07-3.94,4a7.46,7.46,0,0,1-2.21,3.49c-3.44,2.33-4.64,5.51-4.49,9.46,0,1.11,0,2.23,0,3.71-3.61-2.8-5-12.28-3-18.12-4,3.19-2.74,7.77-2.86,12.07-3.15-1.55-3.35-2.63-3.59-8.9-0.15-3.9,1.92-6.36,4.67-8.82-1.1-1.77-1.76-3.59.49-5.25-2.93,0-5.18.06-7.4-.15a8.5,8.5,0,0,1-2.63-1.27A8.28,8.28,0,0,1,325.5,880a3.45,3.45,0,0,0,1.71-2.77c0.05-.87,1.44-1.66,2.23-2.49l-2-3.76-2.92,1.55,2.33-4.18c3.07,1.22,5.35,1,7.47-2a8.35,8.35,0,0,1,5.53-3.58c1.6-.24,3.44-2.07,4.25-3.66,1.08-2.12,2.08-3.86,5.14-3.81-0.68-1.49-1-2.43-1.52-3.29-1.71-3-1.6-4.08,1.07-6.42a12.16,12.16,0,0,1,3.25-2.15,4.6,4.6,0,0,0,3.21-4,25.77,25.77,0,0,1,1.29-4.22c-3.93.44-7.65,0.54-11.09,2.27-3.83,1.92-4.79,1.83-7.34-1.37-1.86-2.33-3.7-4-7-2.3a3.72,3.72,0,0,1-4.62-1.26c-1.86-2.44-4-3-6.89-2a5.62,5.62,0,0,1-4-.55,5.28,5.28,0,0,0-5.62-.11,43.43,43.43,0,0,0-7.69,6c-1,1-1.1,3.13-1,4.72,0.13,2.77.32,2.76-1.69,6.21a11.61,11.61,0,0,1-.52-8,15.17,15.17,0,0,0,.31-7.74,2.68,2.68,0,0,0-1.15-.45c-2.95.79-6.55,6.54-6.09,9.46a46.41,46.41,0,0,1,.48,5.43,8.53,8.53,0,0,0,2.56,6.37c1.15,1.08,1.83,2.66,3,4.44l2.28-5.22c2.32,1.11,2.32,2.74,1.79,4.62s-1.16,4-1.53,6a5.21,5.21,0,0,1-2.18,3.54c-2,1.46-3.95,3-5.84,4.66-1.49,1.27-2.38,2.85-1.45,4.87,1.21,2.61-.18,4.23-2.06,5.69-2.8,2.17-5.68,4.24-8.37,6.54s-2.74,3.46-.63,6.31q1.05,1.42,2,2.89a3.67,3.67,0,0,1,.23,1,24.67,24.67,0,0,1-5.8,4.18c-3.22,1.64-6,4.22-8.87,6.46q-9.17,7.11-18.27,14.3c-7.72,6.08-15.4,12.2-23.12,18.28q-16.08,12.66-32.21,25.26a6.74,6.74,0,0,1-1.4.65l0.08,0.08c1.32-1.59,2.35-3.69,4-4.65,3.44-2,5.73-4.82,8-7.88a22.79,22.79,0,0,1,4.23-4.06c12.68-10.13,25.43-20.18,38.09-30.33,3.55-2.85,6.9-6,10.79-9.34L255.11,908c-2.75,1.5-5,2.7-7.24,4a9.46,9.46,0,0,0-2.14,1.68c-2.6,2.76-2.58,2.78-6.28.32,0.16-1.13.33-2.4,0.5-3.68,0.93-1.37,3.83-1.17,3.3-4.22-2.45.74-3.35,2.13-3.22,4.3a65.4,65.4,0,0,0-5.93,3.56c-2.17,1.62-4.12,3.54-6.11,5.29-3.53-3-3.51-4.4-.27-6.26a17.41,17.41,0,0,0,3.48-2.5c3.45-3.36,7.17-6.44,9.93-10.52,1.17-1.72,3.11-3.68,5.93-2,0.57,0.33,1.48.06,2.5,0.08l-2.38,4a18.71,18.71,0,0,0,3.58-1c2-1.15,2.29-3.32.79-5.2-0.32-.41-0.68-0.79-1-1.22-0.57-.86-1.09-1.75-1.71-2.75,2.84-2.91,5.58-5.85,8.49-8.61a3.89,3.89,0,0,1,2.75-.6c0.84,0.08,1.63.72,3.21,1.48l-1.79-4.19c9.66-7.75,17.42-17.47,26-26.53-2.32-.81-4.19-0.32-5.08,1.37-1.58,3-4.88,2.92-7.18,4.56-0.18.13-1-.6-1.51-1a3.18,3.18,0,0,1,.78-1.12,6,6,0,0,0,3.5-3.52c1.52-3.23,4.24-5.42,7.12-7.28,4.49-2.91,5.18-7.34,4.83-12-0.51-6.85,3.21-11.6,7.21-16.34,0.74-.87,1.38-1.82,2.06-2.73,4.34-1.35,9-2.14,12.91-4.28,2.22-1.22,3.71-2,5.94-.88,1.82,0.89,3.14,0,3.91-1.52a8.44,8.44,0,0,1,3.8-3.81,12.67,12.67,0,0,0,2.8-2.13c3.9-3.69,7.76-7.43,11.64-11.15,2.44,2.34,2.52,3.12.2,5.44a48.89,48.89,0,0,0-7.49,9,7.44,7.44,0,0,0,2-.62,90.33,90.33,0,0,0,7.7-6.77c1.39-1.47,2.33-1.24,3.67-.33,1.52,1,1.67,2.19.62,3.66s-2,2.78-1.21,4.56c1.69,0.84,2.47-.49,3.59-1.06,2.87-1.45,5.74-3.45,8.8-3.85s6.75-.49,10,1c0.6,0.27,1.41.05,2.73,0.07a24.59,24.59,0,0,0-2-2.65c-6.62-6.35-13.18-12.78-20-18.9-1.75-1.58-4.31-2.43-6.64-3.13A5,5,0,0,0,337,779a19.62,19.62,0,0,1-3.27,2.13,48.34,48.34,0,0,0-6.22,4.06c-3,2.69-5.85,5.64-8.62,8.6s-5.1,6-7.79,8.82-5.77,5.58-8.54,8.47a43.68,43.68,0,0,0-3.27,4.34,12.56,12.56,0,0,0-3,1.63c-8,7.76-15.92,15.61-23.9,23.39-7,6.87-14.16,13.67-21.22,20.54s-14.29,13.94-21.4,20.94q-14.6,14.36-29.17,28.75c-2.34,2.3-4.68,4.61-7.05,6.87-0.93.88-2,1.66-2.89,2.45-2.13-1-1.88-2.47-1-3.69,4.42-6,8-12.54,13.87-17.41,4.12-3.41,7.46-7.76,11.57-11.2,4.34-3.63,7.62-8.31,11.9-11.86,4.76-4,8.9-8.48,13.38-12.68,7.73-7.25,15.52-14.44,23.07-21.88,5.23-5.15,10-10.71,15.15-16,2.27-2.34,4.9-4.34,7.22-6.64,3.72-3.69,7.23-7.59,11-11.24,3.47-3.38,7.2-6.5,10.71-9.85,2.16-2.07,4.13-4.35,6.15-6.57,2.72-3,5.35-6.07,8.16-9,0.86-.88,2.3-1.16,3.29-1.95a33.69,33.69,0,0,0,4.37-4c3.23-3.63,7.34-4.26,11.84-3.82,2,0.19,3.92.42,5.88,0.52,5.76,0.3,9.59,3.13,11.53,8.56,0.44,1.24,1,2.44,1.4,3.68A10,10,0,0,0,365,791c1.34,0.72,2.32,2.1,3.51,3.11,1.45,1.23,3,2.4,4.94,4,0.6-4.55-1.83-7.91-1.23-11.76l3,6.09c0.3-1.33.58-1.82,0.47-2.21-2.59-9.34-5.19-18.68-7.86-28Q361.89,741.6,355.89,721c-1.65-5.67-3.23-11.35-5.05-17a12.91,12.91,0,0,0-9.73-8.39M5,789.15a37.19,37.19,0,0,0-.44-4.65m458.29,97.44L461,880.65l1.51,6.65-4.48-2a10.44,10.44,0,0,0,5.61,7c2.43,1.26,4.93,2.39,7.3,3.75,1.76,1,3.68,2.11,2.93,4.85l-6.45,1,4.82,6.87,3.54-2.47,1.78,3.16,4.44-1.13c-0.4-1-.66-1.88-1.06-2.67-2-3.83-4.33-7.5-5.79-11.51-0.93-2.55-2.1-3.73-4.65-4.38-4.08-1-7.7-2.84-7.67-8,0.69,0.86,1.11,2.19,2.67,1.6a2,2,0,0,0-1.16-2.91C463,880,462.67,880.79,462.87,881.94ZM386.07,657.21c2.17-6.4,6.23-11.88,5.57-18.8-0.08-.84.57-1.73,0.76-2.62,0.84-3.8-.89-5.88-4.74-5.8a2.12,2.12,0,0,1-.86-0.42c0.34-1.67.62-3.21,1-4.72a2.87,2.87,0,0,1,.92-0.79l0.71,3.28L399.79,626l1.67,4.27,7.12-7c-0.14,2.3-.91,4.35-0.21,5.52,1.66,2.74-.11,5-1.32,6.23-1.49,1.52-1.06,3.06-1.49,4.73-2.57.4-3.53,2.42-4.44,4.47a36.48,36.48,0,0,1-1.7,4c-1.61,2.7-1.1,5,1.18,7.23,4-.75,1.45-4.37,2.81-6.36l2.18,0.19,0.59-4.18c1.24-.61,2.86-0.86,3.25-1.69,1.36-2.93,2.92-6,3.23-9.14,0.33-3.4.22-7.13-2.33-10.1a3,3,0,0,1-.74-1.78c0-2.25-1.33-3.61-3-5l-3,.87-3.54-5.67a3.25,3.25,0,0,0-4-1.6,15.66,15.66,0,0,1-3.78.09c-1.22,0-2.43,0-4.31,0,2.36,3.07-.09,4.25-1.37,5.74a64.93,64.93,0,0,0-5.8,9.43c-1.22,2.37-.83,4.51-0.35,6.85a12.25,12.25,0,0,1,.26,4.63c-0.26,1.35-1.44,2.51-1.88,3.86a31.9,31.9,0,0,0-.76,4.82l-2.35-4.06-1.21-.73-0.86,3.17-0.78-.48L370.73,640c-0.41.36-.64,0.61-0.91,0.81s-0.79.53-1.16,0.77c-2.68-3.38-2.48-4.2.64-6.14a15,15,0,0,0,3.07-3.32c0.8-1,1.51-2,2.27-3a11.66,11.66,0,0,0,1.17-1.49c2.21-4.19,3.42-8.48,1.16-13.08a1.29,1.29,0,0,1,.19-0.67L379,613l-0.21-.8-6.27.72-0.07,6.1-3.86-2.77c-0.34,1.75-.51,3-0.84,4.21s-0.5,2.8-1.33,3.57c-3,2.8-3.73,6.59-4.56,10.25-1.22,5.38,1.35,10,3.64,14.53a0.49,0.49,0,0,0,.27.27c2.89,0.07,2.81,2.68,3.74,4.62,3.52-.72,3.74,2.5,5.1,4.34ZM388.61,544l-4.17,0c0.62-3.72-.2-6.83-3-9l2.46-6.2c3.27-.61,5.21-2.56,4.94-6.26a26.71,26.71,0,0,1,3.58-1,3.18,3.18,0,0,0,3-3.5,25.11,25.11,0,0,0-.94-4.48,10.7,10.7,0,0,1-.52-3.69c0.95-5.29-.66-7-6-6.1a4.9,4.9,0,0,0-1.26.47c-0.61,1.86-.93,4.38-1.55,4.45-2,.24-1.9,1.52-2.23,2.71a8.75,8.75,0,0,1-3.24,5.23,4.86,4.86,0,0,0-1.47,2.24c-0.72,1.94-1.73,3.53-3.84,3.86-0.83,3.92-.85,4.38-2.84,4.87-3.51.86-5,2.84-5,6.4,0,1.42-.65,2.85-0.6,4.27,0.14,4.13.48,8.25,0.74,12.41l6.09,0.07a14.64,14.64,0,0,1,.51,1.8c0.32,2.06,1.2,2.78,3.26,1.73a7.92,7.92,0,0,1,2.74-.23l0.75,4.18,5.1,0.56L386,562.6c2.68,1.71,4.69.19,6.56-1.38l0.74,5.23a8.65,8.65,0,0,0,10.62-11.55c-0.47-1.08-.88-2.19-1.38-3.26-1.32-2.84-2.56-3.51-5.59-2.56a3.91,3.91,0,0,1-4.33-.82C391.45,547.11,390.36,545.88,388.61,544Zm90,195.08,0.08,0.54c-1.55.31-3.14,1-4.64,0.84-3.08-.31-6.11-1.1-9.17-1.62a3.26,3.26,0,0,0-1.93.21c-5.13,2.68-10.94,4.55-13.38,10.61-0.88,2.19-1.78,4.38-2.54,6.61-1.18,3.45-2.33,6.92-3.33,10.43a10.07,10.07,0,0,0,.07,3.08,4.91,4.91,0,0,0,1.33.23,8.06,8.06,0,0,0,1.46-.57c4.95-2.46,8.4-6.57,11.85-10.7,0.81-1,1.67-2.3,2.73-2.57a24,24,0,0,0,11.92-7,8.67,8.67,0,0,1,2.24-1.3c2.92,1.75,2.89,1.65,5.91.95a14.31,14.31,0,0,1,9.18.68c7,3,13.89,6.18,21.75,6.08,2.62,0,4.36,1.4,5.42,3.84a7.87,7.87,0,0,0,2.23,3.13c2.34,1.76,4.5,3.22,5.9,6.25,1.19,2.59,3.15,4.93,3.72,8.29,3.4-4.53,4.18-8.78,1.28-13.39a31.07,31.07,0,0,1-2.68-5.26,9.8,9.8,0,0,0-7.14-6.17c-2.65-.7-5.39-1.15-8-2-7.3-2.41-14.53-5.05-21.83-7.46C487,741.4,482.81,740.31,478.66,739.1ZM367.8,581.47c-0.92,1.23-2.11,2.15-2.34,3.26-0.82,3.95-1.39,8-1.87,12a17.07,17.07,0,0,0,.5,4c14.05-.75,27.49-3.65,40.94-5.38,3.05-3.63,2.82-7.56,1.6-11.61A6.1,6.1,0,0,0,398.4,580c-1.37.52-3.29,0.85-4.5,0.28-2.87-1.34-5.19-1.25-7.45,1a3.42,3.42,0,0,1-1.76.52,21.23,21.23,0,0,1-8.6,0,4.62,4.62,0,0,0-2.86.71C370.57,583.92,370.6,584,367.8,581.47Zm167.78,454.86a15.54,15.54,0,0,0,.59-2.16c0.66-6.52,1.39-13,1.89-19.56,0.6-7.82-2-14.54-8.05-19.53-6.76-5.56-13.81-10.78-20.79-16.07-1.93-1.46-4.09-2.62-6.15-3.92,4.75,7.3,11.71,12.28,18,17.92l-0.55.7-8.29-5.83c2.65,5.31,4.65,10.84,8.56,15.14,3.45-1.18,4.23-1.12,5.53,1.74a28.72,28.72,0,0,1,1.86,7.1c0.3,1.79-.18,3.73.26,5.46,0.84,3.28,2.09,6.46,3.1,9.49l1.56-9.76C532.78,1023.51,532.87,1029.83,535.58,1036.33ZM456.41,722.55c-1.47-.76-3-1.08-3.65-2-1.76-2.34-4-2.17-6.31-1.67-1.66.35-3.28,0.85-4.92,1.28-2.69.7-4.09,2.54-4.78,5.14-0.33,1.22-.62,2.79-1.49,3.47-3.64,2.82-1.85,6-1.42,9.19l0.85,0.19,1.48-4.84c1.84,1.85,2.33,1.92,3.63.43s2-3.16,3.48-4.13c3.72-2.53,6.78-6.4,11.89-6.39A4,4,0,0,0,456.41,722.55ZM404.86,873.7a5.6,5.6,0,0,0,1.35,1.23c10.07,1.8,18.91-2.37,27.9-5.79a0.81,0.81,0,0,0,.3-0.25l6.4-7.74-2.34-2.6A65.55,65.55,0,0,1,404.86,873.7Zm69.36,107.72c2.49,1.23,3.38,4.18,7,5.36-5.2-8.75-7.41-17.79-9.49-27.77-1.44,4.3,1.11,7.92-1.56,11.29l-3.41-13.69c-0.63,12.49,2.76,27.43,10.27,30.18ZM337.55,826.72c2.31,3.52,2.36,3.63,5.39,2.37,1.91-.79,3.67-1.91,5.61-2.94A15.79,15.79,0,0,0,360,825c1.54-.72,3.13-1.33,4.72-2-2.25-2-4.82-4.06-8.63-3.08a63.94,63.94,0,0,0-7.11,1.84C345.12,823.23,341.39,825,337.55,826.72Zm114.24,50.91c-0.82-1.32-1.5-2.6-2.34-3.76-1.85-2.55-3.65-5.15-5.7-7.53s-4.07-2-5.4.94c-1.16,2.53.17,4.91,0.65,7.23,0.19,0.89,2.49,1.62,3.92,1.9a7.3,7.3,0,0,1,5.44,4,8.32,8.32,0,0,0,1.29,1.83,3.1,3.1,0,0,0,1.32-.21l-1-3,1-.75C451.23,878.11,451.5,877.87,451.78,877.63ZM523.15,197c3.11-.33,3.88-0.71,4-2.3a35.14,35.14,0,0,1,3.37-11.92,5.57,5.57,0,0,0,.35-1.13,4.61,4.61,0,0,0-3.2-5.16c-1.63-.49-2.57.19-3.67,2.63-1.26,2.82-2.19,5.64.48,8.33C520.47,190.36,524.26,193.69,523.15,197ZM423.38,757c-2.55,2.68-4.6,4.78-6.58,7-7.18,7.87-5.35,7.13-2.43,15.49a2.36,2.36,0,0,0,.6,1,7.7,7.7,0,0,0,1.65.69c1.31-3.9,1-8,2.27-11.77S421.61,761.79,423.38,757Zm42.17,96.74c-3.35,2.28-7,3.49-9.37,6.62,1.3,2.19,2.42,4.27,3.73,6.21,0.73,1.08,1.78,2.12,3.29,1.48,1.3-.55,2.53-1.14,2.79-2.93C466.52,861.45,467.16,857.86,465.55,853.72Zm-6.37,70.9c4.84-5.75,3.8-18.27-1.83-26l-1.12,6A27.53,27.53,0,0,1,459.18,924.62ZM367.44,680l7.11-.47c1.27-3.06-.73-5.15-1.53-7.95l-4,1.19-2.29-1.92C364.83,674.3,368.35,676.66,367.44,680Zm20.64,336.86-0.83-.43a74.91,74.91,0,0,0-5.9,7.51c-0.87,1.42-.67,3.49-1,5.25-0.15.75-.54,1.46-0.68,2.22a20.06,20.06,0,0,0-.51,4.22c0,0.62.87,1.21,1.34,1.81l0.92-.13C380.86,1029.6,385.48,1023.56,388.08,1016.87ZM581.84,265.74c7.3,0.77,11.44-1.88,10.6-6.18-1.41,0-2.8-.12-4.17,0a2.17,2.17,0,0,0-1.63.83C585.81,262.87,583.81,264.23,581.84,265.74ZM445.09,743l-0.76-.92c-3.15.9-8.62,7-8.91,10a2,2,0,0,0,.71,1.64,2,2,0,0,0,1.75-.13c1.44-1,2.62-2.32,2.41-4.23a5,5,0,0,1,2.5-4.95C443.53,743.87,444.32,743.44,445.09,743ZM675.38,116c-3.71,4.92-7,10-8.09,16.14C670.54,127,674,122,675.38,116ZM434.15,791.11a13,13,0,0,0-2.2,8.72C434.51,799,435.45,795.63,434.15,791.11ZM459.31,989.3a5.12,5.12,0,0,0-5.4,3.91,1.78,1.78,0,0,0,.59,1.61,1.7,1.7,0,0,0,1.63-.36C457.29,992.8,458.27,991,459.31,989.3ZM688.53,124.24c-5.67.31-6.28,1-4.51,5.07ZM469.31,881.87l1,0c0-1.16.43-2.54,0-3.45a11.67,11.67,0,0,0-5-5.44Zm-95,150.64,1,0.05c-1.79-5,1.06-10-.59-15.35a3.19,3.19,0,0,0-.91,1C374,1023,374.19,1027.76,374.35,1032.51Zm78-190.67c-1.77,2.29-4.12,4.27-4.43,7.9C451.12,847.71,452.52,845.25,452.35,841.84Zm73.49-591.51a7.14,7.14,0,0,0,.85-1.89,40.94,40.94,0,0,0-4.84-3.54c-0.38-.23-1.18.21-1.9,0.37Zm-84.3,589c0.22,2.32,1.62,3.45,4.2,4.39,0-1.42.42-2.71,0-3.41A2.78,2.78,0,0,0,441.55,839.31ZM686.77,113.7c-1.8,3-1.55,3.69,1.61,4.85C689.27,116.58,688.49,115.21,686.77,113.7ZM458.5,935.81c-1.67-4.41-2.46-4.63-5.45-2Zm-251.08-276a6.61,6.61,0,0,0-2-1.33c-0.41-.07-0.95.56-1.43,0.88a8.83,8.83,0,0,0,1.74,1.59C206,661,206.64,660.32,207.42,659.76Zm208.35,197c0.4-1.75.73-3.53-.5-5.21C414.29,853.33,414.8,855.06,415.77,856.79ZM531.14,157.3l2-4.89C530.2,153.48,530.1,155.14,531.14,157.3ZM443,891.37c0.48-3.82.44-3.86-3-3.55Zm-6-74.86-0.07,5.92C437.19,820.66,439.39,819.06,436.94,816.51Zm3.72,134.2c-0.86,3,.52,5,1.71,7C442.55,955.35,442.52,953,440.67,950.71ZM429.91,744.34c0.64-1.22,2.63-1.71,2.16-3.93C429.89,741,429.55,742.43,429.91,744.34Zm-147-106.92c2.52-.75,2.52-0.75,2.19-3.26ZM547.1,841l0.83-1.14-2.66-1.52-0.55.84Zm-196.5,35.92-0.78-.39a5.34,5.34,0,0,0-1,1.39,6.46,6.46,0,0,0-.06,1.86l0.74,0.15Zm68.56-31.13-3.82,2C417.65,848.39,418.55,847.36,419.16,845.81ZM608.23,92.74c1.56-1.58,1.24-2.27-.63-3.2ZM410.51,1044l0.74,0.26,1-1.62L411,1042ZM540,837.45a3.77,3.77,0,0,0,.81-1,3.62,3.62,0,0,0-.95-1.1,1.63,1.63,0,0,0-.72.63A6.75,6.75,0,0,0,540,837.45ZM481.51,726.94l-0.09,1,2.35,0.38,0.16-.75ZM679.83,138.11a4.93,4.93,0,0,0,1,.7,0.75,0.75,0,0,0,.5-0.37,1.3,1.3,0,0,0-.47-0.81A2.37,2.37,0,0,0,679.83,138.11ZM485.86,912l0.89,0.37a16.16,16.16,0,0,0,.72-1.75,4.8,4.8,0,0,0-.87-0.46ZM378.78,400.49a2.86,2.86,0,0,0,.93-0.81,1.81,1.81,0,0,0-.4-0.87,2.21,2.21,0,0,0-.88.57A2.44,2.44,0,0,0,378.78,400.49Zm19,240.36,0.65,0.41,1-1.57a4.12,4.12,0,0,0-.63-0.34C398.37,639.83,398.06,640.35,397.73,640.85Zm283.1-525.58,0.78-.33a5.21,5.21,0,0,0-.41-0.87,1,1,0,0,0-.58.25A3.47,3.47,0,0,0,680.83,115.27ZM34.21,699.8a3.63,3.63,0,0,0,.25-0.94,1,1,0,0,0-.57-0.28,5.16,5.16,0,0,0-.45.85Zm439.19,221,0.66,0.22,0.45-2.23-0.5-.11Zm82.69-74.42a2.64,2.64,0,0,0,.72-0.94,1.13,1.13,0,0,0-.64-0.75,1.75,1.75,0,0,0-.85.35Zm62-760.87,0.54-.32a1.12,1.12,0,0,0-.37-0.47,1.16,1.16,0,0,0-.53.29Zm-278.34,803,0.63,0.49a8.45,8.45,0,0,0,.35-1.13,2.32,2.32,0,0,0-.11-0.73,1.8,1.8,0,0,0-.88.34A2.21,2.21,0,0,0,339.75,888.55Z"/><path class="cls-1" d="M616.51,864.06a13.86,13.86,0,0,1-2.83-.9q-26.14-14.93-52.24-29.92-12.12-6.95-24.27-13.86c-3.4-1.93-3.47-2.14-1.54-5.68,1.19-2.18,1.2-4.22-.82-5.63-5.44-3.8-3.86-8.79-3-14.32,2.94,1,5.61,2,8.31,2.84q16.14,5.08,32.3,10.1,14.25,4.46,28.49,8.94c10,3.15,20,6.38,30,9.45,3.35,1,6,2.45,6.7,6.29,0.59,3.26-.73,4.94-4,4.32a78.6,78.6,0,0,1-7.83-2.25c-4.15-1.24-8.28-2.51-12.43-3.74-5.51-1.64-11-3.21-16.54-4.88-9.66-2.93-19.32-5.85-29-8.88-8.76-2.75-17.46-5.68-26.22-8.42-1.35-.42-2.86-1.12-4.64-0.53,1.29,1.42,9.31,7,10.62,7.41q27.85,9.11,55.7,18.19c5.23,1.7,10.52,3.24,15.77,4.91,1.23,0.39,2.39,1,3.94,1.67-1.54,1.14-2.83.44-4,.28-2.7-.36-5.38-0.9-8.08-1.31a3.25,3.25,0,0,0-1.68.18c-3.38,1.44-7.47,1.64-9.55,5.34a12.91,12.91,0,0,0-.8,2.65C606.47,850.64,611.16,857.58,616.51,864.06Z"/><path class="cls-1" d="M522.19,850.86c-0.37,2.2-2.54,4.63,1.09,5.64-1.37,4,.44,7.49,1.93,10.62,1,2.2,1.88,5.37,5.19,6a1.5,1.5,0,0,1,.76,1.25c-0.66,3.59,3,5.64,3.17,8.92a2.11,2.11,0,0,0,1.08,1.55c3.89,1.32,5.52,4.94,8,7.65a11.86,11.86,0,0,0,2.13,1.69,6.34,6.34,0,0,1,1.42.61c4.15,5.47,10.42,3.55,15.82,4.42a12.08,12.08,0,0,1,4.74,1.26,29.26,29.26,0,0,0,7.14,3,9.84,9.84,0,0,1,5.39,3.7c1.53,2,3.53,2.42,5.93,2.25,3.63-.26,7.27-0.33,10.91-0.33,0.68,0,1.34.68,2,1s1.52,1,2.11.85c4.58-1.2,8,2.21,11.88,3.3a18.66,18.66,0,0,1,9.6,7.18c-1.69,1.63-3.31.91-4.57,0.29-5.49-2.72-11.6-3.19-17.34-5a7.06,7.06,0,0,0-5.71.29c-4.25,2.28-8.22.65-12-1-1.17-.52-1.79-2.16-2.78-3.18-0.68-.7-1.65-1.81-2.33-1.71-3.33.5-6.19-1-9.1-2-2.18-.76-4.16-0.91-6,0.31-3.5,2.31-7,.78-10.22-0.23-1.47-.45-2.85-2.42-3.5-4-1.81-4.41-4.75-7-9.52-7.61a8.75,8.75,0,0,1-2.59-.93c-2.56-1.22-3-2.3-2-5,1.29-3.63,1.18-3.94-2.67-5.34a10.68,10.68,0,0,1-7.52-9.15,19.2,19.2,0,0,0-12.7-15.76c-5.26-2-10.71-3.51-16.08-5.24l-5.31-1.69c4.07-4.32,9.59-5.72,14.63-3.83,0.12,0,.23.13,0.35,0.18,4.82,1.86,6.26,1.18,7.85-4C517,846.65,519.53,848.79,522.19,850.86Z"/><path class="cls-1" d="M302.46,893.08c-1.28,1.1-2.52,2.25-3.84,3.31-12.55,10.12-25.07,20.28-37.68,30.33-9,7.2-18.12,14.29-27.22,21.38q-21.28,16.54-42.62,33c-0.31.24-.62,0.49-0.95,0.71-1.14.78-2.31,1.42-3.49,0.12a2.94,2.94,0,0,1,.42-4.19c2-1.71,4.09-3.29,6.17-4.89,9.45-7.29,18.94-14.51,28.34-21.85,9.6-7.5,19.09-15.16,28.68-22.67,10.85-8.49,21.66-17,32.7-25.27,4.49-3.36,9.48-6.07,14.32-8.95a32.73,32.73,0,0,1,4.62-1.9Z"/><path class="cls-1" d="M261.59,950.12a19,19,0,0,0-9.53,2.21c0,1,0,2.07,0,3.1a6,6,0,0,1-4.62,5.66c-3.28.91-6.58,1.78-9.91,2.47-2.5.52-4.8,1.15-6.33,3.47-0.42.64-1.44,0.89-2.67,1.59a6.25,6.25,0,0,1,.2-1.93c1.33-2.22,2.69-4.44,4.15-6.58a5.58,5.58,0,0,1,2-1.83c2.1-1.05,4.22-2.46,6.46-2.76,4.42-.6,7.62-2.55,9.69-6.45,2.72-5.12,6.39-6.43,13.19-7.92l0.89,4c3.13-2,12.35-13.88,13.61-17.66l-3.57-2.67c0.94-.7,1.62-1.64,2.32-1.65,6.07-.09,12.11-2,18.26-0.56-1.09,4.14-1.87,4.35-5.7,1.86-1.93.75-3.77,1.33-5.48,2.17a8.7,8.7,0,0,0-3,2.25q-18.56,24-37,48c-4.72,6.13-9.4,12.29-14.15,18.4-1.26,1.62-2.69,3.11-4.31,5-1.14-2.49.1-3.79,1.07-5.06,3.41-4.48,6.87-8.91,10.33-13.35q7.73-9.92,15.49-19.83c2.42-3.1,4.87-6.17,7.27-9.28A24.5,24.5,0,0,0,261.59,950.12Z"/><path class="cls-1" d="M308.41,918.11c-3.1,1.26-2.77,4.52-4.3,6.66-2.21,3.09-4.58,6.07-6.91,9.07Q279.25,957,261.28,980.18c-5.88,7.55-11.85,15-17.82,22.51-1,1.19-1.94,2.55-3.95,2.11-1-1.64-.3-3,0.68-4.29,4.74-6.06,9.56-12.07,14.28-18.15,3.34-4.3,6.55-8.69,9.86-13,1.35-1.76,2.86-3.39,4.19-5.16,4-5.39,8-10.86,12-16.24,2.2-2.92,4.63-5.66,6.81-8.59,2.55-3.42,4.71-7.15,7.46-10.39,2.34-2.77,5.26-5,7.93-7.53,1.23-1.15,2.43-2.34,3.7-3.44a4.23,4.23,0,0,1,1.42-.5Z"/><path class="cls-1" d="M577.82,1144.42c1.82,1.08,2.28,2.92,2.09,5a3.37,3.37,0,0,1-3.12,3.44c-1.91.28-3.8,0.78-5.91,1.22l1.66,8-0.86.29a10,10,0,0,1-1.28-2.1c-1.6-5.1-3.35-10.17-4.59-15.36a30.77,30.77,0,0,1-.33-8.14c0.06-1.62,1.65-1.86,2.92-2.16,2-.47,3.92-1,4.15-3.73a6.76,6.76,0,0,1,3.82,5c0.62,2.82-.66,4.84-3.49,5.48-1.27.29-2.6,0.35-3.88,0.61s-2.26.86-1.92,2.41,0.92,2.93,2.85,2.42C572.45,1146.19,574.9,1145.33,577.82,1144.42Z"/><path class="cls-1" d="M396.4,953.15c-6.3,4.09-12.16,1.84-14-4.76-0.92-3.41-1.59-6.89-2.25-10.36-1.93-10.28-3.74-20.58-5.72-30.86C372.73,898,370.76,889,369,879.82c-0.58-3.07-.69-6.21,1.81-8.9-0.3,1.27-.56,2.56-0.92,3.81a6.54,6.54,0,0,0,1,5.95,46.41,46.41,0,0,1,3.26,5.68,2.26,2.26,0,0,1-.11,1.85c-2.25,3.84-.47,7.62.16,11.39,0.53,3.21,1.37,6.37,2,9.56,1.18,5.78,2.28,11.57,3.47,17.35,1.43,6.92,2.85,13.85,4.43,20.74,1.23,5.38,3.05,6.61,8.61,6.3C393.69,953.49,394.58,953.35,396.4,953.15Z"/><path class="cls-1" d="M398.64,956.83c0.48-.06,1.12-0.13,1.75-0.23,4.19-.65,7.14,2.71,5.71,6.66a25,25,0,0,1-2.36,4.5c-1.07,1.73-1.91,1.88-3.48.69a17.9,17.9,0,0,1-3.84-3.24,8.3,8.3,0,0,1-1.17-4,10.37,10.37,0,0,1,.52-3.24C396.13,956.48,397.14,956.25,398.64,956.83Z"/><path class="cls-1" d="M576.33,1171.31l0,4.18c-1.35.54-2.8,0.62-2.8-.91,0-2.77-.9-5.63.69-8.36,1.47-2.52,6.49-4.28,9.08-3a3.2,3.2,0,0,1,1.8,3.56,3.38,3.38,0,0,1-2.75,3.36C580.42,1170.52,578.53,1170.88,576.33,1171.31Z"/><path class="cls-1" d="M566,722.21c6.1-1.65,11-6,17.58-6.66-0.4,2.74-2.4,3-3.76,3.63-2.18,1-3.55,2.14-3.72,4.84s-1.5,3-4,1.88a6.79,6.79,0,0,0-2.54-.69C567.7,725.15,566.59,724.36,566,722.21Z"/><path class="cls-1" d="M430.08,901.38c1.57-2.37,4.42-2.5,6.66-3.69,0.37-.2,1.62.68,2.08,1.33,1.56,2.2,1.09,4.59-.1,6.7-1.66,2.93-1.78,2.85.46,4.94a2.2,2.2,0,0,1,.15.93c-2.11,1.22-2.69-1.53-4.49-1.48,0.94-2.13,1.93-4,.89-6.51l-3.12,2.06L430,901.3Zm7.06-.31a2.65,2.65,0,0,0,.77-0.89,1.67,1.67,0,0,0-.59-0.67,1.3,1.3,0,0,0-.46.49A3.85,3.85,0,0,0,437.13,901.07Z"/><path class="cls-1" d="M238.06,890.53l2.75,1.78c-2.1,2.18-4,4.09-5.81,6s-3.46,3.74-5.26,5.68c-3.11-1.78-3.34-2.57-.79-5.07C231.76,896.18,234.73,893.59,238.06,890.53Z"/><path class="cls-1" d="M212.81,919.09l-2.37-3.43c5.63-2.21,8.79-6.84,12.5-10.82,2.83,2.31,2.75,2.71.53,4.68s-3.88,4.16-5.95,6.11A49.72,49.72,0,0,1,212.81,919.09Z"/><path class="cls-1" d="M223.17,984.47a8.9,8.9,0,0,1,.25-2.46,7.16,7.16,0,0,0,.31-5.68,7.14,7.14,0,0,1,.51-4.44c0.53-1.26,2.06-1.14,2.92-.06,2.4,3,1.57,9.62-1.55,11.9A9.8,9.8,0,0,1,223.17,984.47Z"/><path class="cls-1" d="M303.07,862.19c5.74-1.55,6.47-7.07,9.26-11.51,1.66,2.54,0,4.26-.11,6.46l5.81,0.07,0.15,0.7a3.35,3.35,0,0,1-1.16.72c-4,.42-7.62,1.59-10.46,4.62C305.49,864.4,304.36,864.64,303.07,862.19Z"/><path class="cls-1" d="M215.61,927.48l-1.3-3.32c2-2.14,3.57-3.89,5.22-5.57,2.13-2.17,2.52-2.11,5,.67C222.78,922.9,219.76,925.22,215.61,927.48Z"/><path class="cls-1" d="M312.38,870.42c3,3.4,3.77,3.53,8.77,1.66-0.42,2.19-1.22,2.89-3.72,3.24-3.47.49-5.66-1-7.84-5.48,2.71-2.09,5.46-4.23,8.25-6.33a2.55,2.55,0,0,1,2.31-.41Z"/><path class="cls-1" d="M248.62,882a12.57,12.57,0,0,1-.77,3.31c-0.53,1-1.58,2-2.87,1.13a2,2,0,0,1-.36-3.13,49.35,49.35,0,0,1,4.23-4c1.24-1.11,2.53-2.15,4-3.42,1.43,0.21,2.27,1,1.86,2.86C254.19,881.08,251.94,882.29,248.62,882Z"/><path class="cls-1" d="M415.27,894.36L413,902.51c2.21,1.59,3.42-1.1,5.2-.83-0.7,2.25-2.46,3.79-4.14,3.7a4.23,4.23,0,0,1-3.82-4.18c-0.29-4.42.41-5.86,3.44-7A5.23,5.23,0,0,1,415.27,894.36Z"/><path class="cls-1" d="M395.08,881c-0.12-1.94-.76-3.49-2.77-4.16a4.44,4.44,0,0,1-1.6-1.07c-0.95-.92-1.88-1.94-1.22-3.42a3.61,3.61,0,0,1,3.47-2.12c1.45-.07,2.06.71,2.4,2,0.49,1.85,1.37,3.63,1.63,5.51,0.15,1.08-.6,2.28-1,3.43Zm-0.47-7.14-0.89.57,1.68,2.76C396.35,875.43,396.2,874.28,394.61,873.86Z"/><path class="cls-1" d="M599.59,709.13c-2.33,4.84-6.29,6.66-12.83,6.19C587.75,712.68,591.45,710.86,599.59,709.13Z"/><path class="cls-1" d="M341,848.06c-2.58,2.33-6.08,1.45-9,2.68,1.11,2.27,1.11,2.27,4.5.86L335,856.54l-4.37.21,1.05-2.77-2.52-3.87C333.26,848.92,337,847.71,341,848.06Z"/><path class="cls-1" d="M382.7,885.2l-2-3.68-2.57.38a3.61,3.61,0,0,1,0-1.17c1-2.55,3-2.7,5.47-2.6s3.67,1,4.13,3.58l-3.66.22Z"/><path class="cls-1" d="M399.33,1062.68l2.47-.82,0-.56-5.27-.89,0.09-.76,10.55,0.12-3.25,1.81a2.26,2.26,0,0,0,.75.79c1.65,0.18,3.3.27,5.63,0.45l-9.39,3c-0.41-1.83,1-1.76,2-2.31l-3.68-.34Z"/><path class="cls-1" d="M427.86,1059.4c-5,.57-6.23,2.76-3.8,6.45l-2.69-.26c-0.3-5.48.3-6.55,4.83-8.43l-1.25-2.76c4.23,2.59,5,5.92,2.19,9.69Z"/><path class="cls-1" d="M389.49,865.61l-2,1.07-3.32-2.83-1.74,2.73c-1.21-.92-2.05-2.13-0.39-3.25a70,70,0,0,1,7.17-3.94c1-.54,1.77-0.24,2,1.37a25.34,25.34,0,0,0-2.56,1.17,12,12,0,0,0-1.66,1.41c0.6,0.52,1.21,1,1.81,1.56C389,865,389.13,865.22,389.49,865.61Z"/><path class="cls-1" d="M316,888.25l-8.17,5.44c-1.12.75-2.32,0.85-3.11-.29s0.19-1.88,1.07-2.5A13.59,13.59,0,0,1,316,888.25Z"/><path class="cls-1" d="M428.61,1071.36c2.5,1.89,3,3.79,3.52,12.64A19.32,19.32,0,0,1,428.61,1071.36Z"/><path class="cls-1" d="M308.18,876.3a7.81,7.81,0,0,1-1.12,2.12c-2.75,2.43-5.51,4.85-8.38,7.13-2,1.59-2.5,1.37-3.91-1Z"/><path class="cls-1" d="M364.43,949.59a13.67,13.67,0,0,1-2.13-8.09c0.06-1.17.61-2.2,1.85-1.9a2.6,2.6,0,0,1,1.26,2c0.12,2.65,0,5.32,0,8h-0.94Z"/><path class="cls-1" d="M328.48,837l3.81,0.25c0,2.27-1.63,2.89-2.78,3.83-1.31,1.07-2.58,2.2-3.92,3.22-1.15.88-1.94,2.41-4.34,2.36a15.88,15.88,0,0,1,1.77-2.35c1.47-1.28,3-2.47,4.59-3.65,1.2-.91,1.89-1.85-0.28-3.35Z"/><path class="cls-1" d="M437.5,1090.23c-0.54-2.76-2.3-5.32-1.24-8.87,2.54,1.78,3.1,4.41,4.1,6.61,0.24,0.52-1.18,1.79-1.83,2.71Z"/><path class="cls-1" d="M412.78,1070.51l-8.1-.82,2.26,2.29-0.57.74-5.91-3.68c4.36-2.37,8.27.72,12.3,0.32Z"/><path class="cls-1" d="M318.45,904.52c-2.78,1.8-4.4,1.67-6.44-.52-1.55-1.66-1.46-2.84.85-6-0.2,2.37-1.25,4.32.53,5.79a5.07,5.07,0,0,0,5.16.83Z"/><path class="cls-1" d="M409,900.31l-7.39-.09c2-1.94,3.71-2.85,5.91-2.13C408.65,898.49,409.38,899.32,409,900.31Z"/><path class="cls-1" d="M387.95,892.5l0.7-7.79C391.11,887.71,390.89,889.67,387.95,892.5Z"/><path class="cls-1" d="M422.28,1053.17l-6.17,5.12C416.31,1054.34,418.3,1052.61,422.28,1053.17Z"/><path class="cls-1" d="M263.49,870.49l-2.12-3a2.07,2.07,0,0,1,.22-0.65c1-.71,2-1.4,3.06-2.12C266.91,867,264.22,868,263.49,870.49Z"/><path class="cls-1" d="M208.67,918.38c2.58,2.82,2.58,2.82.13,4.77C206.71,920.9,206.71,920.9,208.67,918.38Z"/><path class="cls-1" d="M366.73,932.09l3.49-1.76c1.15,1.63.5,2.64-.67,3.36S367.38,934,366.73,932.09Z"/><path class="cls-1" d="M655.89,185.72l2-2.1c0.57,0.75,1.43,1.44,1.6,2.27,0.11,0.55-.79,1.3-1.23,2Z"/><path class="cls-1" d="M602.94,930c-3.47,2.29-4,2.17-5.78-.94Z"/><path class="cls-1" d="M398.95,1067l-6.49-5.79c3.41,0.49,4.82,3.34,7.13,5.12Z"/><path class="cls-1" d="M358.06,935.81l1.64,4.71C356.49,939.7,356.29,939.26,358.06,935.81Z"/><path class="cls-1" d="M582.61,135.54a5.72,5.72,0,0,1,.89-2.24c0.51-.47,1.92-0.81,2.2-0.51,0.86,0.91,0,1.52-.84,2a13.63,13.63,0,0,0-1.54,1.08Z"/><path class="cls-1" d="M628.29,65.67l-3.22.67c-0.26-1.67.36-2.64,1.63-2.78,0.59-.07,1.28.78,1.93,1.21Z"/><path class="cls-1" d="M318.55,904.6a5.55,5.55,0,0,0,.9-6l1.89-.23a1.81,1.81,0,0,1,.37.73c-0.85,1.94.16,5-3.25,5.4Z"/><path class="cls-1" d="M560.23,1168.49c0.94,2.11,2.81,3.31.62,5.33C559.46,1172.4,558.86,1171.07,560.23,1168.49Z"/><path class="cls-1" d="M191.12,964.67l-6.18,6.67c0.85-3.84,3.17-5.58,6.25-6.59Z"/><path class="cls-1" d="M241.33,891.22c-0.6-.66-1.59-1.25-1.71-2-0.19-1.2.7-1.84,2.43-1.59l0.37,2.95Z"/><path class="cls-1" d="M257.21,870.25a19.36,19.36,0,0,1,1.16,2.89,2.38,2.38,0,0,1-.47,1.69,1.41,1.41,0,0,1-1.27-.08,3.3,3.3,0,0,1-.38-1.94,13.05,13.05,0,0,1,1-2.49Z"/><path class="cls-1" d="M372.6,960.45c-0.68-1.27-2-2.42-.1-4.92l1.07,4.72Z"/><path class="cls-1" d="M602.51,707.25l4.33-1.39,0.25,0.68-4.1,1.74Z"/><path class="cls-1" d="M413.15,906.69l4.33-.2c-1.38,2.1-2.84,1.63-4.3,1.08Z"/><path class="cls-1" d="M412.52,913.69L410.8,910C412.82,909.49,412.82,909.49,412.52,913.69Z"/><path class="cls-1" d="M384.68,891.91l-0.06,4.7c-1.46-2-1-3.4-.88-4.73Z"/><path class="cls-1" d="M398.53,904.12l-4.22-.44C396.63,902.23,396.63,902.23,398.53,904.12Z"/><path class="cls-1" d="M484.28,1133l-0.66,4.34-0.47,0,0.05-4.42Z"/><path class="cls-1" d="M324,896L321.4,893C323.61,892.74,324.09,894.12,324,896Z"/><path class="cls-1" d="M540.56,1079.55l-1.81-3.83C540.72,1077.27,540.72,1077.27,540.56,1079.55Z"/><path class="cls-1" d="M409.22,907.17l-1.42,2.32-1-.6,1.48-2.28Z"/><path class="cls-1" d="M269.74,864.53l-2.21-1.72,1.79-1.41,1,2.65Z"/><path class="cls-1" d="M387.31,915.74l-0.9-4.67,0.52-.11c0.15,0.7.3,1.39,0.45,2.09,0.18,0.86.35,1.72,0.52,2.58Z"/><path class="cls-1" d="M466.92,1135.89l-0.13-2.83C468.45,1134.1,468.44,1134.93,466.92,1135.89Z"/><path class="cls-1" d="M468,1154l-1.92,2.54c-0.51-2.24.31-2.7,1.14-3.14Z"/><path class="cls-1" d="M600.86,700l-2-.94,0.32-.68,2,0.92Z"/><path class="cls-1" d="M418.74,1064.8l-2.64-3.14,0.52-.49,2.8,3Z"/><path class="cls-1" d="M430,901.3l-2.28,2.88c-0.72-2.71.67-2.89,2.36-2.8Z"/><path class="cls-1" d="M423.78,904.51L422.37,906l-0.53-.52,1.42-1.44Z"/><path class="cls-1" d="M443.95,906.27c1.29,0.68,1.72,1.65.6,3.09L444,906.2Z"/><path class="cls-1" d="M386.56,1067.07l-2.89,1.61-0.31-.62,2.93-1.52Z"/><path class="cls-1" d="M482.29,1142.66A6.19,6.19,0,0,1,482,1141a1.05,1.05,0,0,1,.89-0.3,1.17,1.17,0,0,1,.37,1A3.33,3.33,0,0,1,482.29,1142.66Z"/><path class="cls-1" d="M441.36,911.2a2.51,2.51,0,0,1-.32-1.15,3.28,3.28,0,0,1,1-.72,2.33,2.33,0,0,1,.2,1A3,3,0,0,1,441.36,911.2Z"/><path class="cls-1" d="M431,912.67a9.64,9.64,0,0,1,1,1.32,4,4,0,0,1-.77.7l-0.92-1.47Z"/><path class="cls-1" d="M545.51,210.58a3.07,3.07,0,0,1,1.15-.58,1.25,1.25,0,0,1,.77.66,1.11,1.11,0,0,1-.45.7A9.66,9.66,0,0,1,545.51,210.58Z"/><path class="cls-1" d="M533,753.05l-1-.77a1.7,1.7,0,0,1,.59-0.64,1.23,1.23,0,0,1,.8.57A2.09,2.09,0,0,1,533,753.05Z"/><path class="cls-1" d="M483.23,1081.69l-0.59-.48,1-.71a1.84,1.84,0,0,1,.33.54A4.9,4.9,0,0,1,483.23,1081.69Z"/><path class="cls-1" d="M176.77,657.59l-2.4-.22,0.28-.78,2,1.07Z"/><path class="cls-1" d="M426.55,915.77l0.28,1.9-0.57.09L426,915.87Z"/><path class="cls-1" d="M414,967.11l0.67,2-0.52.17-0.6-2Z"/><path class="cls-1" d="M629.57,932.25a3.21,3.21,0,0,1-.78-0.64,2.18,2.18,0,0,1,.47-0.67,5,5,0,0,1,.71.72A2.06,2.06,0,0,1,629.57,932.25Z"/><path class="cls-1" d="M444,906.2l-2.65-2,1-.82,1.57,2.92Z"/><path class="cls-1" d="M308.57,619.35a3.42,3.42,0,0,1-.19-0.92,1,1,0,0,1,.57-0.23,4.86,4.86,0,0,1,.39.84Z"/><path class="cls-1" d="M391.6,905.47a3,3,0,0,1-1.08.6,1.77,1.77,0,0,1-.68-0.61,1.33,1.33,0,0,1,.55-0.41A5.18,5.18,0,0,1,391.6,905.47Z"/><path class="cls-1" d="M386.31,929.61l-0.55-.65a1.26,1.26,0,0,1,.55-0.35,2.67,2.67,0,0,1,.69.55Z"/><path class="cls-1" d="M559.7,732.68l-0.43-.56,0.8-.38a1.45,1.45,0,0,1,.19.66A1.18,1.18,0,0,1,559.7,732.68Z"/><path class="cls-1" d="M481.92,1086.46l0,2.22h-0.21l0-2.22h0.21Z"/><path class="cls-1" d="M466.1,1139.71a2,2,0,0,1,0-1,1.82,1.82,0,0,1,.85-0.36,2.28,2.28,0,0,1,.11.71,7.87,7.87,0,0,1-.33,1.07Z"/><path class="cls-1" d="M480.55,1159.93a1.87,1.87,0,0,1-.28-0.66,1.18,1.18,0,0,1,.48-0.33,2,2,0,0,1,.24.66A1.06,1.06,0,0,1,480.55,1159.93Z"/><path class="cls-1" d="M257.25,870.32c1,0.11,2.35-.28,2.66,1.78l-2.68-1.83Z"/><path class="cls-1" d="M400.84,857.06l0.51,3.16-0.55,0c0-1.07,0-2.14,0-3.22A0.09,0.09,0,0,1,400.84,857.06Z"/><path class="cls-1" d="M541.62,124.06l-0.48.53-0.56-.69a1.34,1.34,0,0,1,.6-0.32A1.25,1.25,0,0,1,541.62,124.06Z"/><path class="cls-1" d="M378.13,865.7l-1.33,1-0.36-.47,1.34-1Z"/><path class="cls-1" d="M369.15,781.92c-0.08-.41-0.16-0.82-0.23-1.23a1.12,1.12,0,0,1,.31-0.07c0.17,0.38.32,0.76,0.47,1.15Z"/><path class="cls-1" d="M359.19,379.58l-0.47.44a3.33,3.33,0,0,1-.28-0.58,0.48,0.48,0,0,1,.22-0.25A5,5,0,0,1,359.19,379.58Z"/><path d="M205.79,658.1c-0.78.56-1.44,1.26-1.66,1.14a8.83,8.83,0,0,1-1.74-1.59c0.48-.32,1-1,1.43-0.88A6.61,6.61,0,0,1,205.79,658.1Z"/><path d="M238.4,908.67c-0.13-2.17.77-3.56,3.22-4.3,0.53,3-2.37,2.85-3.3,4.22Z"/><path d="M410.63,1041l-1,1.62-0.74-.26"/><path d="M479.89,725.28l2.42,0.59-0.16.75-2.35-.38Z"/><path d="M678.2,136.44a2.37,2.37,0,0,1,1-.48,1.3,1.3,0,0,1,.47.81,0.75,0.75,0,0,1-.5.37A4.93,4.93,0,0,1,678.2,136.44Z"/><path d="M377.15,398.82a2.44,2.44,0,0,1-.36-1.11,2.21,2.21,0,0,1,.88-0.57,1.81,1.81,0,0,1,.4.87A2.86,2.86,0,0,1,377.15,398.82Z"/><path d="M396.11,639.19c0.32-.5.64-1,1-1.49a4.12,4.12,0,0,1,.63.34l-1,1.57Z"/><path d="M679.2,113.6a3.47,3.47,0,0,1-.21-0.94,1,1,0,0,1,.58-0.25,5.21,5.21,0,0,1,.41.87Z"/><path d="M616.46,83.86l-0.36-.5a1.16,1.16,0,0,1,.53-0.29,1.12,1.12,0,0,1,.37.47Z"/><path class="cls-1" d="M478.55,772l4.48,1.49c-0.45,1-.82,1.89-1.3,2.76a2.43,2.43,0,0,0,.36,3.22,2.81,2.81,0,0,0,3.61.41c2.38-1.32,2.79-3.88,3.78-6.07,0.15-.33.24-0.69,0.49-1.45,3.19,1.54,6.3,2.9,9.27,4.52,2,1.08,2.37,2.7,1.07,4.64q-5.8,8.65-11.87,17.12a2.87,2.87,0,0,1-5.22-1c-1.77-8.32-3.35-16.68-5-25A2,2,0,0,1,478.55,772Z"/><path class="cls-1" d="M516.24,802c0,0.26,0,.52,0,0.78-0.26,5.31-.26,5.31-6.09,4.71l0.07-6.15c-2.69,2.13-4.63,5.73-7.94,2A2.07,2.07,0,0,1,503,803c1,0.11,2.1,1.79,3.09.28s-0.58-1.95-1.42-2.71-1.73-1.88-3-3.28c3.61-.53,4.31-6,9.22-3.19l-1.42-3.86c1.76-1.38,3.29-.37,4.84-0.07l-1.13,11.6,3.15,0.38Zm-6.53-3.69a4.73,4.73,0,0,0,.39-0.94,1.8,1.8,0,0,0-.55-0.35l-0.53.87Z"/><path class="cls-1" d="M501.78,823.72c-4.92,1.59-5.85,1.25-7.8-2.44C497.11,819.93,498.81,822.43,501.78,823.72Z"/><path class="cls-1" d="M484.75,833.07c-1.59-.17-3-0.59-3.76-2.77L485.7,831l-3.22-3.74c3.12,0.43,4.15,3.21,6.28,4.68-1.26,1.55-3.27-1.2-4.11,1.15Z"/><path class="cls-1" d="M492.1,827.41a9,9,0,0,1-1.67-.21c-1.44-.46-2.84-1-4.29-1.49s-1.22-1.31-.59-2.77l6.83,3.7Z"/><path class="cls-1" d="M484.65,833.11l1.82,2c-2.78.72-4.84-.39-7.4-1.45l5.66-.62Z"/><path class="cls-1" d="M500.39,791.68a10.74,10.74,0,0,1-1.6-1.62,3.34,3.34,0,0,1,.74-1.09l1.93,1.38Z"/><path class="cls-1" d="M516.33,802.12L515.41,800l3.33,1.76-0.24.7-2.27-.47Z"/><path class="cls-1" d="M500.3,816.37a1.9,1.9,0,0,1,.28.59,2.87,2.87,0,0,1-.71.41,1.47,1.47,0,0,1-.09-0.66A1.2,1.2,0,0,1,500.3,816.37Z"/><path class="cls-1" d="M389.35,621.71l0.5-2.15,0.79,0.09-0.22,2.23Z"/><path class="cls-1" d="M436.17,729.14l2.48-5.26C438.69,727.59,438.63,727.71,436.17,729.14Z"/><path class="cls-2" d="M612,259.28s65.29-93.75,71.76-112.2"/></svg>