<svg id="Layer_2" data-name="Layer 2" xmlns="http://www.w3.org/2000/svg" viewBox="0 0 903.9 1292.72"><defs><style>.cls-1{fill:#fff;}</style></defs><title>items</title><path class="cls-1" d="M550.29,741.23a6.2,6.2,0,0,1,1.95,3.18c0.11,0.57.36,1.34,1.26,1a1.57,1.57,0,0,0,.82-2c-1-1.45-1.12-3.31-2.38-4.74-0.93-1.06-1.09-2.79-1.65-4.38l-1.49-.06c0.92-1.74.86-1.85-1.36-2.47l0.38-1.32a3.94,3.94,0,0,0-.87,0c-1.89.41-1.85,0.39-2.67-1.36-0.59-1.25-1.38-2.4-2-3.64a10.83,10.83,0,0,1-1.3-3.36c-0.22-2.07-1.49-3.52-2.49-5.15a26.72,26.72,0,0,0-1.58-2.27c-0.61-.79-1.27-1.54-2.15-2.59,0.09-1-.61-2.06-1.32-3.2a35,35,0,0,0-4.45-6.35,11.8,11.8,0,0,1-1.34-2.21,3.65,3.65,0,0,0-2.09-1.94,2.27,2.27,0,0,1-1-.9,11.42,11.42,0,0,1-1.1-1.76,3.38,3.38,0,0,0-2.59-2.15c0.11-2.39-1.07-4.19-2.47-5.91a12.52,12.52,0,0,1-.94-1.65,10.42,10.42,0,0,0-1.17-1.91c-2.72-2.92-4.71-6.37-7-9.59s-4.91-6.66-7.23-10.09c-3.1-4.58-5.89-9.36-9.12-13.84-2.08-2.87-3.83-6-6.58-8.41a5,5,0,0,1-1-1.38,37.7,37.7,0,0,0-3.65-5.64c-1.63-2-2.94-4.26-4.44-6.37a17,17,0,0,0-1.62-1.75,1.69,1.69,0,0,1-.49-0.46c-0.53-2.09-2.19-3.48-3.27-5.23a19.17,19.17,0,0,0-3.5-4.47,8.56,8.56,0,0,1-1.75-2.75,44.48,44.48,0,0,0-5.87-9.14c-0.7-.84-1.28-1.78-1.91-2.67-2.91-4.08-5.77-8.2-8.75-12.22-1.19-1.6-2.65-3-4-4.51a4.52,4.52,0,0,1-.59-1,23.64,23.64,0,0,0-1.42-2.92c-1.48-2.19-3.07-4.31-4.64-6.44a1.69,1.69,0,0,0-.9-0.71,2.37,2.37,0,0,1-1.89-1.81c-0.91-2.55-2.71-4.54-4.13-6.77-0.58-.92-1.17-1.83-1.7-2.78q-1.12-2-2.14-4.13a7.65,7.65,0,0,1-.49-1.62c-0.14-.61-0.16-1.26-0.35-1.86-0.41-1.3-.75-1.53-2.16-1.34a3.94,3.94,0,0,1-3.74-1.69c-1.36-1.71-2.64-3.48-3.9-5.27-0.5-.7-0.78-1.55-1.28-2.25-1.66-2.35-3.38-4.65-5.07-7-0.64-.88-1.22-1.81-1.84-2.7-0.86-1.22-1.76-2.41-2.61-3.64-0.69-1-1.33-2-2-3a1.66,1.66,0,0,0-.46-0.69c-1.26-.13-1.57-1.47-2.57-2a3.1,3.1,0,0,1-1.16-1.45c-0.95-2-1.71-4-2.76-5.93a50.29,50.29,0,0,0-3.26-4.86c-1.47-2.06-3-4.11-4.52-6.1a5.7,5.7,0,0,0-1.92-1.63c-0.9-.43-1.47-0.9-1.25-1.95a2.38,2.38,0,0,0-.65-2c-1.19-1.55-2.11-3.37-3.52-4.66-2.06-1.88-3-4.43-4.42-6.64s-2.8-4.5-4.19-6.75a2,2,0,0,0-.27-0.44c-1-.89-2.08-1.51-2.42-3.06-0.27-1.21-1.29-2.28-2-3.36-1.23-1.79-2.6-3.5-3.76-5.34-1.74-2.77-3.38-5.6-5-8.43-2.29-4-4.57-8-6.78-12-1.41-2.58-2.73-5.2-4-7.85a15.39,15.39,0,0,1-.91-3,5,5,0,0,0-1.41-2.69,4.8,4.8,0,0,1-1.57-3.46l1.63-.8a2.31,2.31,0,0,0-1.61-1.47c-1.51-.8-1.78-2.07-0.7-3.47-0.38-1-.4-2.24-1.77-2.7a1.83,1.83,0,0,1-.64-1.33c-0.39-3.6-2.1-6.64-4-9.6-0.65-1-1.28-2-1.87-3.1a1.32,1.32,0,0,1-.14-1c0.28-.79.66-1.55,1.12-2.56l1.76,1.74a1.29,1.29,0,0,0,0-1.76l-0.9-1.53c3.3,0.3,3.3.3,5.18-2.18-0.8-.45-2.45.23-2.27-1.68l1.43,0a21.15,21.15,0,0,1,.08-2.73,17.18,17.18,0,0,1,.73-2.42l2.14,1.44,0-2.56c1.72-.45,1.82,1.39,2.86,1.89a1.1,1.1,0,0,0,.4-1.51c-0.36-1.39-.72-2.79-1.17-4.15a7.15,7.15,0,0,0-2.42-3.3,13.79,13.79,0,0,1-2.24-2.13,4.38,4.38,0,0,1,0-5.74,4.91,4.91,0,0,0,1.1-2.83,16.78,16.78,0,0,1,4-9.39,16.28,16.28,0,0,1,5.5-4.38c0.87-.45,1.75-0.88,2.65-1.28,1.95-.88,2.79-0.71,4.43.79a2.65,2.65,0,0,0,.89.27,9.64,9.64,0,0,1,.09-1.26,1.43,1.43,0,0,1,1.53-1.34c3.05,0.14,6.14.2,8.79,2a35,35,0,0,1,3.48,2.83c2.67,2.36,5.36,4.69,7.94,7.14q4.13,3.91,8.07,8c4.23,4.39,8.47,8.79,12.55,13.32,3.24,3.59,6.36,7.3,9.32,11.13,5,6.52,10,13.07,14.79,19.79,5.33,7.52,10.37,15.24,15.56,22.86s10.48,15.31,15.71,23q5,7.34,10,14.71c2.39,3.53,4.74,7.08,7.13,10.6,1.81,2.67,3.57,5.38,5.53,7.94,1.15,1.5.71,3.19,1.07,4.77a1.39,1.39,0,0,1-.24.63l-0.66,1.6c-3.9,2-7.9,4-11.87,6.12a89.78,89.78,0,0,0-12.58,8.52c-2.79,2.13-5.49,4.38-8.17,6.65a16.27,16.27,0,0,0-2.31,2.56c-0.6.78-.43,1.33,0.53,1.5a4,4,0,0,1,2.68,2.1c1.46,2.11,2.72,4.41,4.71,6.15a3.89,3.89,0,0,1,.94,1.61,6.72,6.72,0,0,0,1.94,3.21,2.72,2.72,0,0,1,.54.67c2.09,3.29,4.17,6.59,6.27,9.87a3.19,3.19,0,0,0,.79.9,4.79,4.79,0,0,1,2,2.75,3.49,3.49,0,0,0,.74,1.35,14,14,0,0,1,2.23,3c0.69,1.39,2.08,1.65,3.53,1.16a15.4,15.4,0,0,1,2.66-.39c0.66-1.72,1.75-3.53,4.13-2.93s2.8,2.66,2.84,4.84c1.62,0.5,2.67,1.41,2.28,3.32a3.51,3.51,0,0,1,2.39,2.1,14.43,14.43,0,0,0,1,1.41c0.93,1.31,2,2.5,2.31,4.19a2.11,2.11,0,0,0,.63,1,22.8,22.8,0,0,1,2,2c1.3,1.76,2.51,3.59,3.71,5.42,1.33,2,1,3.39-1.29,4.4-1.63.73-2.32,2.34-3.56,3.43a2.12,2.12,0,0,0,0,1.76,15.42,15.42,0,0,0,1.93,3.85,23,23,0,0,0,4.8,5.11,2.18,2.18,0,0,0,2.28.31,1.85,1.85,0,0,0,.85-2.1c-0.22-1.83-.58-3.64-0.9-5.45-0.42-2.44-1-4.86-1.24-7.32a5.13,5.13,0,0,1,4.06-5.63,8.29,8.29,0,0,1,5.83,1.06A28.33,28.33,0,0,1,521.95,602a16.29,16.29,0,0,1,1.28,2.83c0.92,2.88-1,5.29-4,4.81a29.25,29.25,0,0,1-4.92-1.55,5.69,5.69,0,0,1-1.66-.91,4.59,4.59,0,0,1-1.21-1.42,1.59,1.59,0,0,1,.31-2.06,2.25,2.25,0,0,1,1.76-.16c0.86,0.28,1.62.87,2.46,1.24a16,16,0,0,0,2.9,1.05c1.19,0.26,1.78-.31,1.64-1.51a6.09,6.09,0,0,0-.63-2,19,19,0,0,0-9.67-9c-0.21-.09-0.43-0.17-0.65-0.24-2.08-.67-3.35.13-3.3,2.33a40.18,40.18,0,0,0,.66,5.47c0.48,3,1.34,6,1.34,9a7.44,7.44,0,0,1-1,4.29,2.46,2.46,0,0,0-.21.62c1.66,0.7,2.63.2,2.77-1.44a1.7,1.7,0,0,1,.92-1.7,1.57,1.57,0,0,1,2,.56A2.5,2.5,0,0,0,516,613q2.23-.93,4.5-1.76c1.56-.57,3.13-1.11,4.72-1.61a1,1,0,0,1,1.4,1.06,2.34,2.34,0,0,1-1.27,2.44q-2.38,1-4.78,2c-0.84.34-1.7,0.64-2.7,1a11.89,11.89,0,0,0,.61,1.16,6,6,0,0,0,.61.61c2.1,2.24,1.69,4.44-1.17,5.69a23.57,23.57,0,0,1-3.66,1,3.23,3.23,0,0,0-1.93.85,1.18,1.18,0,0,0,1.41.9,14.48,14.48,0,0,0,2.91-.24,15.45,15.45,0,0,1,7.85.53c2.78,0.84,3.51,2.55,2.28,5.16-1.36,2.87-1.35,2.87-4.42,3.76a3.65,3.65,0,0,0-.83.23,9.85,9.85,0,0,0-1,.78,3,3,0,0,0,.94,1.06,7.92,7.92,0,0,0,5.07-.44,1.53,1.53,0,0,0,.57-1.1c0.21-1.72.87-2.12,2.16-1.06a2.78,2.78,0,0,0,3,.47,3.71,3.71,0,0,1,2,.07,1.5,1.5,0,0,1,1.15,1.55,1.29,1.29,0,0,1-1.22,1.24,4.73,4.73,0,0,0-.75.32c-0.21.83,0.41,1.22,0.75,1.71,1.47,2.13,1,3.71-1.38,4.57a38.24,38.24,0,0,1-4,1c-0.65.15-1.42,0.11-1.73,1.12a2.41,2.41,0,0,0,.86.58,9.92,9.92,0,0,0,3.07.17c2.82-.54,5.61-1.28,8.41-1.92a3.88,3.88,0,0,1,1.51-.22,1.76,1.76,0,0,1,1.18.81,1.73,1.73,0,0,1-.28,1.39,3.91,3.91,0,0,1-1.23.89c-0.32.2-.68,0.34-1.31,0.65,0.79,0.49,1.34.86,1.92,1.18,1.8,1,2.3,2.38,1.3,4.16a10.45,10.45,0,0,1-1.8,2.05c-0.46.47-1,.86-1.85,1.57a13.61,13.61,0,0,0,1.65.37c1.26,0.08,2.54,0,3.79.21a6.27,6.27,0,0,1,2.26.76,1.53,1.53,0,0,1,.66,1.24,1.49,1.49,0,0,1-1,1c-1.36.22-2.74,0.26-4.12,0.4a17.66,17.66,0,0,0-2.38.37,3.82,3.82,0,0,0-1,.88,6.25,6.25,0,0,0,1.48.31c0.8-.06,1.59-0.24,2.39-0.38a13.6,13.6,0,0,1,7.78.94,3.25,3.25,0,0,1,2.34,2.73,3.34,3.34,0,0,1-1.75,3.34,36.29,36.29,0,0,1-3.94,1.71c-0.32.13-.69,0.12-1,0.25a1,1,0,0,0-.33,1.79,2.81,2.81,0,0,0,.55.41,3.45,3.45,0,0,1,1.65,2.68,14.89,14.89,0,0,0,.9,2.56,2.35,2.35,0,0,0,1.89,1.55,10.12,10.12,0,0,1,1.93.94c0.91-.39,1.93-0.78,2.91-1.24s1.83-.86,1.71-2.25c-0.08-.9.82-1.18,1.62-0.64a0.91,0.91,0,0,1,.26.22c1.2,1.83,2.41,3.64,3.55,5.5a1.89,1.89,0,0,1,.07,1,5.88,5.88,0,0,1,1.58,1.34c1.3,2.56,3.45,4.51,4.86,7,0.76,1.34,1.77,2.54,2.62,3.84,0.65,1,.53,1.63-0.6,2-1.91.68-3.31,2.32-5.37,2.7a1.14,1.14,0,0,0-.46,1,3.32,3.32,0,0,0,.63,1.38c0.73,1,1.59,2,2.27,3a5.62,5.62,0,0,1,.88,2.17,1.32,1.32,0,0,0,1.48,1.33,9.91,9.91,0,0,0,3-.61,68.35,68.35,0,0,0,15.28-8.7,54.89,54.89,0,0,0,10-9.24c0.75-.94,1.41-2,2.09-3,0.78-1.15.82-1.08,2.08-.68a6.5,6.5,0,0,1,3.55,3c2.89,4.5,5.94,8.89,8.91,13.34,2.27,3.4,4.52,6.81,6.78,10.22,2.1,3.17,4.33,6.25,6.27,9.52,2.14,3.61,4.16,7.31,6,11.1,4,8.37,7.84,16.81,11.69,25.25,1.46,3.19,2.75,6.46,4.12,9.69a5.37,5.37,0,0,1-.32,5.1,23.14,23.14,0,0,1-6.39,7.57c-0.37.27-.68,0.63-1.05,0.89-0.93.66-1.68,1.38-1.29,2.68a1.46,1.46,0,0,1-.3.57,3.76,3.76,0,0,1-.67-0.41,1.37,1.37,0,0,0-1.72-.12c-2.26,1-4.53,2-6.85,2.83a17.15,17.15,0,0,1-3.72.69c-2.25.27-3.78-1.12-5.29-2.46-1.16-1-2.25-2.12-3.39-3.17a2.89,2.89,0,0,0-3.06-.17c-0.67.49-.7,1.18-0.16,2.28l-1.69,2.27a5.33,5.33,0,0,0-.63-0.29,2.58,2.58,0,0,0-3.36,1.15,2.69,2.69,0,0,1-1.77,1.26,1.76,1.76,0,0,0-.91.43,1.11,1.11,0,0,0-.26.91,1.44,1.44,0,0,0,.76.54,1,1,0,0,0,.51,0c0.55-.11,1.13-0.12,1.25.54a1.45,1.45,0,0,1-.31,1.17,1,1,0,0,1-1.56,0,5.61,5.61,0,0,0-3-1.59,2.69,2.69,0,0,0-1-.19,7,7,0,0,1-4.94-1.44,4.22,4.22,0,0,1-.93-0.94,1.86,1.86,0,0,0-2-.85,2.56,2.56,0,0,1-3.07-2.3,2.9,2.9,0,0,0-.34-1.13,16.74,16.74,0,0,0-2-2.82c-1.75-1.79-3.62-3.46-5.46-5.16a2.17,2.17,0,0,0-.52-0.29c-0.95,1.09.78,2.65-1.16,3.4a12.11,12.11,0,0,0-.56-1.38,1.28,1.28,0,0,0-.67-0.67,1.1,1.1,0,0,0-.75.51,2.3,2.3,0,0,1-3.38.56,1.72,1.72,0,0,1-.45-0.87,3.25,3.25,0,0,0-.2-1.16c-1.22-1.22-1.7-2.88-2.68-4.24a25.93,25.93,0,0,1-2.24-4.06,46.31,46.31,0,0,1-3.1-6.93c-0.33-1.17-1.33-2.13-1.9-3.25-0.78-1.54-1.48-3.12-2.15-4.71a9.57,9.57,0,0,0-1.72-3.35,2.4,2.4,0,0,1-.5-0.9,18.83,18.83,0,0,0-4.14-6.68c-2.1-2.28-3.39-5.14-5.15-7.66a1.94,1.94,0,0,0-1.65-1.23,2.79,2.79,0,0,0,0,.87q1,2.36,2.14,4.7c0.51,1.09,1.08,2.16,1.6,3.25s0.38,1.24-.54,1.83c-0.19.12-.41,0.22-0.6,0.35a1.19,1.19,0,0,0-.53,1.86,1.17,1.17,0,0,1-.5,1.92,13.26,13.26,0,0,1-2.57-4.58,4.93,4.93,0,0,0-1.2-2.23c-0.79-.68-0.5-1.43,0-2.14h0Zm71.06-10.67-0.29.3a3.35,3.35,0,0,0,.24.63c1.83,2.92,3.71,5.82,5.5,8.77a15.35,15.35,0,0,1,1.63,3.39,20.44,20.44,0,0,0,5.45,9.22,65.87,65.87,0,0,1,8.95,9.77,4,4,0,0,0,1.1.74,2.17,2.17,0,0,0-.1-1.81,55.41,55.41,0,0,0-4.76-9c-2.51-3.65-4.54-7.59-6.68-11.46a15.27,15.27,0,0,0-4-4.93,6.28,6.28,0,0,0-1.26-.51l1,2.61A1.25,1.25,0,0,1,627,738a11.33,11.33,0,0,1-1.45-2.34,13.51,13.51,0,0,0-2.76-3.92A9.93,9.93,0,0,0,621.34,730.56ZM381,389.05l0.41-.41a10.46,10.46,0,0,0-.9-1.75c-2-2.54-3.9-5.13-6-7.54a21.91,21.91,0,0,0-4.61-4.09c-1.87-1.17-3.64-2.17-3.81-4.67,0-.72-0.86-1.1-1.23-0.63-0.89,1.13-2.13,1-3.28,1.19s-1.42.76-.7,1.67a42.27,42.27,0,0,0,3.89,4.6c2.09,2,4.4,3.82,6.57,5.78a10.4,10.4,0,0,1,1.85,2.23,1.64,1.64,0,0,0,2,1,2.86,2.86,0,0,1,2.43.59c0.7,0.5,1.43,1,2.17,1.41A13.82,13.82,0,0,0,381,389.05ZM537.51,654.94c1.52-1,1.6-2,.56-2.65a7.12,7.12,0,0,0-5.61-.77,1.13,1.13,0,0,0-.71.65c-0.38,1.18.87,3.26,2.08,3.24A25.79,25.79,0,0,0,537.51,654.94Zm-69.64-141a13.23,13.23,0,0,1-1.8-1.61c-1-1.34-1.82-2.8-2.84-4.11-1.23-1.58-2.58-3.07-3.9-4.59-0.4-.46-0.84-0.55-1.21,0,0.76,2,2.73,3.35,2.66,5.82,1.48-.62,2,0.16,2.4,1.27a7.56,7.56,0,0,0,.86,1.49c0.58,0.89,1.18,1.77,1.91,2.86Zm40.92,105.2a2.21,2.21,0,0,0-.47,1.1,2.34,2.34,0,0,0,1,1,1.31,1.31,0,0,0,.83.13c1.41-.18,2.83-0.33,4.22-0.63a1.91,1.91,0,0,0,1.29-.91,1.42,1.42,0,0,0-1-1.59,2.63,2.63,0,0,0-1.6-.38C511.64,618.12,510.3,618.62,508.79,619.09ZM516.72,630a3,3,0,0,0-.54,1.18c0,0.73.7,0.84,1.28,0.88a16.31,16.31,0,0,0,5.76-.91,1,1,0,0,0,.6-0.7,1.37,1.37,0,0,0-.69-0.86A8,8,0,0,0,516.72,630Zm7,11.82a2.59,2.59,0,0,0,.91.58c1.72,0,3.44,0,5.15-.13a1.35,1.35,0,0,0,1-.7,1.09,1.09,0,0,0-.94-1.24,2.06,2.06,0,0,0-1-.07q-2.19.44-4.37,1A2.91,2.91,0,0,0,523.68,641.83Zm30.49,43.28c0.16,1,.76,1.68,1.5,1.29a25,25,0,0,0,3.65-2.7,0.77,0.77,0,0,0,0-.76,1.36,1.36,0,0,0-.89-0.27,1.82,1.82,0,0,0-.77.34Zm-68.46-99.26c-0.87.56-1.21,1.4-.82,2a1.92,1.92,0,0,0,2.64.22c0.83-.56,1-1.09.58-1.69A1.65,1.65,0,0,0,485.71,585.84ZM352.42,403.65a7.47,7.47,0,0,0-3.47-3.51c0,1.28,1.72,2.16.84,3.59l-1.38-.18c1,1.31,1.41,1.41,2.39.49C351.28,403.58,351.64,403.07,352.42,403.65ZM543.14,721.88c-0.88,1.62.47,4.5,2.7,5.73a1.87,1.87,0,0,0-.76-2.11,2.07,2.07,0,0,1-1-2A1.44,1.44,0,0,0,543.14,721.88Zm0-54.57c0.89,1,1.48,1.35,2.4,1.23s2.1,0,2.79-1.27C546.55,666.29,545,666.69,543.11,667.31ZM345.74,400a4.27,4.27,0,0,0-.25,1.57,0.63,0.63,0,0,0,1.1.2,4,4,0,0,0,.51-1.31Zm136,172.58a1.67,1.67,0,0,0-.19,2C482.79,573.87,482.81,573.74,481.75,572.55Zm11.56,16.09a2.52,2.52,0,0,0,.13,1.07,1.71,1.71,0,0,0,.83.21,1.74,1.74,0,0,0,0-.86A2.49,2.49,0,0,0,493.32,588.65Zm87.06,187.1c-0.18,1.16-.17,1.16.92,1.66Zm-2-2.58a1.47,1.47,0,0,0,0,.68,0.67,0.67,0,0,0,.59.08,0.55,0.55,0,0,0,.13-0.53A1.76,1.76,0,0,0,578.36,773.16Zm-15.73-75.4a1.79,1.79,0,0,0,.09.77,2.06,2.06,0,0,0,.7.23,1.08,1.08,0,0,0,0-.57A3,3,0,0,0,562.64,697.76ZM490.41,591.71a1,1,0,0,0,.48.14,0.88,0.88,0,0,0,.24-0.38l-0.52-.23ZM357.71,371l-0.3.22L358,372l0.24-.15Zm-5.27,34.5a1.57,1.57,0,0,0,0,.62,1.17,1.17,0,0,0,.41.25A1,1,0,0,0,353,406,3.07,3.07,0,0,0,352.44,405.48Zm225.64,366.4a2.66,2.66,0,0,0,.19-0.46,2.48,2.48,0,0,0-.4-0.21ZM345.64,409.47a0.66,0.66,0,0,0-.18.23,0.5,0.5,0,0,0,.17.19,0.63,0.63,0,0,0,.18-0.23A0.49,0.49,0,0,0,345.64,409.47Zm18.55-42.82a2.16,2.16,0,0,0-.37-0.61,2.19,2.19,0,0,0-.7-0.18C363.19,366.61,363.44,366.85,364.2,366.64ZM573.43,766.16a0.57,0.57,0,0,0-.11.26,0.52,0.52,0,0,0,.22.17,0.57,0.57,0,0,0,.11-0.26A0.51,0.51,0,0,0,573.43,766.16Zm-12.87-71.61a0.28,0.28,0,0,0-.06.12,0.32,0.32,0,0,0,.08.12l0.11-.19Z"/><path class="cls-1" d="M559,757.52a2.82,2.82,0,0,1,.53.83,9,9,0,0,0,1.72,3.1,2.78,2.78,0,0,0,2.38,1.41c1.11,0,1.87.3,2.06,1.56a5,5,0,0,0,.95,1.47c-0.56.54-1.08,1.11-1.67,1.62-1.25,1.08-1.38,1.89-.43,3.25,0.36,0.52.77,1,1.11,1.53a1.81,1.81,0,0,1,.07.7l-2.2-1.42a0.63,0.63,0,0,1-.27-0.21c-0.4-1.13-.46-2.41-1.5-3.27a1.93,1.93,0,0,1,.59-0.87,3.29,3.29,0,0,1,1.19-.18,2.9,2.9,0,0,0,.26-0.66,5.52,5.52,0,0,0,0-.9,4.26,4.26,0,0,0-.84-0.24,2.78,2.78,0,0,1-2.68-2,4.93,4.93,0,0,0-.9-1.42,4.53,4.53,0,0,1-.75-4.13Z"/><path class="cls-1" d="M549.66,657.23a3.3,3.3,0,0,1,3.87,0,2.38,2.38,0,0,1,1.1,2.2,2.13,2.13,0,0,1-1.5,1.91,4.05,4.05,0,0,1-3,.22A2.22,2.22,0,0,1,549.66,657.23Z"/><path class="cls-1" d="M534.24,721.83a6.84,6.84,0,0,1,3.35,3.61c0.5,1.39,1.11,2.75,1.68,4.12a3.13,3.13,0,0,1,0,3c-0.32-.91-0.53-1.63-0.83-2.31s-0.72-1.3-1.08-2c-0.22-.4-0.42-0.82-0.66-1.2-0.95-1.51-1-1.51-2.52-.74-1-1.16-.92-1.13-0.07-2.6A5.24,5.24,0,0,0,534.24,721.83Z"/><path class="cls-1" d="M559.72,751.54a10.81,10.81,0,0,0,.67,2.56,9.46,9.46,0,0,0,1.72,1.76l-1.06.5,2.68,5.08a3,3,0,0,1-2.3-2c-0.91-1.85-1.67-3.77-2.46-5.68A1.64,1.64,0,0,1,559.72,751.54Z"/><path class="cls-1" d="M544.47,760a0.81,0.81,0,0,1,1-.83,2.43,2.43,0,0,1,2.08,1.35,35.48,35.48,0,0,1,1.61,3.23,1.12,1.12,0,0,1-.09.91,1.28,1.28,0,0,1-1.05-.09,4,4,0,0,1-1.42-1.67C546.27,761.53,545.82,760.4,544.47,760Z"/><path class="cls-1" d="M544.82,757.86a1.08,1.08,0,0,1-1.5-.72,36.92,36.92,0,0,0-1.66-3.52,6.39,6.39,0,0,0-1.47-1.08,1.14,1.14,0,0,1-.46-0.81,1.32,1.32,0,0,1,.75-0.81,1.11,1.11,0,0,1,1,.4c1.14,1.91,2.23,3.86,3.31,5.81A2.12,2.12,0,0,1,544.82,757.86Z"/><path class="cls-1" d="M572.33,787.75c0.4,0.6.82,1.2,1.21,1.81a19.07,19.07,0,0,1,1.1,1.9,2,2,0,0,1,.19,1.13,0.76,0.76,0,0,1-1.33.36C572.86,792.36,571.86,789,572.33,787.75Z"/><path class="cls-1" d="M568.56,779l-1.7-1.26c0-.8,0-1.53,0-2.26a1.05,1.05,0,0,1,1-1.31,1.22,1.22,0,0,1,1.06,1.32,0.36,0.36,0,0,1,0,.17,3.53,3.53,0,0,0,.05,3.12Z"/><path class="cls-1" d="M520.51,705.24c0.64,0.49,1.14.85,1.61,1.24a1.81,1.81,0,0,1,.37,2.3,1,1,0,0,1-.83.38,1.87,1.87,0,0,1-1.06-.92A19.59,19.59,0,0,1,520.51,705.24Z"/><path class="cls-1" d="M567.75,770.85c-1.47-.38-1.8-0.71-1.53-1.43a1.42,1.42,0,0,1,1.8-.88C568.63,768.86,568.58,769.31,567.75,770.85Z"/><path class="cls-1" d="M527.76,715.11c-1.15-1.63-1.14-2.12.1-3.71C528.62,712.22,528.58,713.78,527.76,715.11Z"/><path class="cls-1" d="M580.78,782.09c1.87,0.81,2.15,1.3,1.74,2.91C580.4,783.73,580.4,783.73,580.78,782.09Z"/><path class="cls-1" d="M532.14,737.37L530.34,734c1.49,0.13,1.58.29,2.13,3.15Z"/><path class="cls-1" d="M517.3,701.56l-0.33-2,1.93-.6C519.35,700.28,518.3,700.84,517.3,701.56Z"/><path class="cls-1" d="M537.75,747.29a3.69,3.69,0,0,1-2.08-3C536.6,744.44,537.37,745.54,537.75,747.29Z"/><path class="cls-1" d="M549.69,766.5a2.16,2.16,0,0,1,1.59,2.41A2.11,2.11,0,0,1,549.69,766.5Z"/><path class="cls-1" d="M537.09,749.36a2.16,2.16,0,0,1,.93-0.65c0.7,0.17,1.08.71,0.89,1.75l-1.68-.63Z"/><path class="cls-1" d="M570.38,774.19a8.82,8.82,0,0,1-1.2-.88,1.49,1.49,0,0,1-.08-0.76,1.7,1.7,0,0,1,.89.08,6.3,6.3,0,0,1,.74,1.27Z"/><path class="cls-1" d="M521.57,713.93c0.44,0.68,1.41,1.08,1.34,2.26C521.59,715.84,521.62,714.86,521.57,713.93Z"/><path class="cls-1" d="M340,405.61l-1.23-1.84C340.15,403.91,340.21,404,340,405.61Z"/><path class="cls-1" d="M615.15,792l1.24,2.39C615.09,794,614.87,793.66,615.15,792Z"/><path class="cls-1" d="M545.47,746.92a1.22,1.22,0,0,1-.51-1.78A1.14,1.14,0,0,1,545.47,746.92Z"/><path class="cls-1" d="M385.81,524.48c-0.75-.66-1.1-1-0.66-1.73C386.06,523,385.81,523.6,385.81,524.48Z"/><path class="cls-1" d="M383.39,519.95l-0.74-1.42,0.33-.2,0.89,1.33Z"/><path class="cls-1" d="M528.63,720.75l1.22,1.27C528.32,722.09,528.28,722.05,528.63,720.75Z"/><path class="cls-1" d="M531.19,725.89a3.1,3.1,0,0,1,.6-0.76,1.17,1.17,0,0,1,.59.08,1.48,1.48,0,0,1-.24.69A2.21,2.21,0,0,1,531.19,725.89Z"/><path class="cls-1" d="M362.32,472.72l-0.72-.92C362.39,471.82,362.39,471.82,362.32,472.72Z"/><path class="cls-1" d="M519.13,702.31l0.93,1-0.29.3-1-1Z"/><path class="cls-1" d="M535.26,742l-1.18.06c0.44-.73.79-0.73,1.2-0.46V742Z"/><path class="cls-1" d="M569.16,783.8l0.93,0.22-0.06.38-1-.11Z"/><path class="cls-1" d="M577.65,788.76l-0.26.73a1.15,1.15,0,0,1-.42-0.16,3.76,3.76,0,0,1,.11-0.74Z"/><path class="cls-1" d="M528.4,728.54a1,1,0,0,1,.45.18,0.9,0.9,0,0,1,0,.44l-0.54-.12Z"/><path class="cls-1" d="M506.21,702.91l0.28-.61a0.82,0.82,0,0,1,.37.22,0.5,0.5,0,0,1-.09.44A1.27,1.27,0,0,1,506.21,702.91Z"/><path class="cls-1" d="M620,801.45l-0.54.57-0.3-.32,0.63-.48Z"/><path class="cls-1" d="M527.68,719.07l-0.17.42a0.91,0.91,0,0,1-.39-0.19,0.74,0.74,0,0,1,.08-0.39Z"/><path class="cls-1" d="M586.23,784.34l0.46,0.2a1.57,1.57,0,0,1-.19.38,0.32,0.32,0,0,1-.27-0.07A2,2,0,0,1,586.23,784.34Z"/><path class="cls-1" d="M585.22,789.56l-0.06.27a0.71,0.71,0,0,1-.25-0.09,1.29,1.29,0,0,1,.08-0.35Z"/><path class="cls-1" d="M521.24,694.79l-0.22.46a1.58,1.58,0,0,1-.37-0.19,0.32,0.32,0,0,1,.08-0.26A1.87,1.87,0,0,1,521.24,694.79Z"/><path class="cls-1" d="M518.14,706.78l-0.23-.75,0.2-.1,0.37,0.68Z"/><path class="cls-1" d="M552.52,765.36a0.49,0.49,0,0,1,.05-0.26,0.55,0.55,0,0,1,.28,0l-0.07.36Z"/><path class="cls-1" d="M585.08,782.43a0.52,0.52,0,0,1,.28,0,0.53,0.53,0,0,1,0,.28,0.52,0.52,0,0,1-.28,0A0.54,0.54,0,0,1,585.08,782.43Z"/><path class="cls-1" d="M644.34,806.44a1,1,0,0,1,.41.14,0.72,0.72,0,0,1,0,.38,1.91,1.91,0,0,1-.41-0.19A0.74,0.74,0,0,1,644.34,806.44Z"/><path class="cls-1" d="M501.73,686.17l0.39-.46,0.29,0.28-0.41.42Z"/><path class="cls-1" d="M522.81,711.22l0.71-.13,0.06,0.24-0.67.23Z"/><path class="cls-1" d="M622,792l0.13,0a2.18,2.18,0,0,1,.09.24l-0.13,0A2.22,2.22,0,0,1,622,792Z"/><path class="cls-1" d="M554.68,751.88l0-.28a0.49,0.49,0,0,1,.25.08,0.55,0.55,0,0,1,0,.27Z"/><path class="cls-1" d="M534.58,728.37l0.07-.27a0.48,0.48,0,0,1,.22.13,0.59,0.59,0,0,1-.06.27Z"/><path class="cls-1" d="M555.7,754.26l0.15,0v0.25a0.29,0.29,0,0,1-.14-0.06A0.3,0.3,0,0,1,555.7,754.26Z"/><path class="cls-1" d="M609.77,800.78h0.15l-0.06.22a0.31,0.31,0,0,1-.12-0.08A0.27,0.27,0,0,1,609.77,800.78Z"/><path class="cls-1" d="M612.06,794.43l0.07-.13,0.17,0.17a0.3,0.3,0,0,1-.13.06A0.29,0.29,0,0,1,612.06,794.43Z"/><path class="cls-1" d="M540.82,725.54l0.14,0a2.65,2.65,0,0,1,.09.26l-0.14,0A2.55,2.55,0,0,1,540.82,725.54Z"/><path class="cls-1" d="M550.32,741.24l-0.69-.67,0.26-.16,0.39,0.81h0Z"/><path class="cls-1" d="M545.2,734.72a1,1,0,0,1,.23.11,0.18,0.18,0,0,1,0,.15,1.11,1.11,0,0,1-.23,0Z"/><path class="cls-1" d="M367.05,488h0.14a2.29,2.29,0,0,1,0,.25h-0.14V488Z"/><polygon class="cls-1" points="536.33 731.07 536.28 731.17 536.22 731.07 536.33 731.07"/><path class="cls-1" d="M527.15,726.61l0.14,0v0.23a0.29,0.29,0,0,1-.13-0.05A0.28,0.28,0,0,1,527.15,726.61Z"/><path class="cls-1" d="M378.13,494.93a0.25,0.25,0,0,1,.12-0.06,0.29,0.29,0,0,1,.1.09l-0.18.1Z"/><path class="cls-1" d="M405.55,535.33l-0.13-.06,0.15-.18A0.13,0.13,0,0,1,405.55,535.33Z"/><path class="cls-1" d="M642.08,800.55a0.28,0.28,0,0,1-.14,0,0.31,0.31,0,0,1-.09-0.12l0.23-.07v0.15Z"/><polygon class="cls-1" points="613.9 834.95 614.02 834.93 613.97 835.04 613.9 834.95"/><polygon class="cls-1" points="556.78 749.79 556.79 749.93 556.67 749.87 556.78 749.79"/><polygon class="cls-1" points="393.13 513.02 393.26 513.04 393.18 513.13 393.13 513.02"/><path class="cls-1" d="M521.07,703a0.45,0.45,0,0,1,.15,0,2.32,2.32,0,0,1,0,.3,0.43,0.43,0,0,1-.14,0A2.24,2.24,0,0,1,521.07,703Z"/><path class="cls-1" d="M589.53,823.24a0.28,0.28,0,0,1,.12,0,1.92,1.92,0,0,1,.09.25,0.27,0.27,0,0,1-.12,0A1.8,1.8,0,0,1,589.53,823.24Z"/><path d="M554.17,685.1l3.47-2.1a1.82,1.82,0,0,1,.77-0.34,1.36,1.36,0,0,1,.89.27,0.77,0.77,0,0,1,0,.76,25,25,0,0,1-3.65,2.7C554.93,686.78,554.33,686.08,554.17,685.1Z"/><path d="M543.14,721.88a1.44,1.44,0,0,1,1,1.61,2.07,2.07,0,0,0,1,2,1.87,1.87,0,0,1,.76,2.11C543.6,726.38,542.26,723.5,543.14,721.88Z"/><path d="M345.74,400l1.36,0.46a4,4,0,0,1-.51,1.31,0.63,0.63,0,0,1-1.1-.2A4.27,4.27,0,0,1,345.74,400Z"/><path d="M580.38,775.74l0.92,1.66C580.2,776.9,580.2,776.9,580.38,775.74Z"/><path d="M578.36,773.16a1.76,1.76,0,0,1,.71.24,0.55,0.55,0,0,1-.13.53,0.67,0.67,0,0,1-.59-0.08A1.47,1.47,0,0,1,578.36,773.16Z"/><path d="M562.64,697.76a3,3,0,0,1,.83.44,1.08,1.08,0,0,1,0,.57,2.06,2.06,0,0,1-.7-0.23A1.79,1.79,0,0,1,562.64,697.76Z"/><path d="M357.71,371l0.5,0.9L358,372l-0.56-.83Z"/><path d="M578.08,771.88l-0.21-.67a2.48,2.48,0,0,1,.4.21A2.66,2.66,0,0,1,578.08,771.88Z"/><path d="M345.64,409.47a0.49,0.49,0,0,1,.17.2,0.63,0.63,0,0,1-.18.23,0.5,0.5,0,0,1-.17-0.19A0.65,0.65,0,0,1,345.64,409.47Z"/><path d="M364.2,366.64c-0.76.2-1,0-1.06-.79a2.19,2.19,0,0,1,.7.18A2.16,2.16,0,0,1,364.2,366.64Z"/><path d="M573.43,766.16a0.52,0.52,0,0,1,.22.17,0.57,0.57,0,0,1-.11.26,0.52,0.52,0,0,1-.22-0.17A0.57,0.57,0,0,1,573.43,766.16Z"/><path d="M560.55,694.55l0.13,0-0.11.19a0.32,0.32,0,0,1-.08-0.12A0.28,0.28,0,0,1,560.55,694.55Z"/><path class="cls-1" d="M628.94,740v0.16l-0.24-.1a0.29,0.29,0,0,1,.09-0.12A0.3,0.3,0,0,1,628.94,740Z"/></svg>