<svg id="Layer_1" data-name="Layer 1" xmlns="http://www.w3.org/2000/svg" viewBox="0 0 903.9 1292.72"><defs><style>.cls-1{fill:#fff;}.cls-2{fill:none;stroke:#fff;stroke-miterlimit:10;}</style></defs><title>items</title><path d="M415.86,626.81l0.93-.12,0,0.35-0.93.12Z"/><path d="M304.62,621.59a0.44,0.44,0,0,1-.19.07,0.31,0.31,0,0,1-.08-0.15Z"/><path class="cls-1" d="M407.59,724.14c-3-2-5.8-4.18-8.81-6a80.15,80.15,0,0,0-15.63-7.07c-3.86-1.3-7.73-2.58-11.57-3.92-3.58-1.25-7.19-2.44-10.7-3.87a22.67,22.67,0,0,1-10.44-8.18,17.92,17.92,0,0,1-2.81-10.85,16.63,16.63,0,0,1,6.06-12.9,27.4,27.4,0,0,1,8.94-5.07c5.64-1.9,11.53-2.82,17.21-4.51A110.16,110.16,0,0,0,401,653.32c1.39-.76,2.82-1.45,4.23-2.18l4-2.09c2.49,1.54,5,3.17,7.65,4.71a70.41,70.41,0,0,0,13.84,6c5.44,1.79,10.86,3.65,16.33,5.35a72,72,0,0,1,10.11,3.66c4.8,2.32,8.93,5.46,11.06,10.43a18.39,18.39,0,0,1-4.26,20.95A26.93,26.93,0,0,1,453.72,706c-4.45,1.48-9,2.59-13.51,3.92q-5.25,1.55-10.47,3.24a79.33,79.33,0,0,0-15.56,6.72C411.93,721.2,409.8,722.71,407.59,724.14Zm39.89-40.66c1-.5.84-1.32,0.63-2.16a2.73,2.73,0,0,0-1.53-2.09,3.41,3.41,0,0,0-4,1.42,2.6,2.6,0,0,0,1,3.41c1.37,1,2.74.73,3.92-.65Zm-69.21,5.36a3,3,0,0,0-3.57-1.95,4.7,4.7,0,0,0-3,7.5c2,3,6.7,3.48,9.74,2s4.7-4,6.12-6.8c2.27-4.49,4.44-9,6.65-13.54a10.72,10.72,0,0,1,3.12-4.31c0.81-.59.56-1.42-0.43-1.6a4.46,4.46,0,0,0-4.1.88,10.86,10.86,0,0,0-2.23,2.68c-1.32,2.5-2.45,5.09-3.67,7.64a7.58,7.58,0,0,1-1.56,2.63l-2.9-6.87c-1.21-2.86-3.38-3.63-6.45-2.15,0.2,0.48.37,1,.6,1.46,1.76,3.59,3.44,7.22,5.33,10.73a3.74,3.74,0,0,1,0,4.05A11.84,11.84,0,0,1,380,693.6a3.78,3.78,0,0,1-3.47.92,3,3,0,0,1-2.35-3.4,2.65,2.65,0,0,1,2.89-2.34C377.43,688.79,377.83,688.82,378.27,688.85Zm52.7-9.07c-1.76-.48-3.23-0.84-4.68-1.29a11.49,11.49,0,0,0-6.32-.18,8.11,8.11,0,0,0,1.88,16.07c1.08-.07,2.16-0.23,3.23-0.35a10.87,10.87,0,0,1,0,5.51,3.53,3.53,0,0,1-2.29,2.23,16,16,0,0,0-1.76.77,3.15,3.15,0,0,0,3,.65c3.65-.62,6.51-2.87,6.76-7.21,0.23-3.93.27-7.87,0.33-11.81C431.15,682.75,431,681.31,431,679.78Zm-29.08,14.34c4.53,0.28,8.46-3.21,9.22-6.28a7.37,7.37,0,0,0-2.08-7.59c-3.54-3.3-8.5-3.75-12.89-.69a7.73,7.73,0,0,0-.42,12.16A9.41,9.41,0,0,0,401.89,694.12Zm32.2-14.86a19.39,19.39,0,0,0-.38,2.55c0,2.55,0,5.11,0,7.66s1.26,4.37,3.33,4.94a6,6,0,0,0,6.38-1.81,3.69,3.69,0,0,0,.3-1.19c-0.76.3-1.25,0.55-1.77,0.7-1.88.52-2.75-.12-2.77-2.07,0-1.79.11-3.59,0.1-5.39s-0.08-3.54-.12-5.4h-5.1Zm2.77-6.35a1.87,1.87,0,0,0-2,1.82,2.29,2.29,0,0,0,2,2,2.21,2.21,0,0,0,2.15-2A1.94,1.94,0,0,0,436.86,672.91Z"/><path class="cls-1" d="M430.32,779.46c-2.66.93-3.44,0.64-4.41-1.27-1.16-2.27-2.37-4.51-3.53-6.78-0.33-.66-0.64-1.26-1.51-1.09s-0.82.84-.85,1.46c-0.1,1.58-.17,3.16-0.26,4.74-0.06,1-.15,2-0.23,3.11h-3a5.9,5.9,0,0,1-.4-1.56c0.09-3,.27-6,0.38-9.06,0.09-2.48.13-5,.18-7.43a1.84,1.84,0,0,0-1.29-1.91,9.13,9.13,0,0,1-1.31-.85,45.94,45.94,0,0,1,8.65,0,11,11,0,0,1,4.41,1,5.13,5.13,0,0,1,3.08,4.73,4.49,4.49,0,0,1-2.94,4.53c-0.49.22-.95,0.54-1.66,1Zm-10.23-15h0a24.27,24.27,0,0,0,0,2.69,1.5,1.5,0,0,0,.66,1.12,4.62,4.62,0,0,0,4.34-.62,3.92,3.92,0,0,0,1.55-3.83c-0.37-2.24-1.8-3.39-4.41-3.49-1.5-.06-2,0.37-2.13,1.85C420,762.9,420.08,763.66,420.08,764.42Z"/><path class="cls-1" d="M350,763.78a2.75,2.75,0,0,0,2.57-2.61c0.15-.86,1.42-1.53,2.18-2.28l0.46,0.16,0.25,4.39c2.21,0.13,4.32.76,6.52,0.44s2.08-.3,2.7,1.89c0.39-.34.7-0.65,1-0.91a3.26,3.26,0,0,1,3.69-.84c0.8,0.46.45,1.44,0.23,2.37-0.48,0-.88,0-1.27,0-2.6.12-3.92,1.34-4.13,4-0.13,1.58-.07,3.18-0.11,4.76,0,1-.11,2-0.17,3.17h-2.85c0-1.76-.06-3.39-0.07-5,0-1.8.09-3.59,0-5.39-0.09-2.26-.62-2.76-2.85-3a11.68,11.68,0,0,0-1.24-.08c-1.33,0-1.63.21-1.66,1.53-0.07,2.83-.07,5.66,0,8.49a2,2,0,0,0,1.84,2.14c0.45,0.11.92,0.17,1.61,0.29a2.83,2.83,0,0,1-.75,1,4.82,4.82,0,0,1-5-1.21,3.1,3.1,0,0,1-.66-1.87c-0.13-2.69-.23-5.38-0.21-8.07,0-1.27.06-2.37-1.57-2.6A2.57,2.57,0,0,1,350,763.78Z"/><path class="cls-1" d="M348,759.05c-0.82-.21-1.27-0.34-1.73-0.45a14,14,0,0,0-2.21-.46,3.2,3.2,0,0,0-3.41,4,3.16,3.16,0,0,0,1.26,1.54c1.52,1.07,3.14,2,4.68,3a6.13,6.13,0,0,1,2.59,7.55c-0.63,1.88-2.16,2.67-3.78,3.22-2.52.86-5.06,0.34-7.5-.49-1.08-.37-0.86-1.23-0.35-2.27a26,26,0,0,0,2.44.92,13.69,13.69,0,0,0,3,.56,3,3,0,0,0,3.09-2,3.29,3.29,0,0,0-.88-3.8c-1-.84-2.08-1.58-3.14-2.34-0.45-.32-0.94-0.57-1.41-0.87-3-1.9-3.22-4.18-2.39-7.78a2.76,2.76,0,0,1,1.39-1.66c2.08-.91,4.23-1.71,6.59-1a16.14,16.14,0,0,0,1.78.33v1.93Z"/><path class="cls-1" d="M469.81,779.1a2.59,2.59,0,0,1-.44.8c-2.44,1.26-7.15.75-8.93-1.25a8.12,8.12,0,0,1-1.57-8.32c1.51-4.65,5.42-5.25,9-4.18,2.05,0.62,3,2.38,3.23,4.43,0.13,1-.36,1.41-1.56,1.41-1.52,0-3-.08-4.56-0.1-2.49,0-3.12.83-2.36,3.15,0.94,2.9,3,4.24,5.55,4A11.05,11.05,0,0,1,469.81,779.1Zm-6.75-9a25.14,25.14,0,0,0,3,.11,1.63,1.63,0,0,0,1.24-.73,1.92,1.92,0,0,0-.43-1.46,1.94,1.94,0,0,0-2.43-.54A2,2,0,0,0,463.06,770.06Z"/><path class="cls-1" d="M443.5,771.3c-0.67,0-1.4.14-2.13,0.14-1.59,0-3.18,0-4.76,0a1.16,1.16,0,0,0-1.39,1.17c0,2.8,1.85,6.18,5.24,5.92,0.8-.06,1.6,0,2.31,0a0.92,0.92,0,0,1-.54,1.45c-4.29,2.2-10-.65-10.63-5.4a10.78,10.78,0,0,1,.27-5.29,5.59,5.59,0,0,1,4.25-3.82,10,10,0,0,1,3.88-.1A4.68,4.68,0,0,1,443.5,771.3Zm-8-1.71c0.51,0.1.9,0.21,1.3,0.26,0.68,0.08,1.36.14,2,.16,1.57,0,2.18-.87,1.33-2.19a3,3,0,0,0-1.77-1.19C436.7,766.27,435.71,767.29,435.49,769.59Z"/><path class="cls-1" d="M382,769.73c-1,0-2,.11-3,0.12-1.31,0-2.63-.06-3.93,0s-1.79.57-1.53,1.85c0.79,3.87,2.93,6.64,7.93,5.53a0.72,0.72,0,0,1-.26,1.29c-4.85,1.92-10.72-.24-11-5.86a12.13,12.13,0,0,1,.33-4.89,5.29,5.29,0,0,1,5.06-3.83,12.11,12.11,0,0,1,3.08.25C381.14,764.81,382.39,766.87,382,769.73Zm-2.8-1.47c-0.36-2.3-.94-3.06-2.28-3.23a3.11,3.11,0,0,0-3.1,2c-0.24.56-.26,1.26,0.43,1.34C375.86,768.53,377.5,768.9,379.21,768.27Z"/><path class="cls-1" d="M483.81,762.77h-2.87l-1.49-2.49c-1.71.93-2.78,3.53-2.13,5a2,2,0,0,0,1.11.73c0.73,0.25,2-.11,2,0.93,0.06,1.27-1.22.78-1.93,0.84a1.61,1.61,0,0,0-1.63,1.75c-0.16,2.88-1.06,5.72-.44,8.65a10.7,10.7,0,0,1,0,2h-2.92c0-2.76,0-5.3,0-7.84a18.92,18.92,0,0,1,.06-2.28c0.15-1.17-.08-2-1.37-2.39a2.1,2.1,0,0,1-.66-0.84,1.34,1.34,0,0,1,.35-0.42c2-.34,2-0.16,2.19-2.49,0.35-4.07,4-6.13,7.67-4.44A3.1,3.1,0,0,1,483.81,762.77Z"/><path class="cls-1" d="M444.19,759.27l5.06-.76a20.78,20.78,0,0,1,.23,2.68c-0.21,4.69-.47,9.38-0.71,14.07-0.05,1.1,0,2.21-.1,3.31-0.12,1.44-.62,1.8-2,1.71a1.2,1.2,0,0,1-1.33-1.43c0.13-2.13.23-4.27,0.34-6.4q0.23-4.43.47-8.87C446.26,761.64,446,760.95,444.19,759.27Z"/><path class="cls-1" d="M403.72,766.79a17.73,17.73,0,0,0-2.32-.8,4.27,4.27,0,0,0-2,0,1.55,1.55,0,0,0-.73,2.73,24.85,24.85,0,0,0,2.58,2,18.75,18.75,0,0,1,2.48,2.13,3.87,3.87,0,0,1-.85,5.9c-2.31,1.45-4.81,1.06-7.22.42-1.11-.29-0.61-1.3-0.41-2.2,0.94,0.36,1.75.72,2.58,1a4.73,4.73,0,0,0,1.6.18,2.2,2.2,0,0,0,2.26-1.49,2.18,2.18,0,0,0-1.14-2.45c-1.13-.78-2.24-1.6-3.41-2.34-1.67-1.06-1.87-2.63-1.57-4.36a3.56,3.56,0,0,1,3.33-2.93,16.27,16.27,0,0,1,3.9.23C403.68,764.95,403.66,765.06,403.72,766.79Z"/><path class="cls-1" d="M383.92,776.8c0.64,0.25,1.26.51,1.9,0.73a6.5,6.5,0,0,0,1.56.43,2.51,2.51,0,0,0,2.74-1.39c0.42-1,.08-1.87-1.16-2.79s-2.3-1.5-3.4-2.32a4,4,0,0,1-1.52-4.59c0.48-1.72,1.89-2.18,3.43-2.58a6.45,6.45,0,0,1,3.86.27c0.87,0.3.86,0.37,0.84,1.91-0.54-.15-1-0.33-1.53-0.42a10,10,0,0,0-2.43-.32,1.52,1.52,0,0,0-1.11,2.65,17.33,17.33,0,0,0,2.59,2,24.07,24.07,0,0,1,2.13,1.63,4.24,4.24,0,0,1,1,4.78,3.75,3.75,0,0,1-3.35,2.41,17.1,17.1,0,0,1-4.52-.11C383.56,778.9,383.47,778.56,383.92,776.8Z"/><path class="cls-1" d="M399.75,738.43c-0.22,1.73-1.2,2.46-1.92,3.32-2,2.42-2,2.41-.37,5,1,1.56,2,3.1,3.06,4.65a0.65,0.65,0,0,1-.05.27c-1.22.51-2,0-2.71-1.06-0.85-1.34-1.71-2.67-2.6-4a8.24,8.24,0,0,0-1.17-1c-0.06,1.33-.1,2.26-0.15,3.19,0,0.62-.05,1.24-0.13,1.86a1,1,0,0,1-1.05,1,1,1,0,0,1-1-1.27q0.12-2,.18-3.92c0.06-1.66.18-3.31,0.12-5a19.92,19.92,0,0,0-.54-3,0.37,0.37,0,0,1,.28-0.11c2.07-.28,2.3-0.06,2.29,2,0,1.14,0,2.28.08,3.86C396.43,742.61,397.34,740.12,399.75,738.43Z"/><path class="cls-1" d="M455.58,780.06a12.74,12.74,0,0,1-1.38.12,12.13,12.13,0,0,1-1.33-.18,9.37,9.37,0,0,1-.29-1.84c0.11-2.62.2-5.25,0.48-7.85,0.15-1.42,0-2.46-1.47-3a2.91,2.91,0,0,1-.61-0.7c1.73-.33,3.23-0.66,4.76-0.85a1.34,1.34,0,0,1,.85.92,10.59,10.59,0,0,1,0,2.48c-0.23,3-.48,6.05-0.75,9.08C455.84,778.85,455.69,779.43,455.58,780.06Z"/><path class="cls-1" d="M424.42,747.2a7.82,7.82,0,0,0,0-2.22,2.11,2.11,0,0,0-1.18-1.2,1.6,1.6,0,0,0-1.29.68c-0.39.57-.57,1.33-1.47,1.1a0.92,0.92,0,0,1-.54-0.71,1.65,1.65,0,0,1,1.53-1.45,7.76,7.76,0,0,1,2.45-.14c1.78,0.26,2.37,1,2.38,2.77s0,3.45-.1,5.17c-0.07,1.22-.49,1.56-1.57,1.11a2,2,0,0,0-1.71.09,3.24,3.24,0,0,1-1.42.13,2.24,2.24,0,0,1-2.14-1.66,2.2,2.2,0,0,1,1.06-2.49,4.8,4.8,0,0,1,1.5-.64C422.65,747.53,423.46,747.4,424.42,747.2Zm-0.34,1.09a3.42,3.42,0,0,0-2.46.83,1.59,1.59,0,0,0,0,2.06,1.36,1.36,0,0,0,2-.15A2.13,2.13,0,0,0,424.07,748.29Z"/><path class="cls-1" d="M406.6,746.79a6.87,6.87,0,0,0,.09-2,2.24,2.24,0,0,0-1-1.41,1.22,1.22,0,0,0-1.65.81c-0.42,1-1.08,1.08-2.18.45a5.68,5.68,0,0,1,.86-1.29,4.24,4.24,0,0,1,4.49-.26,2.56,2.56,0,0,1,1.09,1.61,57.93,57.93,0,0,1,0,6.19c0,1.06-.56,1.4-1.49,1a1.59,1.59,0,0,0-1.71.05,1.84,1.84,0,0,1-.79.21,3.09,3.09,0,0,1-2.85-1.65,2.42,2.42,0,0,1,1.55-2.81A32.21,32.21,0,0,1,406.6,746.79Zm-0.13.69a15.82,15.82,0,0,0-2.48.89,1.32,1.32,0,0,0-.51,1.81,1.89,1.89,0,0,0,1.33,1A2.39,2.39,0,0,0,406.3,750,7.82,7.82,0,0,0,406.47,747.48Z"/><path class="cls-1" d="M367.42,808.16c-1.51-1.57-.23-3.22-1.13-4.56-1.24,1.17-.81,3.27-2.42,4.25-1.16-1.19-1.31-2.73-1.8-4.1h-0.42l-0.45,3.38c-0.8-1.27-.83-2-0.45-6.82a1.11,1.11,0,0,1,1.62.76c0.34,0.75.57,1.55,0.87,2.32,0.24,0.61.52,1.21,0.78,1.81h0.43c0.53-1.3,1.1-2.58,1.58-3.89,0.24-.65.56-1.26,1.28-0.92a1.72,1.72,0,0,1,.62,1.32c0,1.51,0,3-.13,4.54A14.86,14.86,0,0,1,367.42,808.16Z"/><path class="cls-1" d="M415.25,749.33l2.53-5.67,0.41,0.13a2.1,2.1,0,0,1,0,.72c-0.87,2.18-1.73,4.37-2.67,6.52a4.88,4.88,0,0,1-1.05,1.15,5.51,5.51,0,0,1-1.14-1.3c-1.06-2.53-2-5.09-3-7.63,1.86-.15,2.14,0,2.67,1.63,0.3,0.92.56,1.86,0.91,2.76a16.2,16.2,0,0,0,.89,1.7h0.51Z"/><path class="cls-1" d="M404.52,801.37a29.24,29.24,0,0,1,3,.3c1.8,0.37,2.28,1.45,1.39,3a13.38,13.38,0,0,1-.83,1.17c0.21,0.57.4,1.08,0.6,1.59s0.38,1,.67,1.69c-1.88-.41-1.77-2.33-3.23-3l-0.8,3.12C404.14,807.72,404.05,806.66,404.52,801.37Zm1,2.14a4.16,4.16,0,0,0,1.25,1.3,1,1,0,0,0,1.15-1.1,1,1,0,0,0-1.16-1.27A4.46,4.46,0,0,0,405.52,803.51Z"/><path class="cls-1" d="M370.44,804s0-.41.1-0.82c0.34-2.39,2.05-3.41,4.3-2.54,1.81,0.7,1.69,2.36,1.72,3.84,0,2-.78,3.43-2,3.74C371.82,809,370.21,807,370.44,804Zm4.87,0a10.82,10.82,0,0,0-.19-1.33,1.6,1.6,0,0,0-1.38-1.35,1.52,1.52,0,0,0-1.6,1,4,4,0,0,0,.21,4.3,1.67,1.67,0,0,0,1.31.72,2,2,0,0,0,1.32-1A9,9,0,0,0,375.32,804Z"/><path class="cls-1" d="M466.26,805.83c-0.16,1.68-.16,3.08-1.71,3.81-1.77.84-3.7,0.15-4.07-1.75a11.57,11.57,0,0,1,.06-3.88,2.68,2.68,0,0,1,2.65-1.93,2.27,2.27,0,0,1,2.57,1.62A14.05,14.05,0,0,1,466.26,805.83Zm-1.31.23a11.35,11.35,0,0,0-.24-2,1.33,1.33,0,0,0-1.54-1.08,2.12,2.12,0,0,0-1.39,1,5.19,5.19,0,0,0,.35,4.39,1.29,1.29,0,0,0,2.41-.24A10.11,10.11,0,0,0,465,806.06Z"/><path class="cls-1" d="M458.86,789.53a7.27,7.27,0,0,1,4.08.53,2.66,2.66,0,0,1,1.58,2.46,15.69,15.69,0,0,1-.05,2.06,3.42,3.42,0,0,1-4.81,2.36,1.48,1.48,0,0,1-.57-1c-0.09-.75,0-1.51,0-2.27C459,792.32,458.93,791,458.86,789.53Zm1.32,0.93c0,1.1,0,2.25,0,3.41,0,0.34,0,.69,0,1a1.22,1.22,0,0,0,.93,1.41,1.51,1.51,0,0,0,1.85-.93,5,5,0,0,0,.1-3.83C462.57,790.3,462.09,790.1,460.18,790.45Z"/><path class="cls-1" d="M403,791.2l-0.5,4.52h-0.45c-0.45-2.17.34-4.41-.21-6.59a1.25,1.25,0,0,1,2,.63c0.57,1.1,1.14,2.2,1.74,3.29a9,9,0,0,0,.93,1.07l0.28-4.88c0.93,1.4.94,4.24,0.11,7C404.86,795.24,404.7,792.83,403,791.2Z"/><path class="cls-1" d="M427.2,792.72c-0.23,2.38-.77,3.35-2.32,3.85a2.74,2.74,0,0,1-3.54-1.62,5.43,5.43,0,0,1,.3-4.78,2.76,2.76,0,0,1,4.76.05A15,15,0,0,1,427.2,792.72Zm-5.09.26a10.08,10.08,0,0,0,.78,2.42c0.7,1.17,2,1,2.53-.29a6.46,6.46,0,0,0,.2-4,1.3,1.3,0,0,0-1.34-1.29,2.61,2.61,0,0,0-1.65.95A6.91,6.91,0,0,0,422.11,793Z"/><path class="cls-1" d="M345.31,799.49a24.76,24.76,0,0,1,3.28.45c1.19,0.33,1.85,1.78,1,2.6-1.34,1.38-.65,2.46,0,3.68a2.38,2.38,0,0,1,.13.66c-1.06.46-1.29-.36-1.63-1s-0.68-1.29-1.24-2.37l-1,3.19c-0.81-1.09-.61-2.24-0.64-3.35S345.31,801,345.31,799.49Zm1.44,3.37c1.43-.12,1.66-0.25,1.83-0.95a1.19,1.19,0,0,0-.94-1.56c-0.87-.13-1.06.47-1.07,1.13A9.49,9.49,0,0,0,346.75,802.86Z"/><path class="cls-1" d="M355.32,800c1.54,0,2.73,1.38,2.76,3.27a7.62,7.62,0,0,1-.33,2.24,2.45,2.45,0,0,1-2.88,2.05c-1.72-.12-2.32-0.56-2.6-2.34a8.23,8.23,0,0,1,.05-3C352.72,800.41,353.53,799.92,355.32,800Zm-2.11,4a13,13,0,0,0,.23,1.61,1.49,1.49,0,0,0,1.6,1.31,1.43,1.43,0,0,0,1.48-1.44,20.87,20.87,0,0,0-.18-3.85,1.66,1.66,0,0,0-1.23-1.05,2.39,2.39,0,0,0-1.47,1.18A8.12,8.12,0,0,0,353.21,804Z"/><path class="cls-1" d="M371.3,788.87c-0.71,2-.62,2.25,1.16,2.36,0.73,0,1,.19,1,1l-2.19-.2a2.16,2.16,0,0,0-.13,2.38c0.77,1,1.83.26,2.82,0a1.25,1.25,0,0,1-1.46,1,5,5,0,0,1-2.38-.25,2.79,2.79,0,0,1-.69-2c-0.09-1.7,0-3.42,0-5.22,1.62-.19,3-0.32,4.37.68Z"/><path class="cls-1" d="M396.28,791.2c0.51,1.32,2.36-.34,2.31,1.61-0.78.05-1.72-.16-2.13,0.21s-0.36,1.35-.5,2a2.69,2.69,0,0,0,3.14.13c-0.42,1.28-1,1.41-4.18.86-0.78-2.35.41-4.82-.25-7.35,1.62,0,3-.34,4.37.23l0,0.49a8,8,0,0,1-.88,0C396.19,789.18,396,789.41,396.28,791.2Z"/><path class="cls-1" d="M468.74,802.22c2.66,0.45,2.39,3.43,4.3,4.89l0.27-4h0.43c-0.11,2.11.24,4.22-.16,6.59-2.09-1-2.11-3.39-3.73-4.62-1,1.21,0,2.7-.63,3.89-0.52-.69-0.52-0.69-0.48-3.1C468.75,804.76,468.74,803.6,468.74,802.22Z"/><path class="cls-1" d="M386,801a5.87,5.87,0,0,1,4.57.75c-0.85,0-1.35,0-1.84,0a1.21,1.21,0,0,0-1.3,1.46c0.08,1,.7,1.06,1.47.94,0.26,0,.52,0,0.86-0.07l0.15,1.18-2.39-.14v2.73l2.83-.27a0.73,0.73,0,0,1,.13.34c-1,1.44-2.3.7-3.51,0.51s-1-1.16-1-2C386,804.72,386,802.95,386,801Z"/><path class="cls-1" d="M429.89,795.6v-6.13c0.86-.55,1.27.18,1.66,0.82,0.78,1.27,1.53,2.55,2.39,4,0.93-1.38.38-2.83,0.91-4.06a27.37,27.37,0,0,1,.07,6.6c-2.17-1.45-2.43-3.88-4.41-5.44v4.2h-0.63Z"/><path class="cls-1" d="M393.77,802.45c0.68,0.76,1.08,1.27,1.55,1.73s0.87,0.68,1.26,1.06a2.08,2.08,0,0,1-.92,3.66c-1.07.32-1.26,0.28-3.07-.76a13.77,13.77,0,0,1,1.82,0,1.07,1.07,0,0,0,1.43-.81,2,2,0,0,0-.62-1.36,11.42,11.42,0,0,0-1.52-1.05,2,2,0,0,1-1-2.47A2.2,2.2,0,0,1,395,801a2.12,2.12,0,0,1,1.35.64c-0.34.07-.68,0.12-1,0.22S394.61,802.14,393.77,802.45Z"/><path class="cls-1" d="M451.28,791.95l-0.34,4.13c-0.56-1.33-.63-2.89-0.31-6.12a1.05,1.05,0,0,1,1.66.49c0.48,0.84.91,1.7,1.4,2.53,0.33,0.56.71,1.09,1.23,1.89,0.84-1.56.05-3,.54-4.45,0.59,3.84.51,5.49-.41,6.61l-3.23-5.18Z"/><path class="cls-1" d="M379.78,788.51a1,1,0,0,1-.35.14c-0.72,0-1.55,0-1.6.87a2.58,2.58,0,0,0,.92,1.43c0.52,0.54,1.22.9,1.7,1.47a1.78,1.78,0,0,1-.86,3.08,8.76,8.76,0,0,1-2.63.18,3.35,3.35,0,0,1-1-.75,15.62,15.62,0,0,0,2.55,0,1.54,1.54,0,0,0,1.06-.8,1.52,1.52,0,0,0-.52-1.17,12.47,12.47,0,0,0-1.69-1.16,1.92,1.92,0,0,1-1-2.25,2,2,0,0,1,2-1.48,12.26,12.26,0,0,1,1.52.07Z"/><path class="cls-1" d="M360.13,794.66c-2-2.8-2.76-2.83-5.26-.3l2.49-7a2,2,0,0,1,1.1.49A15.81,15.81,0,0,1,360.13,794.66Zm-2.64-4.59c-0.49.61-1,1.14-.33,1.77A0.92,0.92,0,1,0,357.49,790.07Z"/><path class="cls-1" d="M348.71,794.23V787l3.83,0.37,0,0.2a6.07,6.07,0,0,0-2.26.64c-0.35.28-.17,1.24-0.23,2l2.25,0.18,0,0.78c-2.47-.18-2.62,0-2.21,2.56l2.34,0.36C351.43,794.86,351.1,794.88,348.71,794.23Z"/><path class="cls-1" d="M410.56,796c0.93-.21,2.11.37,2.55-0.84s-0.64-1.78-1.59-2.23l-0.18-.1c-1-.66-1.72-1.86-1.38-2.53a2.53,2.53,0,0,1,2.5-1.5,2.31,2.31,0,0,1,1.29.4l-2.35.94c0.36,1.35,1.41,1.7,2.18,2.34,1.33,1.12,1.44,2.65.16,3.45A2.84,2.84,0,0,1,410.56,796Z"/><path class="cls-1" d="M446.87,809.45c-1.29.09-.91-1.47-1.72-1.74a21.38,21.38,0,0,0-2.39-.53l-1.19,2c-0.48-1.61.65-2.5,1-3.6s0.71-2.31,1.07-3.48C445,802.76,446.79,806.8,446.87,809.45Zm-3-5.6a7.44,7.44,0,0,0-.77,1.93,2.28,2.28,0,0,0,.82.89,2.34,2.34,0,0,0,.71-1A6.83,6.83,0,0,0,443.83,803.85Z"/><path class="cls-1" d="M380.15,801.72l-1.8-.08a0.9,0.9,0,0,1,1.17-1c1.46,0.21,3.08-.32,4.37,1a2.38,2.38,0,0,1-.66,0c-1.07-.25-1.35.28-1.33,1.23,0,1.24,0,2.48-.07,3.72a9.71,9.71,0,0,1-.32,1.52c-1.23,0-1.18-.75-1.18-1.45,0-1.24,0-2.48,0-3.72A9.93,9.93,0,0,0,380.15,801.72Z"/><path class="cls-1" d="M392.47,789.2l-1.56.23c-0.76,2.11.2,4.41-1.23,6.5a4.48,4.48,0,0,1-.55-1.29c-0.1-1.23-.1-2.46-0.11-3.7,0-1.83,0-1.83-1.76-2C388.42,788,390.34,788,392.47,789.2Z"/><path class="cls-1" d="M363.15,794.76l2.25-.16a1.57,1.57,0,0,0-.44-2.4,7.29,7.29,0,0,1-1.61-1.27,2.74,2.74,0,0,1-.59-2,2.84,2.84,0,0,1,1.7-1.23,4.48,4.48,0,0,1,1.71.11v0.42a6.6,6.6,0,0,0-1.09.06,1,1,0,0,0-.53,1.79,10.89,10.89,0,0,0,1.32,1c1.38,1,1.77,2.15,1.11,3.12C366.1,795.44,364.94,795.65,363.15,794.76Z"/><path class="cls-1" d="M338.81,806.3c-0.44-2.23,0-4.46-.07-6.64,2.3-.75,3.87-0.27,4.27,1.22,0.32,1.17-.17,1.89-1.75,2.34,0.16-.46.29-0.8,0.4-1.14a4,4,0,0,0,.21-0.79,1.14,1.14,0,0,0-1-1.35c-0.73-.11-0.89.54-0.91,1.11,0,1.37-.05,2.74-0.07,4.12A0.94,0.94,0,0,1,338.81,806.3Z"/><path class="cls-1" d="M435.45,806.65c0.17-1.8-.93-3.07-2-4.55,2-.42,2.17,1.42,3.27,2.28l1.6-1.92,0.29,0.13a7.51,7.51,0,0,1-.71,1.44,2,2,0,0,0,0,2.93,10.81,10.81,0,0,1,1.14,2.53c-1.3-.17-1.45-1-2-1.52s-1.11-.91-1.67-1.36Z"/><path class="cls-1" d="M413.66,805.54c-1,2.72-.58,3.24,2.62,3.27a5.79,5.79,0,0,1-4.17.13V801.8l1.84-.11a7.64,7.64,0,0,0-.68,1.4c-0.26,1.13.13,1.6,1.33,1.78a5.69,5.69,0,0,1,1.07.3,1.93,1.93,0,0,1,0,.55Z"/><path class="cls-1" d="M460.18,842.14c-1.21,0-1.64-.53-1.67-2,0-1.72.25-2.15,1.43-2.18s1.87,0.79,1.86,2.81A1.35,1.35,0,0,1,460.18,842.14Z"/><path class="cls-1" d="M455.43,759.39a2,2,0,0,1,1.91,2,2.18,2.18,0,0,1-2.13,1.83,1.73,1.73,0,0,1-1.73-1.89A1.87,1.87,0,0,1,455.43,759.39Z"/><path class="cls-1" d="M454.21,802.65l-2.12.54c-0.32,2.11.42,4.25-.68,6.21-1.29-2-.26-4.23-0.95-6.37l-1.48-.48A6.93,6.93,0,0,1,454.21,802.65Z"/><path class="cls-1" d="M431,809.31l-2.56-2.59c0.8-1,.89-1.49-0.15-2.61a2,2,0,0,1-.45-2.4,2.66,2.66,0,0,1,1.19.61c0.8,2.12,1.5,4.28,2.22,6.44A1.56,1.56,0,0,1,431,809.31Z"/><path class="cls-1" d="M444,791.57c0.14-.6.28-1.2,0.43-1.8a1.3,1.3,0,0,1,.24-0.28,2.11,2.11,0,0,1,.95.51,21.71,21.71,0,0,1,2.22,6.58c-1.18,0-1-.94-1.44-1.38s-1.19-.83-0.8-2c0.28-.83-0.54-1.63-1.62-1.72Z"/><path class="cls-1" d="M486.64,766a12.64,12.64,0,0,1-.46,2.37,1.5,1.5,0,0,1-1.06.48,1.81,1.81,0,0,1-2-1.45c-0.13-1,1-2.47,1.9-2.31A4.71,4.71,0,0,1,486.64,766Z"/><path class="cls-1" d="M401.25,840.77l0.2-3.67,1.94,0.88,1.46-1a4.57,4.57,0,0,1,.34,3.58c-0.72-.26-1.37-0.46-2-0.73C402.21,839.39,402.38,840.8,401.25,840.77Z"/><path class="cls-1" d="M396.43,836.83l2.79,0.14-1,1.16c0.58,0.42,1.2,1-.2,1.44l1.1,0.79a1.18,1.18,0,0,1-.24.45,6.78,6.78,0,0,1-1.4.23,1.29,1.29,0,0,1-1.47-1.54C396.09,838.71,396.26,837.91,396.43,836.83Z"/><path class="cls-1" d="M349.16,838.73l-2.32-.29a3.74,3.74,0,0,1,.08-3.32C350.14,835.24,350.35,835.59,349.16,838.73Z"/><path class="cls-1" d="M423.78,808.43c-1.43,1-2,1.05-4.56.54v-7c0.72-.25,1.1.18,1.11,1,0,1.17-.07,2.35-0.06,3.52,0,2.18.26,2.36,2.44,2.08Z"/><path class="cls-1" d="M352.08,835.35l2.32,0.48c0.17,0.78.36,1.5,0.47,2.22a1.16,1.16,0,0,1-1.12,1.42c-1.08.19-2-.28-2.12-1.08a2.81,2.81,0,0,1,0-.82C351.78,836.91,351.91,836.26,352.08,835.35Zm1.24,3.13,0.3-.19a0.64,0.64,0,0,0-.21-0.27,0.67,0.67,0,0,0-.3.18Z"/><path class="cls-1" d="M415.93,837.28c0.86,1.31.18,2.43,0.27,4l-2.36-1.72L413.43,841l-0.55-.37V837l2.13,1.62Z"/><path class="cls-1" d="M371.6,838.93a2.59,2.59,0,0,1-.62-0.68,2.19,2.19,0,0,1-.23-1.42,2.32,2.32,0,0,1,1.55-.72,0.93,0.93,0,0,1,.84,1.18,6.25,6.25,0,0,0,.22,1.2,1.47,1.47,0,0,1-1.95,1.79C370.77,840.1,370.78,839.75,371.6,838.93Z"/><path class="cls-1" d="M386.47,840.61c-0.73-1.42-.23-2.57.07-3.88a6.11,6.11,0,0,1,1.79,0c1.21,0.39,1.37,1.52.41,2.38a2.52,2.52,0,0,1-.33.25Z"/><path class="cls-1" d="M416.94,789.13c0.65-.38,1.35-0.43,1.36.29,0,2.19-.14,4.38-0.26,6.57a2,2,0,0,1-.59.37C416.78,793.9,417.5,791.44,416.94,789.13Z"/><path class="cls-1" d="M381.11,840.26v-3.62a8.84,8.84,0,0,1,1.67-.17,1.44,1.44,0,0,1,1.48,1.42,2.3,2.3,0,0,1-1,1.36A12.64,12.64,0,0,1,381.11,840.26Z"/><path class="cls-1" d="M378.83,836.63a3,3,0,0,1,0,3.05,1.71,1.71,0,0,1-3,.09c-0.48-.74-0.42-1.86.29-3.28a20.55,20.55,0,0,0,.46,2.12,1.19,1.19,0,0,0,.62.66,1.46,1.46,0,0,0,.82-0.73,11,11,0,0,0,.25-1.91h0.58Z"/><path class="cls-1" d="M360.58,839.38l-3.53-.27c-0.2-1.27.7-2.27,1.5-3.49C360,836.59,359.93,838.09,360.58,839.38Z"/><path class="cls-1" d="M456.92,809.53c-1.06-1.09-.39-2.43-0.49-3.63s-0.12-2.43-.19-3.69c0.72-.39,1.3-0.14,1.31.63,0,2.13-.12,4.26-0.21,6.38A1.24,1.24,0,0,1,456.92,809.53Z"/><path class="cls-1" d="M465.94,838l1.74,3.87-3.68-.28A4.91,4.91,0,0,1,465.94,838Z"/><path class="cls-1" d="M342.45,834.5l2.3,0.53c-1.43.63-1,1.75-1.39,2.56l1.24,0.79-0.11.44-2.39-.13C341.64,836.34,341.64,836.34,342.45,834.5Z"/><path class="cls-1" d="M453.23,841.65l-3.42-.17a6.3,6.3,0,0,1,1.48-3.42C453.05,838.82,452.91,840.35,453.23,841.65Z"/><path class="cls-1" d="M472.49,838.55c-0.91.59-2.24,0.37-2.09,1.62a3.84,3.84,0,0,0,.89,1.34l0.42-.18,0.11-1.4a2.46,2.46,0,0,1,1,.27,2.33,2.33,0,0,1-.12,1.48,1.46,1.46,0,0,1-2.16.32,2.46,2.46,0,0,1-.95-2.71C470,838.23,470.94,837.93,472.49,838.55Z"/><path class="cls-1" d="M444.92,841.82c-0.7-3.25-.17-4.07,2.53-3.73l-1,1a8.78,8.78,0,0,1,.54,1.09,3.84,3.84,0,0,1-.66.4l1.36,1.23h-2.75Z"/><path class="cls-1" d="M407.77,837l2.37,0.11,0.08,0.37-1.06.79,0.94,0.84-1,.8,1.33,0.82c-2,1-2.81.58-2.82-1.21C407.57,838.8,407.68,838.06,407.77,837Z"/><path class="cls-1" d="M339.66,838.58L338.21,837l-1.39,1.11v-3.5c0.85,1.15,1.65,1.61,2.84.46v3.51Z"/><path class="cls-1" d="M362.83,840a4.09,4.09,0,0,1,.43-4.12l0.56,2.82,1.54,0.78a1.39,1.39,0,0,1-.39.51C364.3,840,363.63,840,362.83,840Z"/><path class="cls-1" d="M475.74,803.49a3.65,3.65,0,0,1,1.2-.74,1.23,1.23,0,0,1,1.32,1.47,1,1,0,0,1-1.18,1.14A1.52,1.52,0,0,1,475.74,803.49Z"/><path class="cls-1" d="M419.72,841.41l-1-4.3,2.39,0.23Z"/><path class="cls-1" d="M442.31,838l-1.05,3.6-0.39,0L439.78,838h2.52Z"/><path class="cls-1" d="M393.77,840.7h-2.25c0-1.31-.62-2.55.38-4.08,0.74,1.53-.14,3.46,2.18,3.63Z"/><path class="cls-1" d="M430.78,856.12c0.54-2,.57-2.05,2.11-1.19Z"/><path class="cls-1" d="M427,841.64a5.47,5.47,0,0,1,0-3.87A4.64,4.64,0,0,1,427,841.64Z"/><path class="cls-1" d="M362.28,848.25c0.52,0.78.38,1.33-.3,1.63a0.9,0.9,0,0,1-.81-0.35C361,848.76,361.45,848.42,362.28,848.25Z"/><path class="cls-1" d="M444,791.52c0,2.61,0,2.61-1.66,4.49q0.85-2.22,1.69-4.44Z"/><path class="cls-1" d="M425.79,808.41l1.3-3.93C427.31,806.52,427.31,806.52,425.79,808.41Z"/><path class="cls-1" d="M433.69,841.18a4.27,4.27,0,0,1-.12-3.2A2.09,2.09,0,0,1,433.69,841.18Z"/><path class="cls-1" d="M433.39,861.09l-1.13-1.59c1.28,0.09,1.57.53,1.59,1.23Z"/><path class="cls-1" d="M435.4,806.59a2.93,2.93,0,0,1-1.52,2.42,3.27,3.27,0,0,1,1.57-2.36Z"/><path class="cls-1" d="M416.49,802.19a2.44,2.44,0,0,1-.81.29,0.75,0.75,0,0,1-.21-0.45,0.41,0.41,0,0,1,.29-0.16A4,4,0,0,1,416.49,802.19Z"/><path class="cls-1" d="M369.5,849.94l-0.16,0a2.19,2.19,0,0,1,0-.3,0.55,0.55,0,0,1,.15,0Z"/><path d="M353.31,838.48l-0.21-.29a0.67,0.67,0,0,1,.3-0.18,0.64,0.64,0,0,1,.21.27Z"/><path class="cls-1" d="M425.63,681.53c0,2.4.06,4.94,0,7.48-0.05,1.68-.57,2.18-2.16,2.54-1.89.43-3.59-.38-4.89-2.34a5.87,5.87,0,0,1,.36-6.6,5,5,0,0,1,6.29-1.51A2.32,2.32,0,0,1,425.63,681.53Z"/><path class="cls-1" d="M402.14,690.88a5.36,5.36,0,0,1-5.27-5.06c0-2.63,2.44-4.91,5.35-4.94a5,5,0,0,1,5.17,5.06C407.42,688.77,405.22,690.85,402.14,690.88Z"/><path class="cls-1" d="M446.54,683.35a1.15,1.15,0,0,1-1.93.5c0.47-1.43,1.38-.18,2-0.44Z"/><path class="cls-1" d="M443.47,680.18l1.83-.4,0,0.48-1.88-.09Z"/><path class="cls-1" d="M443.44,680.16a3,3,0,0,1,.16,2.63c-0.87-1-.06-1.8-0.12-2.61Z"/><path class="cls-2" d="M317.89,863S305,864,305,862s2.58-226.67,2.58-226.67l-1-6.7s1.39-5.57,2.79-4.88,5.92,2.09,13.58,2.09,124.7,1.39,127.84,3.48,19.51,0.35,30.65,1.74,18.11,1,19.51,2.79,2.09,15.67,3.13,16.72,1.74,1,2.09,8,2.79,64.44,1.74,69S505.45,857.79,505.45,862s1.39,8.36-2.79,8.36S346.29,857,317.89,863Z"/></svg>